<mxfile host="app.diagrams.net" agent="Mozilla/5.0 (Macintosh; Intel Mac OS X 10_15_7) AppleWebKit/537.36 (KHTML, like Gecko) Chrome/138.0.0.0 Safari/537.36" version="28.0.6" pages="10">
  <diagram id="8qyYTX_KgME_ceJo4Cuf" name="packageDiagram">
    <mxGraphModel dx="1535" dy="1433" grid="1" gridSize="10" guides="1" tooltips="1" connect="1" arrows="1" fold="1" page="1" pageScale="1" pageWidth="827" pageHeight="1169" math="0" shadow="0">
      <root>
        <mxCell id="0" />
        <mxCell id="1" parent="0" />
        <mxCell id="DfooPyoKJCeNlXTDoHhL-1" value="" style="shape=folder;fontStyle=1;spacingTop=10;tabWidth=40;tabHeight=14;tabPosition=left;html=1;whiteSpace=wrap;fillColor=#f5f5f5;fontColor=#333333;strokeColor=#666666;" parent="1" vertex="1">
          <mxGeometry x="60" y="70" width="970" height="330" as="geometry" />
        </mxCell>
        <mxCell id="DfooPyoKJCeNlXTDoHhL-3" value="" style="shape=folder;fontStyle=1;spacingTop=10;tabWidth=40;tabHeight=14;tabPosition=left;html=1;whiteSpace=wrap;fillColor=#ffe6cc;strokeColor=#d79b00;" parent="1" vertex="1">
          <mxGeometry x="80" y="120" width="930" height="120" as="geometry" />
        </mxCell>
        <mxCell id="DfooPyoKJCeNlXTDoHhL-2" value="component" style="shape=folder;fontStyle=0;spacingTop=10;tabWidth=40;tabHeight=10;tabPosition=left;html=1;whiteSpace=wrap;fontSize=14;" parent="1" vertex="1">
          <mxGeometry x="105" y="170" width="100" height="50" as="geometry" />
        </mxCell>
        <mxCell id="DfooPyoKJCeNlXTDoHhL-4" value="dto" style="shape=folder;fontStyle=0;spacingTop=10;tabWidth=40;tabHeight=10;tabPosition=left;html=1;whiteSpace=wrap;fontSize=14;" parent="1" vertex="1">
          <mxGeometry x="235" y="170" width="100" height="50" as="geometry" />
        </mxCell>
        <mxCell id="DfooPyoKJCeNlXTDoHhL-5" value="geo" style="shape=folder;fontStyle=0;spacingTop=10;tabWidth=40;tabHeight=10;tabPosition=left;html=1;whiteSpace=wrap;fontSize=14;" parent="1" vertex="1">
          <mxGeometry x="365" y="170" width="100" height="50" as="geometry" />
        </mxCell>
        <mxCell id="DfooPyoKJCeNlXTDoHhL-6" value="handler" style="shape=folder;fontStyle=0;spacingTop=10;tabWidth=40;tabHeight=10;tabPosition=left;html=1;whiteSpace=wrap;fontSize=14;" parent="1" vertex="1">
          <mxGeometry x="495" y="170" width="100" height="50" as="geometry" />
        </mxCell>
        <mxCell id="DfooPyoKJCeNlXTDoHhL-7" value="integration" style="shape=folder;fontStyle=0;spacingTop=10;tabWidth=40;tabHeight=10;tabPosition=left;html=1;whiteSpace=wrap;fontSize=14;" parent="1" vertex="1">
          <mxGeometry x="625" y="170" width="100" height="50" as="geometry" />
        </mxCell>
        <mxCell id="DfooPyoKJCeNlXTDoHhL-8" value="model" style="shape=folder;fontStyle=0;spacingTop=10;tabWidth=40;tabHeight=10;tabPosition=left;html=1;whiteSpace=wrap;fontSize=14;" parent="1" vertex="1">
          <mxGeometry x="755" y="170" width="100" height="50" as="geometry" />
        </mxCell>
        <mxCell id="DfooPyoKJCeNlXTDoHhL-9" value="navigation" style="shape=folder;fontStyle=0;spacingTop=10;tabWidth=40;tabHeight=10;tabPosition=left;html=1;whiteSpace=wrap;fontSize=14;" parent="1" vertex="1">
          <mxGeometry x="885" y="170" width="100" height="50" as="geometry" />
        </mxCell>
        <mxCell id="iIXna_qIIFfPtogNJbGk-1" value="&lt;b&gt;&lt;font&gt;Domain&lt;/font&gt;&lt;/b&gt;" style="text;html=1;align=center;verticalAlign=middle;whiteSpace=wrap;rounded=0;fontSize=16;" parent="1" vertex="1">
          <mxGeometry x="515" y="137" width="60" height="30" as="geometry" />
        </mxCell>
        <mxCell id="iIXna_qIIFfPtogNJbGk-2" value="" style="shape=folder;fontStyle=1;spacingTop=10;tabWidth=40;tabHeight=14;tabPosition=left;html=1;whiteSpace=wrap;fillColor=#d5e8d4;strokeColor=#82b366;" parent="1" vertex="1">
          <mxGeometry x="80" y="260" width="670" height="120" as="geometry" />
        </mxCell>
        <mxCell id="iIXna_qIIFfPtogNJbGk-3" value="component" style="shape=folder;fontStyle=0;spacingTop=10;tabWidth=40;tabHeight=10;tabPosition=left;html=1;whiteSpace=wrap;fontSize=14;" parent="1" vertex="1">
          <mxGeometry x="105" y="310" width="100" height="50" as="geometry" />
        </mxCell>
        <mxCell id="iIXna_qIIFfPtogNJbGk-4" value="controller" style="shape=folder;fontStyle=0;spacingTop=10;tabWidth=40;tabHeight=10;tabPosition=left;html=1;whiteSpace=wrap;fontSize=14;" parent="1" vertex="1">
          <mxGeometry x="235" y="310" width="100" height="50" as="geometry" />
        </mxCell>
        <mxCell id="iIXna_qIIFfPtogNJbGk-5" value="service" style="shape=folder;fontStyle=0;spacingTop=10;tabWidth=40;tabHeight=10;tabPosition=left;html=1;whiteSpace=wrap;fontSize=14;" parent="1" vertex="1">
          <mxGeometry x="365" y="310" width="100" height="50" as="geometry" />
        </mxCell>
        <mxCell id="iIXna_qIIFfPtogNJbGk-6" value="handler" style="shape=folder;fontStyle=0;spacingTop=10;tabWidth=40;tabHeight=10;tabPosition=left;html=1;whiteSpace=wrap;fontSize=14;" parent="1" vertex="1">
          <mxGeometry x="495" y="310" width="100" height="50" as="geometry" />
        </mxCell>
        <mxCell id="iIXna_qIIFfPtogNJbGk-7" value="integration" style="shape=folder;fontStyle=0;spacingTop=10;tabWidth=40;tabHeight=10;tabPosition=left;html=1;whiteSpace=wrap;fontSize=14;" parent="1" vertex="1">
          <mxGeometry x="625" y="310" width="100" height="50" as="geometry" />
        </mxCell>
        <mxCell id="iIXna_qIIFfPtogNJbGk-10" value="&lt;b&gt;&lt;font&gt;Infrastracture&lt;/font&gt;&lt;/b&gt;" style="text;html=1;align=center;verticalAlign=middle;whiteSpace=wrap;rounded=0;fontSize=16;" parent="1" vertex="1">
          <mxGeometry x="380" y="277" width="60" height="30" as="geometry" />
        </mxCell>
        <mxCell id="iIXna_qIIFfPtogNJbGk-11" value="" style="shape=folder;fontStyle=1;spacingTop=10;tabWidth=40;tabHeight=14;tabPosition=left;html=1;whiteSpace=wrap;fillColor=#fff2cc;strokeColor=#d6b656;" parent="1" vertex="1">
          <mxGeometry x="780" y="260" width="230" height="120" as="geometry" />
        </mxCell>
        <mxCell id="iIXna_qIIFfPtogNJbGk-19" value="&lt;b&gt;&lt;font&gt;Orchestration&lt;/font&gt;&lt;/b&gt;" style="text;html=1;align=center;verticalAlign=middle;whiteSpace=wrap;rounded=0;fontSize=16;" parent="1" vertex="1">
          <mxGeometry x="865" y="277" width="60" height="30" as="geometry" />
        </mxCell>
        <mxCell id="iIXna_qIIFfPtogNJbGk-20" value="&lt;font&gt;&lt;span&gt;DroneSystem&lt;/span&gt;&lt;/font&gt;" style="html=1;whiteSpace=wrap;fontSize=14;fontStyle=0" parent="1" vertex="1">
          <mxGeometry x="840" y="310" width="110" height="50" as="geometry" />
        </mxCell>
        <mxCell id="iIXna_qIIFfPtogNJbGk-21" value="&lt;b&gt;&lt;font&gt;Drone System&lt;/font&gt;&lt;/b&gt;" style="text;html=1;align=center;verticalAlign=middle;whiteSpace=wrap;rounded=0;fontSize=16;" parent="1" vertex="1">
          <mxGeometry x="471.25" y="90" width="147.5" height="30" as="geometry" />
        </mxCell>
      </root>
    </mxGraphModel>
  </diagram>
  <diagram id="6snW7_TKgoX--E_-COPZ" name="generalArchitecture">
    <mxGraphModel dx="844" dy="788" grid="1" gridSize="10" guides="1" tooltips="1" connect="1" arrows="1" fold="1" page="1" pageScale="1" pageWidth="827" pageHeight="1169" math="0" shadow="0">
      <root>
        <mxCell id="0" />
        <mxCell id="1" parent="0" />
        <mxCell id="L3YHqJxyqEIAcy5vTp7V-1" value="" style="html=1;outlineConnect=0;whiteSpace=wrap;fillColor=#d5e8d4;shape=mxgraph.archimate.rounded=1;strokeColor=#82b366;" parent="1" vertex="1">
          <mxGeometry x="32" y="623" width="659" height="120" as="geometry" />
        </mxCell>
        <mxCell id="L3YHqJxyqEIAcy5vTp7V-2" value="" style="html=1;outlineConnect=0;whiteSpace=wrap;shape=mxgraph.archimate.rounded=1;fillColor=#fff2cc;strokeColor=#d6b656;" parent="1" vertex="1">
          <mxGeometry x="32" y="496" width="659" height="120" as="geometry" />
        </mxCell>
        <mxCell id="L3YHqJxyqEIAcy5vTp7V-3" value="" style="html=1;outlineConnect=0;whiteSpace=wrap;fillColor=#ffe6cc;shape=mxgraph.archimate.rounded=1;strokeColor=#d79b00;" parent="1" vertex="1">
          <mxGeometry x="32" y="50" width="659" height="440" as="geometry" />
        </mxCell>
        <object placeholders="1" c4Name="Network Identification" c4Type="Service" c4Technology="Spring Boot" c4Description="Enables electronic identification of drones." label="&lt;font style=&quot;font-size: 16px&quot;&gt;&lt;b&gt;%c4Name%&lt;/b&gt;&lt;/font&gt;&lt;div&gt;[%c4Type%:&amp;nbsp;%c4Technology%]&lt;/div&gt;&lt;br&gt;&lt;div&gt;&lt;font style=&quot;font-size: 11px&quot;&gt;&lt;font&gt;%c4Description%&lt;/font&gt;&lt;/font&gt;&lt;/div&gt;" id="L3YHqJxyqEIAcy5vTp7V-4">
          <mxCell style="shape=rectangle;size=30;perimeter=hexagonPerimeter2;whiteSpace=wrap;html=1;fixedSize=1;rounded=1;labelBackgroundColor=none;fontSize=12;align=center;metaEdit=1;resizable=1;direction=west;rotation=0;arcSize=15;points=[[0,0.5,0,0,0],[0.25,0,0,0,0],[0.25,1,0,0,0],[0.5,0,0,0,0],[0.5,1,0,0,0],[0.75,0,0,0,0],[0.75,1,0,0,0],[1,0.5,0,0,0]];fillColor=#f5f5f5;fontColor=#333333;strokeColor=#666666;" parent="1" vertex="1">
            <mxGeometry x="51" y="215" width="200" height="100" as="geometry" />
          </mxCell>
        </object>
        <object placeholders="1" c4Name="Geo-awareness" c4Type="Service" c4Technology="Spring Boot" c4Description="Provides information about&#xa;geographical zones and &#xa;support points." label="&lt;font style=&quot;font-size: 16px&quot;&gt;&lt;b&gt;%c4Name%&lt;/b&gt;&lt;/font&gt;&lt;div&gt;[%c4Type%:&amp;nbsp;%c4Technology%]&lt;/div&gt;&lt;br&gt;&lt;div&gt;&lt;font style=&quot;font-size: 11px&quot;&gt;&lt;font&gt;%c4Description%&lt;/font&gt;&lt;/font&gt;&lt;/div&gt;" id="L3YHqJxyqEIAcy5vTp7V-5">
          <mxCell style="shape=rectangle;size=30;perimeter=hexagonPerimeter2;whiteSpace=wrap;html=1;fixedSize=1;rounded=1;labelBackgroundColor=none;fontSize=12;align=center;metaEdit=1;resizable=1;direction=west;rotation=0;arcSize=15;points=[[0,0.5,0,0,0],[0.25,0,0,0,0],[0.25,1,0,0,0],[0.5,0,0,0,0],[0.5,1,0,0,0],[0.75,0,0,0,0],[0.75,1,0,0,0],[1,0.5,0,0,0]];fillColor=#f5f5f5;fontColor=#333333;strokeColor=#666666;" parent="1" vertex="1">
            <mxGeometry x="241" y="70" width="215" height="100" as="geometry" />
          </mxCell>
        </object>
        <object placeholders="1" c4Name="UAS Flight Authorization" c4Type="Service" c4Technology="Spring Boot" c4Description="Grants permission for drone flights within U-space airspace" label="&lt;font style=&quot;font-size: 16px&quot;&gt;&lt;b&gt;%c4Name%&lt;/b&gt;&lt;/font&gt;&lt;div&gt;[%c4Type%:&amp;nbsp;%c4Technology%]&lt;/div&gt;&lt;br&gt;&lt;div&gt;&lt;font style=&quot;font-size: 11px&quot;&gt;&lt;font&gt;%c4Description%&lt;/font&gt;&lt;/font&gt;&lt;/div&gt;" id="L3YHqJxyqEIAcy5vTp7V-6">
          <mxCell style="shape=rectangle;size=30;perimeter=hexagonPerimeter2;whiteSpace=wrap;html=1;fixedSize=1;rounded=1;labelBackgroundColor=none;fontSize=12;align=center;metaEdit=1;resizable=1;direction=west;rotation=0;arcSize=15;points=[[0,0.5,0,0,0],[0.25,0,0,0,0],[0.25,1,0,0,0],[0.5,0,0,0,0],[0.5,1,0,0,0],[0.75,0,0,0,0],[0.75,1,0,0,0],[1,0.5,0,0,0]];fillColor=#f5f5f5;fontColor=#333333;strokeColor=#666666;" parent="1" vertex="1">
            <mxGeometry x="461" y="190" width="210" height="105" as="geometry" />
          </mxCell>
        </object>
        <object placeholders="1" c4Name="Weather Information" c4Type="Service" c4Technology="Spring Boot" c4Description="Provides up-to-date &#xa;weather data." label="&lt;font style=&quot;font-size: 16px&quot;&gt;&lt;b&gt;%c4Name%&lt;/b&gt;&lt;/font&gt;&lt;div&gt;[%c4Type%:&amp;nbsp;%c4Technology%]&lt;/div&gt;&lt;br&gt;&lt;div&gt;&lt;font style=&quot;font-size: 11px&quot;&gt;&lt;font&gt;%c4Description%&lt;/font&gt;&lt;/font&gt;&lt;/div&gt;" id="L3YHqJxyqEIAcy5vTp7V-7">
          <mxCell style="shape=rectangle;size=30;perimeter=hexagonPerimeter2;whiteSpace=wrap;html=1;fixedSize=1;rounded=1;labelBackgroundColor=none;fontSize=12;align=center;metaEdit=1;resizable=1;direction=west;rotation=0;arcSize=15;points=[[0,0.5,0,0,0],[0.25,0,0,0,0],[0.25,1,0,0,0],[0.5,0,0,0,0],[0.5,1,0,0,0],[0.75,0,0,0,0],[0.75,1,0,0,0],[1,0.5,0,0,0]];fillColor=#f5f5f5;fontColor=#333333;strokeColor=#666666;" parent="1" vertex="1">
            <mxGeometry x="51" y="370" width="200" height="100" as="geometry" />
          </mxCell>
        </object>
        <object placeholders="1" c4Name="UI" c4Type="Service" c4Technology="React" c4Description="Provide a graphical interface for managing and utilizing U-space services and simulator." label="&lt;font style=&quot;font-size: 16px&quot;&gt;&lt;b&gt;%c4Name%&lt;/b&gt;&lt;/font&gt;&lt;div&gt;[%c4Type%:&amp;nbsp;%c4Technology%]&lt;/div&gt;&lt;br&gt;&lt;div&gt;&lt;font style=&quot;font-size: 11px&quot;&gt;&lt;font&gt;%c4Description%&lt;/font&gt;&lt;/font&gt;&lt;/div&gt;" id="L3YHqJxyqEIAcy5vTp7V-8">
          <mxCell style="shape=rectangle;size=30;perimeter=hexagonPerimeter2;whiteSpace=wrap;html=1;fixedSize=1;rounded=1;labelBackgroundColor=none;fontSize=12;align=center;metaEdit=1;resizable=1;direction=west;rotation=0;arcSize=15;points=[[0,0.5,0,0,0],[0.25,0,0,0,0],[0.25,1,0,0,0],[0.5,0,0,0,0],[0.5,1,0,0,0],[0.75,0,0,0,0],[0.75,1,0,0,0],[1,0.5,0,0,0]];fillColor=#f5f5f5;fontColor=#333333;strokeColor=#666666;" parent="1" vertex="1">
            <mxGeometry x="276.5" y="506" width="190" height="100" as="geometry" />
          </mxCell>
        </object>
        <mxCell id="L3YHqJxyqEIAcy5vTp7V-9" value="" style="endArrow=classic;html=1;rounded=0;dashed=1;dashPattern=12 12;exitX=0;exitY=0.5;exitDx=0;exitDy=0;exitPerimeter=0;" parent="1" source="L3YHqJxyqEIAcy5vTp7V-4" target="L3YHqJxyqEIAcy5vTp7V-34" edge="1">
          <mxGeometry width="50" height="50" relative="1" as="geometry">
            <mxPoint x="911" y="590" as="sourcePoint" />
            <mxPoint x="354.3717833475123" y="310.21842840909085" as="targetPoint" />
          </mxGeometry>
        </mxCell>
        <mxCell id="L3YHqJxyqEIAcy5vTp7V-10" value="Publish" style="edgeLabel;html=1;align=center;verticalAlign=middle;resizable=0;points=[];labelBackgroundColor=none;fontSize=12;" parent="L3YHqJxyqEIAcy5vTp7V-9" vertex="1" connectable="0">
          <mxGeometry x="0.0361" y="-4" relative="1" as="geometry">
            <mxPoint x="2" y="-18" as="offset" />
          </mxGeometry>
        </mxCell>
        <mxCell id="L3YHqJxyqEIAcy5vTp7V-11" value="" style="endArrow=classic;html=1;rounded=0;dashed=1;dashPattern=12 12;" parent="1" source="L3YHqJxyqEIAcy5vTp7V-5" target="L3YHqJxyqEIAcy5vTp7V-34" edge="1">
          <mxGeometry width="50" height="50" relative="1" as="geometry">
            <mxPoint x="911" y="590" as="sourcePoint" />
            <mxPoint x="441.6205635072174" y="310.21842840909085" as="targetPoint" />
          </mxGeometry>
        </mxCell>
        <mxCell id="L3YHqJxyqEIAcy5vTp7V-12" value="Publish" style="edgeLabel;html=1;align=center;verticalAlign=middle;resizable=0;points=[];labelBackgroundColor=none;fontSize=12;" parent="L3YHqJxyqEIAcy5vTp7V-11" vertex="1" connectable="0">
          <mxGeometry x="0.1856" y="-4" relative="1" as="geometry">
            <mxPoint x="32" y="-23" as="offset" />
          </mxGeometry>
        </mxCell>
        <mxCell id="L3YHqJxyqEIAcy5vTp7V-13" value="NGINX" style="aspect=fixed;sketch=0;html=1;dashed=0;whitespace=wrap;verticalLabelPosition=bottom;verticalAlign=top;fillColor=#2875E2;strokeColor=#ffffff;points=[[0.005,0.63,0,0,0],[0.04,0.42,0,0,0],[0.1,0.2,0,0,0],[0.1,0.85,0,0,0],[0.28,0.08,0,0,0],[0.28,0.99,0,0,0],[0.5,0,0,0,0],[0.5,1,0,0,0],[0.72,0.99,0,0,0],[0.9,0.2,0,0,0],[0.995,0.63,0,0,0]];shape=mxgraph.kubernetes.icon2;prIcon=ing" parent="1" vertex="1">
          <mxGeometry x="701" y="430" width="93.75" height="90" as="geometry" />
        </mxCell>
        <mxCell id="L3YHqJxyqEIAcy5vTp7V-14" value="" style="endArrow=classic;html=1;rounded=0;dashed=1;dashPattern=12 12;entryX=1;entryY=0.5;entryDx=0;entryDy=0;entryPerimeter=0;" parent="1" source="L3YHqJxyqEIAcy5vTp7V-34" target="L3YHqJxyqEIAcy5vTp7V-6" edge="1">
          <mxGeometry width="50" height="50" relative="1" as="geometry">
            <mxPoint x="952" y="415" as="sourcePoint" />
            <mxPoint x="756.3499999999999" y="415" as="targetPoint" />
          </mxGeometry>
        </mxCell>
        <mxCell id="L3YHqJxyqEIAcy5vTp7V-15" value="Subscribe" style="edgeLabel;html=1;align=center;verticalAlign=middle;resizable=0;points=[];labelBackgroundColor=none;fontSize=12;" parent="L3YHqJxyqEIAcy5vTp7V-14" vertex="1" connectable="0">
          <mxGeometry x="-0.0607" y="-2" relative="1" as="geometry">
            <mxPoint x="10" y="13" as="offset" />
          </mxGeometry>
        </mxCell>
        <mxCell id="L3YHqJxyqEIAcy5vTp7V-16" value="" style="strokeColor=#dddddd;shadow=1;strokeWidth=1;rounded=1;absoluteArcSize=1;arcSize=2;fontColor=default;" parent="1" vertex="1">
          <mxGeometry x="32" y="50" width="179" height="60" as="geometry" />
        </mxCell>
        <mxCell id="L3YHqJxyqEIAcy5vTp7V-17" value="&lt;div&gt;&lt;b&gt;&lt;br&gt;&lt;/b&gt;&lt;/div&gt;&lt;div&gt;&lt;b&gt;Domain&lt;/b&gt;&lt;/div&gt;&lt;b&gt;&lt;font style=&quot;color: rgb(0, 0, 0);&quot;&gt;uspace.aeroflux&lt;/font&gt;&lt;/b&gt;&lt;div&gt;&lt;br&gt;&lt;/div&gt;" style="editableCssRules=.*;html=1;fontColor=#999999;shape=image;verticalLabelPosition=middle;verticalAlign=middle;labelPosition=right;align=left;spacingLeft=20;part=1;points=[];imageAspect=0;image=data:image/svg+xml,PHN2ZyB4bWxucz0iaHR0cDovL3d3dy53My5vcmcvMjAwMC9zdmciIHhtbG5zOnY9Imh0dHBzOi8vdmVjdGEuaW8vbmFubyIgd2lkdGg9IjIwIiBoZWlnaHQ9IjIwIiB2aWV3Qm94PSIwIDAgMjAgMjAiPiYjeGE7CTxzdHlsZSB0eXBlPSJ0ZXh0L2NzcyI+JiN4YTsJLnN0MHtmaWxsOiM0Mjg1ZjQ7fSYjeGE7CS5zdDF7ZmlsbDojNjY5ZGY2O30mI3hhOwkuc3Qye2ZpbGw6I2FlY2JmYTt9JiN4YTsJLnN0M3tmaWxsOiNmZmY7fSYjeGE7CTwvc3R5bGU+JiN4YTsJPHBhdGggY2xhc3M9InN0MCIgZD0iTTkgNmgydjEwSDl6Ii8+JiN4YTsJPHBhdGggY2xhc3M9InN0MSIgZD0iTTIwIDE3SDB2MmgyMHoiLz4mI3hhOwk8cGF0aCBjbGFzcz0ic3QyIiBkPSJNMTIgMTZIOHY0aDR6TTAgMGgyMHY2SDB6Ii8+JiN4YTsJPHBhdGggY2xhc3M9InN0MSIgZD0iTTEwIDBoMTB2NkgxMHoiLz4mI3hhOwk8cGF0aCBjbGFzcz0ic3QzIiBkPSJNMiAyaDJ2MkgyeiIvPiYjeGE7CTxwYXRoIGNsYXNzPSJzdDIiIGQ9Ik0wIDhoMjB2NkgweiIvPiYjeGE7CTxwYXRoIGNsYXNzPSJzdDEiIGQ9Ik0xMCA4aDEwdjZIMTB6Ii8+JiN4YTsJPHBhdGggY2xhc3M9InN0MyIgZD0iTTIgMTBoMnYySDJ6Ii8+JiN4YTs8L3N2Zz4=;" parent="L3YHqJxyqEIAcy5vTp7V-16" vertex="1">
          <mxGeometry width="30" height="30" relative="1" as="geometry">
            <mxPoint x="15" y="15" as="offset" />
          </mxGeometry>
        </mxCell>
        <mxCell id="L3YHqJxyqEIAcy5vTp7V-18" value="MongoDB" style="sketch=0;points=[[0,0,0],[0.25,0,0],[0.5,0,0],[0.75,0,0],[1,0,0],[0,1,0],[0.25,1,0],[0.5,1,0],[0.75,1,0],[1,1,0],[0,0.25,0],[0,0.5,0],[0,0.75,0],[1,0.25,0],[1,0.5,0],[1,0.75,0]];outlineConnect=0;fontColor=#232F3E;fillColor=#C925D1;strokeColor=#ffffff;dashed=0;verticalLabelPosition=bottom;verticalAlign=top;align=center;html=1;fontSize=12;fontStyle=0;aspect=fixed;shape=mxgraph.aws4.resourceIcon;resIcon=mxgraph.aws4.documentdb_with_mongodb_compatibility;" parent="1" vertex="1">
          <mxGeometry x="260" y="152" width="30" height="30" as="geometry" />
        </mxCell>
        <mxCell id="L3YHqJxyqEIAcy5vTp7V-19" value="" style="image;aspect=fixed;html=1;points=[];align=center;fontSize=12;image=img/lib/azure2/databases/Azure_Database_PostgreSQL_Server.svg;" parent="1" vertex="1">
          <mxGeometry x="621" y="272" width="30" height="40" as="geometry" />
        </mxCell>
        <mxCell id="L3YHqJxyqEIAcy5vTp7V-20" style="edgeStyle=orthogonalEdgeStyle;rounded=0;orthogonalLoop=1;jettySize=auto;html=1;exitX=0.5;exitY=1;exitDx=0;exitDy=0;exitPerimeter=0;" parent="1" source="L3YHqJxyqEIAcy5vTp7V-18" target="L3YHqJxyqEIAcy5vTp7V-18" edge="1">
          <mxGeometry relative="1" as="geometry" />
        </mxCell>
        <mxCell id="L3YHqJxyqEIAcy5vTp7V-21" value="" style="endArrow=classic;html=1;rounded=0;exitX=0.005;exitY=0.63;exitDx=0;exitDy=0;exitPerimeter=0;entryX=0;entryY=0.5;entryDx=0;entryDy=0;entryPerimeter=0;" parent="1" source="L3YHqJxyqEIAcy5vTp7V-13" target="L3YHqJxyqEIAcy5vTp7V-7" edge="1">
          <mxGeometry width="50" height="50" relative="1" as="geometry">
            <mxPoint x="285" y="580" as="sourcePoint" />
            <mxPoint x="335" y="530" as="targetPoint" />
            <Array as="points" />
          </mxGeometry>
        </mxCell>
        <mxCell id="L3YHqJxyqEIAcy5vTp7V-22" value="/weather" style="edgeLabel;html=1;align=center;verticalAlign=middle;resizable=0;points=[];labelBackgroundColor=none;fontSize=13;" parent="L3YHqJxyqEIAcy5vTp7V-21" vertex="1" connectable="0">
          <mxGeometry x="0.2146" y="5" relative="1" as="geometry">
            <mxPoint x="-74" y="-1" as="offset" />
          </mxGeometry>
        </mxCell>
        <mxCell id="L3YHqJxyqEIAcy5vTp7V-23" value="" style="endArrow=classic;html=1;rounded=0;exitX=0.1;exitY=0.2;exitDx=0;exitDy=0;exitPerimeter=0;entryX=0.5;entryY=0;entryDx=0;entryDy=0;entryPerimeter=0;" parent="1" source="L3YHqJxyqEIAcy5vTp7V-13" target="L3YHqJxyqEIAcy5vTp7V-6" edge="1">
          <mxGeometry width="50" height="50" relative="1" as="geometry">
            <mxPoint x="285" y="580" as="sourcePoint" />
            <mxPoint x="335" y="530" as="targetPoint" />
            <Array as="points">
              <mxPoint x="566" y="360" />
            </Array>
          </mxGeometry>
        </mxCell>
        <mxCell id="L3YHqJxyqEIAcy5vTp7V-24" value="/geo-authorization" style="edgeLabel;html=1;align=center;verticalAlign=middle;resizable=1;points=[];fillColor=#00FFFF;labelBorderColor=none;labelBackgroundColor=none;fontSize=13;" parent="L3YHqJxyqEIAcy5vTp7V-23" vertex="1" connectable="0">
          <mxGeometry x="-0.2007" y="-3" relative="1" as="geometry">
            <mxPoint x="-121" y="-62" as="offset" />
          </mxGeometry>
        </mxCell>
        <mxCell id="L3YHqJxyqEIAcy5vTp7V-25" value="" style="endArrow=classic;html=1;rounded=0;entryX=0;entryY=0.5;entryDx=0;entryDy=0;entryPerimeter=0;exitX=0.1;exitY=0.85;exitDx=0;exitDy=0;exitPerimeter=0;" parent="1" source="L3YHqJxyqEIAcy5vTp7V-13" target="L3YHqJxyqEIAcy5vTp7V-8" edge="1">
          <mxGeometry width="50" height="50" relative="1" as="geometry">
            <mxPoint x="734.78125" y="508.6300000000001" as="sourcePoint" />
            <mxPoint x="624" y="696" as="targetPoint" />
            <Array as="points">
              <mxPoint x="651" y="556" />
            </Array>
          </mxGeometry>
        </mxCell>
        <mxCell id="L3YHqJxyqEIAcy5vTp7V-26" value="/" style="edgeLabel;html=1;align=center;verticalAlign=middle;resizable=0;points=[];labelBackgroundColor=none;fontSize=13;" parent="L3YHqJxyqEIAcy5vTp7V-25" vertex="1" connectable="0">
          <mxGeometry x="-0.0338" y="2" relative="1" as="geometry">
            <mxPoint x="-20" y="-10" as="offset" />
          </mxGeometry>
        </mxCell>
        <mxCell id="L3YHqJxyqEIAcy5vTp7V-27" value="PostgreSQL" style="text;html=1;align=center;verticalAlign=middle;whiteSpace=wrap;rounded=0;" parent="1" vertex="1">
          <mxGeometry x="606" y="305" width="60" height="30" as="geometry" />
        </mxCell>
        <mxCell id="L3YHqJxyqEIAcy5vTp7V-28" value="" style="endArrow=classic;html=1;rounded=0;exitX=0.06;exitY=0.42;exitDx=0;exitDy=0;exitPerimeter=0;entryX=0.5;entryY=0;entryDx=0;entryDy=0;entryPerimeter=0;" parent="1" source="L3YHqJxyqEIAcy5vTp7V-13" target="L3YHqJxyqEIAcy5vTp7V-4" edge="1">
          <mxGeometry width="50" height="50" relative="1" as="geometry">
            <mxPoint x="722" y="860" as="sourcePoint" />
            <mxPoint x="392" y="520" as="targetPoint" />
            <Array as="points" />
          </mxGeometry>
        </mxCell>
        <mxCell id="L3YHqJxyqEIAcy5vTp7V-29" value="/drone-identification" style="edgeLabel;html=1;align=center;verticalAlign=middle;resizable=0;points=[];labelBackgroundColor=none;fontSize=13;" parent="L3YHqJxyqEIAcy5vTp7V-28" vertex="1" connectable="0">
          <mxGeometry x="0.342" y="-3" relative="1" as="geometry">
            <mxPoint x="117" y="58" as="offset" />
          </mxGeometry>
        </mxCell>
        <mxCell id="L3YHqJxyqEIAcy5vTp7V-30" value="" style="endArrow=classic;html=1;rounded=0;entryX=0;entryY=0.5;entryDx=0;entryDy=0;entryPerimeter=0;exitX=0.28;exitY=0.08;exitDx=0;exitDy=0;exitPerimeter=0;" parent="1" source="L3YHqJxyqEIAcy5vTp7V-13" target="L3YHqJxyqEIAcy5vTp7V-5" edge="1">
          <mxGeometry width="50" height="50" relative="1" as="geometry">
            <mxPoint x="342" y="570" as="sourcePoint" />
            <mxPoint x="392" y="520" as="targetPoint" />
            <Array as="points">
              <mxPoint x="727" y="180" />
            </Array>
          </mxGeometry>
        </mxCell>
        <mxCell id="L3YHqJxyqEIAcy5vTp7V-31" value="/geo-awareness" style="edgeLabel;html=1;align=center;verticalAlign=middle;resizable=0;points=[];labelBackgroundColor=none;fontSize=13;" parent="L3YHqJxyqEIAcy5vTp7V-30" vertex="1" connectable="0">
          <mxGeometry x="0.4877" y="-2" relative="1" as="geometry">
            <mxPoint x="16" y="-18" as="offset" />
          </mxGeometry>
        </mxCell>
        <object placeholders="1" c4Name="Simulator" c4Type="Service" c4Technology="Spring Boot" c4Description="Simulation platform for drone system execution" label="&lt;font style=&quot;font-size: 16px&quot;&gt;&lt;b&gt;%c4Name%&lt;/b&gt;&lt;/font&gt;&lt;div&gt;[%c4Type%:&amp;nbsp;%c4Technology%]&lt;/div&gt;&lt;br&gt;&lt;div&gt;&lt;font style=&quot;font-size: 11px&quot;&gt;&lt;font&gt;%c4Description%&lt;/font&gt;&lt;/font&gt;&lt;/div&gt;" id="L3YHqJxyqEIAcy5vTp7V-32">
          <mxCell style="shape=rectangle;size=30;perimeter=hexagonPerimeter2;whiteSpace=wrap;html=1;fixedSize=1;rounded=1;labelBackgroundColor=none;fontSize=12;align=center;metaEdit=1;resizable=1;direction=west;rotation=0;arcSize=15;points=[[0,0.5,0,0,0],[0.25,0,0,0,0],[0.25,1,0,0,0],[0.5,0,0,0,0],[0.5,1,0,0,0],[0.75,0,0,0,0],[0.75,1,0,0,0],[1,0.5,0,0,0]];fillColor=#f5f5f5;fontColor=#333333;strokeColor=#666666;" parent="1" vertex="1">
            <mxGeometry x="276.5" y="633" width="190" height="100" as="geometry" />
          </mxCell>
        </object>
        <mxCell id="L3YHqJxyqEIAcy5vTp7V-33" value="" style="endArrow=classic;html=1;rounded=0;exitX=0.28;exitY=0.99;exitDx=0;exitDy=0;exitPerimeter=0;entryX=0;entryY=0.5;entryDx=0;entryDy=0;entryPerimeter=0;" parent="1" source="L3YHqJxyqEIAcy5vTp7V-13" target="L3YHqJxyqEIAcy5vTp7V-32" edge="1">
          <mxGeometry width="50" height="50" relative="1" as="geometry">
            <mxPoint x="747.25" y="525.0999999999999" as="sourcePoint" />
            <mxPoint x="863" y="596" as="targetPoint" />
            <Array as="points">
              <mxPoint x="611" y="683" />
            </Array>
          </mxGeometry>
        </mxCell>
        <mxCell id="L3YHqJxyqEIAcy5vTp7V-34" value="ActiveMQ" style="sketch=0;outlineConnect=0;fontColor=#232F3E;gradientColor=none;fillColor=#E7157B;strokeColor=none;dashed=0;verticalLabelPosition=bottom;verticalAlign=top;align=center;html=1;fontSize=12;fontStyle=0;aspect=fixed;pointerEvents=1;shape=mxgraph.aws4.mq_broker;" parent="1" vertex="1">
          <mxGeometry x="321" y="260" width="56.52" height="50" as="geometry" />
        </mxCell>
        <mxCell id="L3YHqJxyqEIAcy5vTp7V-35" value="MongoDB" style="sketch=0;points=[[0,0,0],[0.25,0,0],[0.5,0,0],[0.75,0,0],[1,0,0],[0,1,0],[0.25,1,0],[0.5,1,0],[0.75,1,0],[1,1,0],[0,0.25,0],[0,0.5,0],[0,0.75,0],[1,0.25,0],[1,0.5,0],[1,0.75,0]];outlineConnect=0;fontColor=#232F3E;fillColor=#C925D1;strokeColor=#ffffff;dashed=0;verticalLabelPosition=bottom;verticalAlign=top;align=center;html=1;fontSize=12;fontStyle=0;aspect=fixed;shape=mxgraph.aws4.resourceIcon;resIcon=mxgraph.aws4.documentdb_with_mongodb_compatibility;" parent="1" vertex="1">
          <mxGeometry x="71" y="295" width="30" height="30" as="geometry" />
        </mxCell>
        <mxCell id="L3YHqJxyqEIAcy5vTp7V-36" value="" style="strokeColor=#dddddd;shadow=1;strokeWidth=1;rounded=1;absoluteArcSize=1;arcSize=2;fontColor=default;" parent="1" vertex="1">
          <mxGeometry x="32" y="496" width="179" height="60" as="geometry" />
        </mxCell>
        <mxCell id="L3YHqJxyqEIAcy5vTp7V-37" value="&lt;div&gt;&lt;b&gt;&lt;br&gt;&lt;/b&gt;&lt;/div&gt;&lt;div&gt;&lt;b&gt;Domain&lt;/b&gt;&lt;/div&gt;&lt;b&gt;&lt;font style=&quot;color: rgb(0, 0, 0);&quot;&gt;aeroflux&lt;/font&gt;&lt;/b&gt;&lt;div&gt;&lt;br&gt;&lt;/div&gt;" style="editableCssRules=.*;html=1;fontColor=#999999;shape=image;verticalLabelPosition=middle;verticalAlign=middle;labelPosition=right;align=left;spacingLeft=20;part=1;points=[];imageAspect=0;image=data:image/svg+xml,PHN2ZyB4bWxucz0iaHR0cDovL3d3dy53My5vcmcvMjAwMC9zdmciIHhtbG5zOnY9Imh0dHBzOi8vdmVjdGEuaW8vbmFubyIgd2lkdGg9IjIwIiBoZWlnaHQ9IjIwIiB2aWV3Qm94PSIwIDAgMjAgMjAiIHN0eWxlPSJjb2xvci1zY2hlbWU6IGxpZ2h0IGRhcms7Ij4mI3hhOwk8c3R5bGUgdHlwZT0idGV4dC9jc3MiPi5zdDAgeyBmaWxsOiBsaWdodC1kYXJrKHJnYig2MywgMjQ0LCAxMDUpLCByZ2IoNjYsIDEzMywgMjQ0KSk7IH0gLnN0MSB7IGZpbGw6IHJnYigxMDIsIDE1NywgMjQ2KTsgfSAuc3QyIHsgZmlsbDogcmdiKDE3NCwgMjAzLCAyNTApOyB9IC5zdDMgeyBmaWxsOiByZ2IoMjU1LCAyNTUsIDI1NSk7IH0gPC9zdHlsZT4mI3hhOwk8cGF0aCBjbGFzcz0ic3QwIiBkPSJNOSA2aDJ2MTBIOXoiLz4mI3hhOwk8cGF0aCBjbGFzcz0ic3QxIiBkPSJNMjAgMTdIMHYyaDIweiIvPiYjeGE7CTxwYXRoIGNsYXNzPSJzdDIiIGQ9Ik0xMiAxNkg4djRoNHpNMCAwaDIwdjZIMHoiLz4mI3hhOwk8cGF0aCBjbGFzcz0ic3QxIiBkPSJNMTAgMGgxMHY2SDEweiIvPiYjeGE7CTxwYXRoIGNsYXNzPSJzdDMiIGQ9Ik0yIDJoMnYySDJ6Ii8+JiN4YTsJPHBhdGggY2xhc3M9InN0MiIgZD0iTTAgOGgyMHY2SDB6Ii8+JiN4YTsJPHBhdGggY2xhc3M9InN0MSIgZD0iTTEwIDhoMTB2NkgxMHoiLz4mI3hhOwk8cGF0aCBjbGFzcz0ic3QzIiBkPSJNMiAxMGgydjJIMnoiLz4mI3hhOzwvc3ZnPg==;" parent="L3YHqJxyqEIAcy5vTp7V-36" vertex="1">
          <mxGeometry width="30" height="30" relative="1" as="geometry">
            <mxPoint x="15" y="15" as="offset" />
          </mxGeometry>
        </mxCell>
        <mxCell id="L3YHqJxyqEIAcy5vTp7V-38" value="" style="strokeColor=#dddddd;shadow=1;strokeWidth=1;rounded=1;absoluteArcSize=1;arcSize=2;fontColor=default;" parent="1" vertex="1">
          <mxGeometry x="32" y="623" width="179" height="60" as="geometry" />
        </mxCell>
        <mxCell id="L3YHqJxyqEIAcy5vTp7V-39" value="&lt;div&gt;&lt;b&gt;&lt;br&gt;&lt;/b&gt;&lt;/div&gt;&lt;div&gt;&lt;b&gt;Domain&lt;/b&gt;&lt;/div&gt;&lt;b&gt;&lt;font style=&quot;color: rgb(0, 0, 0);&quot;&gt;simulator.aeroflux&lt;/font&gt;&lt;/b&gt;&lt;div&gt;&lt;br&gt;&lt;/div&gt;" style="editableCssRules=.*;html=1;fontColor=#999999;shape=image;verticalLabelPosition=middle;verticalAlign=middle;labelPosition=right;align=left;spacingLeft=20;part=1;points=[];imageAspect=0;image=data:image/svg+xml,PHN2ZyB4bWxucz0iaHR0cDovL3d3dy53My5vcmcvMjAwMC9zdmciIHhtbG5zOnY9Imh0dHBzOi8vdmVjdGEuaW8vbmFubyIgd2lkdGg9IjIwIiBoZWlnaHQ9IjIwIiB2aWV3Qm94PSIwIDAgMjAgMjAiIHN0eWxlPSJjb2xvci1zY2hlbWU6IGxpZ2h0IGRhcms7Ij4mI3hhOwk8c3R5bGUgdHlwZT0idGV4dC9jc3MiPi5zdDAgeyBmaWxsOiBsaWdodC1kYXJrKHJnYig2NiwgMTMzLCAyNDQpLCByZ2IoMTI1LCAyNTUsIDUwKSk7IH0gLnN0MSB7IGZpbGw6IHJnYigxMDIsIDE1NywgMjQ2KTsgfSAuc3QyIHsgZmlsbDogcmdiKDE3NCwgMjAzLCAyNTApOyB9IC5zdDMgeyBmaWxsOiByZ2IoMjU1LCAyNTUsIDI1NSk7IH0gPC9zdHlsZT4mI3hhOwk8cGF0aCBjbGFzcz0ic3QwIiBkPSJNOSA2aDJ2MTBIOXoiLz4mI3hhOwk8cGF0aCBjbGFzcz0ic3QxIiBkPSJNMjAgMTdIMHYyaDIweiIvPiYjeGE7CTxwYXRoIGNsYXNzPSJzdDIiIGQ9Ik0xMiAxNkg4djRoNHpNMCAwaDIwdjZIMHoiLz4mI3hhOwk8cGF0aCBjbGFzcz0ic3QxIiBkPSJNMTAgMGgxMHY2SDEweiIvPiYjeGE7CTxwYXRoIGNsYXNzPSJzdDMiIGQ9Ik0yIDJoMnYySDJ6Ii8+JiN4YTsJPHBhdGggY2xhc3M9InN0MiIgZD0iTTAgOGgyMHY2SDB6Ii8+JiN4YTsJPHBhdGggY2xhc3M9InN0MSIgZD0iTTEwIDhoMTB2NkgxMHoiLz4mI3hhOwk8cGF0aCBjbGFzcz0ic3QzIiBkPSJNMiAxMGgydjJIMnoiLz4mI3hhOzwvc3ZnPg==;" parent="L3YHqJxyqEIAcy5vTp7V-38" vertex="1">
          <mxGeometry width="30" height="30" relative="1" as="geometry">
            <mxPoint x="15" y="15" as="offset" />
          </mxGeometry>
        </mxCell>
        <mxCell id="L3YHqJxyqEIAcy5vTp7V-40" value="/" style="edgeLabel;html=1;align=center;verticalAlign=middle;resizable=0;points=[];labelBackgroundColor=none;fontSize=13;" parent="1" vertex="1" connectable="0">
          <mxGeometry x="570.9996979100865" y="693.0006703977976" as="geometry">
            <mxPoint y="-1" as="offset" />
          </mxGeometry>
        </mxCell>
      </root>
    </mxGraphModel>
  </diagram>
  <diagram id="6eXmWr09iMC4vdLhlnFK" name="droneVolume">
    <mxGraphModel dx="844" dy="788" grid="1" gridSize="10" guides="1" tooltips="1" connect="1" arrows="1" fold="1" page="1" pageScale="1" pageWidth="827" pageHeight="1169" math="0" shadow="0">
      <root>
        <mxCell id="0" />
        <mxCell id="1" parent="0" />
        <mxCell id="vNhyJ0Pkwi8eItcHogDx-10" value="Collision Avoidance" style="text;html=1;align=center;verticalAlign=middle;whiteSpace=wrap;rounded=0;fontSize=15;" parent="1" vertex="1">
          <mxGeometry x="480" y="279" width="110" height="30" as="geometry" />
        </mxCell>
        <mxCell id="vNhyJ0Pkwi8eItcHogDx-11" value="Conflict Avoidance" style="text;html=1;align=center;verticalAlign=middle;whiteSpace=wrap;rounded=0;fontSize=15;" parent="1" vertex="1">
          <mxGeometry x="480" y="215" width="110" height="30" as="geometry" />
        </mxCell>
        <mxCell id="vNhyJ0Pkwi8eItcHogDx-1" value="" style="shape=cylinder3;whiteSpace=wrap;html=1;boundedLbl=1;backgroundOutline=1;size=15;fillColor=#dae8fc;strokeWidth=2;strokeColor=#6c8ebf;" parent="1" vertex="1">
          <mxGeometry x="130" y="164" width="340" height="200" as="geometry" />
        </mxCell>
        <mxCell id="vNhyJ0Pkwi8eItcHogDx-2" value="" style="shape=cylinder3;whiteSpace=wrap;html=1;boundedLbl=1;backgroundOutline=1;size=15;fillColor=#ffe6cc;strokeWidth=2;strokeColor=#d79b00;" parent="1" vertex="1">
          <mxGeometry x="198" y="217.33333333333331" width="204" height="120" as="geometry" />
        </mxCell>
        <mxCell id="vNhyJ0Pkwi8eItcHogDx-3" value="UAV" style="shape=cube;whiteSpace=wrap;html=1;boundedLbl=1;backgroundOutline=1;darkOpacity=0.05;darkOpacity2=0.1;size=10;fontSize=15;" parent="1" vertex="1">
          <mxGeometry x="252.39999999999998" y="270.66666666666663" width="95.2" height="53.33333333333332" as="geometry" />
        </mxCell>
        <mxCell id="vNhyJ0Pkwi8eItcHogDx-4" value="Collision Volume" style="text;html=1;align=center;verticalAlign=middle;whiteSpace=wrap;rounded=0;fontSize=15;" parent="1" vertex="1">
          <mxGeometry x="225.2" y="213.33333333333331" width="149.60000000000002" height="40" as="geometry" />
        </mxCell>
        <mxCell id="vNhyJ0Pkwi8eItcHogDx-5" value="Self-separation Volume" style="text;html=1;align=center;verticalAlign=middle;whiteSpace=wrap;rounded=0;fontSize=15;" parent="1" vertex="1">
          <mxGeometry x="211.60000000000002" y="160" width="176.79999999999998" height="40" as="geometry" />
        </mxCell>
        <mxCell id="vNhyJ0Pkwi8eItcHogDx-6" value="" style="shape=waypoint;sketch=0;fillStyle=solid;size=6;pointerEvents=1;points=[];fillColor=none;resizable=0;rotatable=0;perimeter=centerPerimeter;snapToPoint=1;strokeWidth=2;" parent="1" vertex="1">
          <mxGeometry x="429.20000000000005" y="220.0033333333333" width="20" height="20" as="geometry" />
        </mxCell>
        <mxCell id="vNhyJ0Pkwi8eItcHogDx-8" value="" style="shape=waypoint;sketch=0;fillStyle=solid;size=6;pointerEvents=1;points=[];fillColor=none;resizable=0;rotatable=0;perimeter=centerPerimeter;snapToPoint=1;strokeWidth=2;" parent="1" vertex="1">
          <mxGeometry x="374.8" y="284" width="20" height="20" as="geometry" />
        </mxCell>
        <mxCell id="vNhyJ0Pkwi8eItcHogDx-7" value="" style="line;strokeWidth=3;html=1;" parent="1" vertex="1">
          <mxGeometry x="440" y="225" width="50" height="10" as="geometry" />
        </mxCell>
        <mxCell id="vNhyJ0Pkwi8eItcHogDx-9" value="" style="line;strokeWidth=3;html=1;" parent="1" vertex="1">
          <mxGeometry x="388.4" y="289" width="101.6" height="10" as="geometry" />
        </mxCell>
      </root>
    </mxGraphModel>
  </diagram>
  <diagram id="GhbxgcyDJnqPsX-2JWa4" name="Behaviour">
    <mxGraphModel dx="1554" dy="1615" grid="1" gridSize="10" guides="1" tooltips="1" connect="1" arrows="1" fold="1" page="1" pageScale="1" pageWidth="1169" pageHeight="827" math="0" shadow="0">
      <root>
        <mxCell id="0" />
        <mxCell id="1" parent="0" />
        <mxCell id="_VDxzn4cCsTw1Ooe8onO-1" value="" style="rounded=0;whiteSpace=wrap;html=1;fillColor=none;dashed=1;strokeColor=#75A15C;strokeWidth=2;" parent="1" vertex="1">
          <mxGeometry x="10" y="-400" width="1000" height="250" as="geometry" />
        </mxCell>
        <mxCell id="_VDxzn4cCsTw1Ooe8onO-2" value="" style="rounded=0;whiteSpace=wrap;html=1;fillColor=none;dashed=1;strokeColor=#A84D49;strokeWidth=2;" parent="1" vertex="1">
          <mxGeometry x="1020" y="-400" width="1000" height="620" as="geometry" />
        </mxCell>
        <mxCell id="_VDxzn4cCsTw1Ooe8onO-3" style="edgeStyle=orthogonalEdgeStyle;rounded=0;orthogonalLoop=1;jettySize=auto;html=1;exitX=1;exitY=0.5;exitDx=0;exitDy=0;entryX=0;entryY=0.5;entryDx=0;entryDy=0;entryPerimeter=0;" parent="1" source="_VDxzn4cCsTw1Ooe8onO-11" target="_VDxzn4cCsTw1Ooe8onO-16" edge="1">
          <mxGeometry relative="1" as="geometry" />
        </mxCell>
        <mxCell id="_VDxzn4cCsTw1Ooe8onO-4" value="" style="strokeWidth=2;html=1;shape=mxgraph.flowchart.start_2;whiteSpace=wrap;fillColor=#fff2cc;strokeColor=#d6b656;" parent="1" vertex="1">
          <mxGeometry x="20" y="-320" width="40" height="40" as="geometry" />
        </mxCell>
        <mxCell id="_VDxzn4cCsTw1Ooe8onO-5" style="edgeStyle=orthogonalEdgeStyle;rounded=0;orthogonalLoop=1;jettySize=auto;html=1;exitX=1;exitY=0.5;exitDx=0;exitDy=0;entryX=0;entryY=0.5;entryDx=0;entryDy=0;" parent="1" source="_VDxzn4cCsTw1Ooe8onO-115" target="_VDxzn4cCsTw1Ooe8onO-46" edge="1">
          <mxGeometry relative="1" as="geometry">
            <mxPoint x="1719" y="-260" as="targetPoint" />
            <Array as="points">
              <mxPoint x="1689" y="-300" />
              <mxPoint x="1689" y="-300" />
            </Array>
          </mxGeometry>
        </mxCell>
        <mxCell id="_VDxzn4cCsTw1Ooe8onO-6" value="Yes" style="edgeLabel;html=1;align=center;verticalAlign=middle;resizable=0;points=[];" parent="_VDxzn4cCsTw1Ooe8onO-5" vertex="1" connectable="0">
          <mxGeometry x="-0.2107" y="1" relative="1" as="geometry">
            <mxPoint x="-11" y="-9" as="offset" />
          </mxGeometry>
        </mxCell>
        <mxCell id="_VDxzn4cCsTw1Ooe8onO-7" value="Take Off" style="rounded=1;whiteSpace=wrap;html=1;absoluteArcSize=1;arcSize=14;strokeWidth=2;fillColor=#dae8fc;strokeColor=#6c8ebf;" parent="1" vertex="1">
          <mxGeometry x="1040" y="-320.02" width="80" height="40" as="geometry" />
        </mxCell>
        <mxCell id="_VDxzn4cCsTw1Ooe8onO-8" style="edgeStyle=orthogonalEdgeStyle;rounded=0;orthogonalLoop=1;jettySize=auto;html=1;exitX=1;exitY=0.5;exitDx=0;exitDy=0;" parent="1" source="_VDxzn4cCsTw1Ooe8onO-9" target="_VDxzn4cCsTw1Ooe8onO-11" edge="1">
          <mxGeometry relative="1" as="geometry" />
        </mxCell>
        <mxCell id="_VDxzn4cCsTw1Ooe8onO-9" value="Power On" style="rounded=1;whiteSpace=wrap;html=1;absoluteArcSize=1;arcSize=14;strokeWidth=2;fillColor=#dae8fc;strokeColor=#6c8ebf;" parent="1" vertex="1">
          <mxGeometry x="100" y="-320" width="80" height="40" as="geometry" />
        </mxCell>
        <mxCell id="_VDxzn4cCsTw1Ooe8onO-10" value="" style="endArrow=classic;html=1;rounded=0;exitX=1;exitY=0.5;exitDx=0;exitDy=0;exitPerimeter=0;entryX=0;entryY=0.5;entryDx=0;entryDy=0;" parent="1" source="_VDxzn4cCsTw1Ooe8onO-4" target="_VDxzn4cCsTw1Ooe8onO-9" edge="1">
          <mxGeometry width="50" height="50" relative="1" as="geometry">
            <mxPoint x="490" y="-320" as="sourcePoint" />
            <mxPoint x="540" y="-370" as="targetPoint" />
          </mxGeometry>
        </mxCell>
        <mxCell id="_VDxzn4cCsTw1Ooe8onO-11" value="Check Internal Status" style="rounded=1;whiteSpace=wrap;html=1;absoluteArcSize=1;arcSize=14;strokeWidth=2;fillColor=#fff2cc;strokeColor=#d6b656;" parent="1" vertex="1">
          <mxGeometry x="210" y="-320.02" width="90" height="40" as="geometry" />
        </mxCell>
        <mxCell id="_VDxzn4cCsTw1Ooe8onO-14" style="edgeStyle=orthogonalEdgeStyle;rounded=0;orthogonalLoop=1;jettySize=auto;html=1;exitX=1;exitY=0.5;exitDx=0;exitDy=0;exitPerimeter=0;entryX=0;entryY=0.5;entryDx=0;entryDy=0;" parent="1" source="_VDxzn4cCsTw1Ooe8onO-16" target="_VDxzn4cCsTw1Ooe8onO-25" edge="1">
          <mxGeometry relative="1" as="geometry" />
        </mxCell>
        <mxCell id="_VDxzn4cCsTw1Ooe8onO-15" value="No" style="edgeLabel;html=1;align=center;verticalAlign=middle;resizable=0;points=[];" parent="_VDxzn4cCsTw1Ooe8onO-14" vertex="1" connectable="0">
          <mxGeometry x="-0.1132" y="-2" relative="1" as="geometry">
            <mxPoint x="-2" y="8" as="offset" />
          </mxGeometry>
        </mxCell>
        <mxCell id="_VDxzn4cCsTw1Ooe8onO-16" value="&lt;span style=&quot;font-size: 11px; text-wrap-mode: nowrap; background-color: rgb(255, 255, 255);&quot;&gt;Is Battery&lt;/span&gt;&lt;div&gt;&lt;span style=&quot;font-size: 11px; text-wrap-mode: nowrap; background-color: rgb(255, 255, 255);&quot;&gt;Critical&lt;/span&gt;&lt;/div&gt;" style="strokeWidth=2;html=1;shape=mxgraph.flowchart.decision;whiteSpace=wrap;" parent="1" vertex="1">
          <mxGeometry x="330" y="-330" width="60" height="60" as="geometry" />
        </mxCell>
        <mxCell id="_VDxzn4cCsTw1Ooe8onO-17" value="Calculate Flight Plan" style="rounded=1;whiteSpace=wrap;html=1;absoluteArcSize=1;arcSize=14;strokeWidth=2;fillColor=#fff2cc;strokeColor=#d6b656;" parent="1" vertex="1">
          <mxGeometry x="550" y="-320" width="80" height="40" as="geometry" />
        </mxCell>
        <mxCell id="_VDxzn4cCsTw1Ooe8onO-18" style="edgeStyle=orthogonalEdgeStyle;rounded=0;orthogonalLoop=1;jettySize=auto;html=1;exitX=1;exitY=0.5;exitDx=0;exitDy=0;exitPerimeter=0;entryX=0;entryY=0.5;entryDx=0;entryDy=0;" parent="1" source="_VDxzn4cCsTw1Ooe8onO-20" target="_VDxzn4cCsTw1Ooe8onO-7" edge="1">
          <mxGeometry relative="1" as="geometry" />
        </mxCell>
        <mxCell id="_VDxzn4cCsTw1Ooe8onO-19" value="Yes" style="edgeLabel;html=1;align=center;verticalAlign=middle;resizable=0;points=[];" parent="_VDxzn4cCsTw1Ooe8onO-18" vertex="1" connectable="0">
          <mxGeometry x="0.0342" relative="1" as="geometry">
            <mxPoint x="-11" y="10" as="offset" />
          </mxGeometry>
        </mxCell>
        <mxCell id="_VDxzn4cCsTw1Ooe8onO-20" value="&lt;span style=&quot;background-color: rgb(255, 255, 255);&quot;&gt;Clear to Take Off?&lt;/span&gt;" style="strokeWidth=2;html=1;shape=mxgraph.flowchart.decision;whiteSpace=wrap;" parent="1" vertex="1">
          <mxGeometry x="910" y="-330.02" width="60" height="60" as="geometry" />
        </mxCell>
        <mxCell id="_VDxzn4cCsTw1Ooe8onO-21" style="edgeStyle=orthogonalEdgeStyle;rounded=0;orthogonalLoop=1;jettySize=auto;html=1;exitX=0.5;exitY=1;exitDx=0;exitDy=0;exitPerimeter=0;entryX=1;entryY=0.5;entryDx=0;entryDy=0;" parent="1" source="_VDxzn4cCsTw1Ooe8onO-20" target="_VDxzn4cCsTw1Ooe8onO-64" edge="1">
          <mxGeometry relative="1" as="geometry">
            <mxPoint x="890" y="-300.02" as="targetPoint" />
            <Array as="points">
              <mxPoint x="940" y="-220" />
            </Array>
          </mxGeometry>
        </mxCell>
        <mxCell id="_VDxzn4cCsTw1Ooe8onO-22" value="No" style="edgeLabel;html=1;align=center;verticalAlign=middle;resizable=0;points=[];" parent="_VDxzn4cCsTw1Ooe8onO-21" vertex="1" connectable="0">
          <mxGeometry x="-0.7796" y="2" relative="1" as="geometry">
            <mxPoint x="8" y="6" as="offset" />
          </mxGeometry>
        </mxCell>
        <mxCell id="_VDxzn4cCsTw1Ooe8onO-23" value="Check Environment Status" style="rounded=1;whiteSpace=wrap;html=1;absoluteArcSize=1;arcSize=14;strokeWidth=2;fillColor=#fff2cc;strokeColor=#d6b656;" parent="1" vertex="1">
          <mxGeometry x="780" y="-320.02" width="90" height="40" as="geometry" />
        </mxCell>
        <mxCell id="_VDxzn4cCsTw1Ooe8onO-24" style="edgeStyle=orthogonalEdgeStyle;rounded=0;orthogonalLoop=1;jettySize=auto;html=1;exitX=1;exitY=0.5;exitDx=0;exitDy=0;entryX=0;entryY=0.5;entryDx=0;entryDy=0;" parent="1" source="_VDxzn4cCsTw1Ooe8onO-25" target="_VDxzn4cCsTw1Ooe8onO-17" edge="1">
          <mxGeometry relative="1" as="geometry" />
        </mxCell>
        <mxCell id="_VDxzn4cCsTw1Ooe8onO-25" value="Retrive Environment Information" style="rounded=1;whiteSpace=wrap;html=1;absoluteArcSize=1;arcSize=14;strokeWidth=2;fillColor=#fff2cc;strokeColor=#d6b656;" parent="1" vertex="1">
          <mxGeometry x="440" y="-320.02" width="80" height="40" as="geometry" />
        </mxCell>
        <mxCell id="_VDxzn4cCsTw1Ooe8onO-26" style="edgeStyle=orthogonalEdgeStyle;rounded=0;orthogonalLoop=1;jettySize=auto;html=1;exitX=1;exitY=0.5;exitDx=0;exitDy=0;entryX=0;entryY=0.5;entryDx=0;entryDy=0;entryPerimeter=0;" parent="1" source="_VDxzn4cCsTw1Ooe8onO-23" target="_VDxzn4cCsTw1Ooe8onO-20" edge="1">
          <mxGeometry relative="1" as="geometry" />
        </mxCell>
        <mxCell id="_VDxzn4cCsTw1Ooe8onO-27" style="edgeStyle=orthogonalEdgeStyle;rounded=0;orthogonalLoop=1;jettySize=auto;html=1;exitX=0.5;exitY=1;exitDx=0;exitDy=0;exitPerimeter=0;entryX=1;entryY=0.5;entryDx=0;entryDy=0;" parent="1" source="_VDxzn4cCsTw1Ooe8onO-31" target="_VDxzn4cCsTw1Ooe8onO-62" edge="1">
          <mxGeometry relative="1" as="geometry" />
        </mxCell>
        <mxCell id="_VDxzn4cCsTw1Ooe8onO-28" value="No" style="edgeLabel;html=1;align=center;verticalAlign=middle;resizable=0;points=[];" parent="_VDxzn4cCsTw1Ooe8onO-27" vertex="1" connectable="0">
          <mxGeometry x="-0.3028" y="1" relative="1" as="geometry">
            <mxPoint x="9" y="-19" as="offset" />
          </mxGeometry>
        </mxCell>
        <mxCell id="_VDxzn4cCsTw1Ooe8onO-29" style="edgeStyle=orthogonalEdgeStyle;rounded=0;orthogonalLoop=1;jettySize=auto;html=1;exitX=1;exitY=0.5;exitDx=0;exitDy=0;exitPerimeter=0;" parent="1" source="_VDxzn4cCsTw1Ooe8onO-31" target="_VDxzn4cCsTw1Ooe8onO-23" edge="1">
          <mxGeometry relative="1" as="geometry" />
        </mxCell>
        <mxCell id="_VDxzn4cCsTw1Ooe8onO-30" value="Yes" style="edgeLabel;html=1;align=center;verticalAlign=middle;resizable=0;points=[];" parent="_VDxzn4cCsTw1Ooe8onO-29" vertex="1" connectable="0">
          <mxGeometry x="-0.3598" y="-3" relative="1" as="geometry">
            <mxPoint x="1" y="7" as="offset" />
          </mxGeometry>
        </mxCell>
        <mxCell id="_VDxzn4cCsTw1Ooe8onO-31" value="&lt;span style=&quot;background-color: rgb(255, 255, 255);&quot;&gt;Flight Plan Available?&lt;/span&gt;" style="strokeWidth=2;html=1;shape=mxgraph.flowchart.decision;whiteSpace=wrap;" parent="1" vertex="1">
          <mxGeometry x="660" y="-330.02" width="60" height="60" as="geometry" />
        </mxCell>
        <mxCell id="_VDxzn4cCsTw1Ooe8onO-32" style="edgeStyle=orthogonalEdgeStyle;rounded=0;orthogonalLoop=1;jettySize=auto;html=1;exitX=1;exitY=0.5;exitDx=0;exitDy=0;entryX=0;entryY=0.5;entryDx=0;entryDy=0;entryPerimeter=0;" parent="1" source="_VDxzn4cCsTw1Ooe8onO-17" target="_VDxzn4cCsTw1Ooe8onO-31" edge="1">
          <mxGeometry relative="1" as="geometry" />
        </mxCell>
        <mxCell id="_VDxzn4cCsTw1Ooe8onO-33" value="Check Internal Status" style="rounded=1;whiteSpace=wrap;html=1;absoluteArcSize=1;arcSize=14;strokeWidth=2;fillColor=#fff2cc;strokeColor=#d6b656;" parent="1" vertex="1">
          <mxGeometry x="1150" y="-320.03999999999996" width="80" height="40" as="geometry" />
        </mxCell>
        <mxCell id="_VDxzn4cCsTw1Ooe8onO-34" style="edgeStyle=orthogonalEdgeStyle;rounded=0;orthogonalLoop=1;jettySize=auto;html=1;exitX=1;exitY=0.5;exitDx=0;exitDy=0;exitPerimeter=0;entryX=0;entryY=0.5;entryDx=0;entryDy=0;" parent="1" source="_VDxzn4cCsTw1Ooe8onO-36" target="_VDxzn4cCsTw1Ooe8onO-38" edge="1">
          <mxGeometry relative="1" as="geometry" />
        </mxCell>
        <mxCell id="_VDxzn4cCsTw1Ooe8onO-35" value="Yes" style="edgeLabel;html=1;align=center;verticalAlign=middle;resizable=0;points=[];" parent="_VDxzn4cCsTw1Ooe8onO-34" vertex="1" connectable="0">
          <mxGeometry x="-0.12" y="-2" relative="1" as="geometry">
            <mxPoint y="8" as="offset" />
          </mxGeometry>
        </mxCell>
        <mxCell id="_VDxzn4cCsTw1Ooe8onO-36" value="&lt;span style=&quot;font-size: 11px; text-wrap-mode: nowrap; background-color: rgb(255, 255, 255);&quot;&gt;Is Internal&amp;nbsp;&lt;/span&gt;&lt;div&gt;&lt;span style=&quot;font-size: 11px; text-wrap-mode: nowrap; background-color: rgb(255, 255, 255);&quot;&gt;Status&lt;/span&gt;&lt;div&gt;&lt;span style=&quot;font-size: 11px; text-wrap-mode: nowrap; background-color: rgb(255, 255, 255);&quot;&gt;Ok?&lt;/span&gt;&lt;/div&gt;&lt;/div&gt;" style="strokeWidth=2;html=1;shape=mxgraph.flowchart.decision;whiteSpace=wrap;" parent="1" vertex="1">
          <mxGeometry x="1271" y="-330.04" width="60" height="60" as="geometry" />
        </mxCell>
        <mxCell id="_VDxzn4cCsTw1Ooe8onO-37" style="edgeStyle=orthogonalEdgeStyle;rounded=0;orthogonalLoop=1;jettySize=auto;html=1;exitX=1;exitY=0.5;exitDx=0;exitDy=0;entryX=0;entryY=0.5;entryDx=0;entryDy=0;entryPerimeter=0;" parent="1" source="_VDxzn4cCsTw1Ooe8onO-33" target="_VDxzn4cCsTw1Ooe8onO-36" edge="1">
          <mxGeometry relative="1" as="geometry">
            <mxPoint x="1820.9999999999995" y="-300.02" as="sourcePoint" />
          </mxGeometry>
        </mxCell>
        <mxCell id="_VDxzn4cCsTw1Ooe8onO-38" value="Check Environment Status" style="rounded=1;whiteSpace=wrap;html=1;absoluteArcSize=1;arcSize=14;strokeWidth=2;fillColor=#fff2cc;strokeColor=#d6b656;" parent="1" vertex="1">
          <mxGeometry x="1381" y="-320.04" width="80" height="40" as="geometry" />
        </mxCell>
        <mxCell id="_VDxzn4cCsTw1Ooe8onO-39" style="edgeStyle=orthogonalEdgeStyle;rounded=0;orthogonalLoop=1;jettySize=auto;html=1;exitX=0.5;exitY=1;exitDx=0;exitDy=0;exitPerimeter=0;entryX=0.5;entryY=0;entryDx=0;entryDy=0;entryPerimeter=0;" parent="1" source="_VDxzn4cCsTw1Ooe8onO-41" target="_VDxzn4cCsTw1Ooe8onO-72" edge="1">
          <mxGeometry relative="1" as="geometry">
            <mxPoint x="1531" y="-160.03999999999996" as="targetPoint" />
          </mxGeometry>
        </mxCell>
        <mxCell id="_VDxzn4cCsTw1Ooe8onO-40" value="No" style="edgeLabel;html=1;align=center;verticalAlign=middle;resizable=0;points=[];" parent="_VDxzn4cCsTw1Ooe8onO-39" vertex="1" connectable="0">
          <mxGeometry x="-0.157" y="-3" relative="1" as="geometry">
            <mxPoint x="13" y="3" as="offset" />
          </mxGeometry>
        </mxCell>
        <mxCell id="_VDxzn4cCsTw1Ooe8onO-41" value="&lt;span style=&quot;font-size: 11px; text-wrap-mode: nowrap; background-color: rgb(255, 255, 255);&quot;&gt;Clear to&amp;nbsp;&lt;/span&gt;&lt;div&gt;&lt;span style=&quot;font-size: 11px; text-wrap-mode: nowrap; background-color: rgb(255, 255, 255);&quot;&gt;Fly?&lt;/span&gt;&lt;/div&gt;" style="strokeWidth=2;html=1;shape=mxgraph.flowchart.decision;whiteSpace=wrap;" parent="1" vertex="1">
          <mxGeometry x="1501" y="-330.04" width="60" height="60" as="geometry" />
        </mxCell>
        <mxCell id="_VDxzn4cCsTw1Ooe8onO-42" style="edgeStyle=orthogonalEdgeStyle;rounded=0;orthogonalLoop=1;jettySize=auto;html=1;exitX=1;exitY=0.5;exitDx=0;exitDy=0;entryX=0;entryY=0.5;entryDx=0;entryDy=0;entryPerimeter=0;" parent="1" source="_VDxzn4cCsTw1Ooe8onO-38" target="_VDxzn4cCsTw1Ooe8onO-41" edge="1">
          <mxGeometry relative="1" as="geometry" />
        </mxCell>
        <mxCell id="_VDxzn4cCsTw1Ooe8onO-43" style="edgeStyle=orthogonalEdgeStyle;rounded=0;orthogonalLoop=1;jettySize=auto;html=1;exitX=1;exitY=0.5;exitDx=0;exitDy=0;entryX=1;entryY=0.5;entryDx=0;entryDy=0;" parent="1" source="_VDxzn4cCsTw1Ooe8onO-45" target="_VDxzn4cCsTw1Ooe8onO-45" edge="1">
          <mxGeometry relative="1" as="geometry" />
        </mxCell>
        <mxCell id="_VDxzn4cCsTw1Ooe8onO-44" value="" style="edgeStyle=orthogonalEdgeStyle;rounded=0;orthogonalLoop=1;jettySize=auto;html=1;entryX=0;entryY=0.5;entryDx=0;entryDy=0;entryPerimeter=0;" parent="1" source="_VDxzn4cCsTw1Ooe8onO-45" target="_VDxzn4cCsTw1Ooe8onO-49" edge="1">
          <mxGeometry relative="1" as="geometry" />
        </mxCell>
        <mxCell id="_VDxzn4cCsTw1Ooe8onO-45" value="Comunicate via Radio" style="rounded=1;whiteSpace=wrap;html=1;absoluteArcSize=1;arcSize=14;strokeWidth=2;fillColor=#dae8fc;strokeColor=#6c8ebf;" parent="1" vertex="1">
          <mxGeometry x="1830" y="-320" width="80" height="40" as="geometry" />
        </mxCell>
        <mxCell id="_VDxzn4cCsTw1Ooe8onO-46" value="Move" style="rounded=1;whiteSpace=wrap;html=1;absoluteArcSize=1;arcSize=14;strokeWidth=2;fillColor=#dae8fc;strokeColor=#6c8ebf;" parent="1" vertex="1">
          <mxGeometry x="1699" y="-320.02" width="80" height="40" as="geometry" />
        </mxCell>
        <mxCell id="_VDxzn4cCsTw1Ooe8onO-47" style="edgeStyle=orthogonalEdgeStyle;rounded=0;orthogonalLoop=1;jettySize=auto;html=1;exitX=1;exitY=0.5;exitDx=0;exitDy=0;exitPerimeter=0;entryX=0;entryY=0.5;entryDx=0;entryDy=0;" parent="1" source="_VDxzn4cCsTw1Ooe8onO-105" target="_VDxzn4cCsTw1Ooe8onO-52" edge="1">
          <mxGeometry relative="1" as="geometry" />
        </mxCell>
        <mxCell id="_VDxzn4cCsTw1Ooe8onO-48" value="Yes" style="edgeLabel;html=1;align=center;verticalAlign=middle;resizable=0;points=[];" parent="_VDxzn4cCsTw1Ooe8onO-47" vertex="1" connectable="0">
          <mxGeometry x="-0.0819" y="1" relative="1" as="geometry">
            <mxPoint y="11" as="offset" />
          </mxGeometry>
        </mxCell>
        <mxCell id="_VDxzn4cCsTw1Ooe8onO-49" value="&lt;span style=&quot;font-size: 11px; text-wrap-mode: nowrap; background-color: rgb(255, 255, 255);&quot;&gt;Is Landed?&lt;/span&gt;" style="strokeWidth=2;html=1;shape=mxgraph.flowchart.decision;whiteSpace=wrap;" parent="1" vertex="1">
          <mxGeometry x="1950" y="-330" width="60" height="60" as="geometry" />
        </mxCell>
        <mxCell id="_VDxzn4cCsTw1Ooe8onO-50" style="edgeStyle=orthogonalEdgeStyle;rounded=0;orthogonalLoop=1;jettySize=auto;html=1;exitX=1;exitY=0.5;exitDx=0;exitDy=0;entryX=0;entryY=0.5;entryDx=0;entryDy=0;" parent="1" source="_VDxzn4cCsTw1Ooe8onO-46" target="_VDxzn4cCsTw1Ooe8onO-45" edge="1">
          <mxGeometry relative="1" as="geometry" />
        </mxCell>
        <mxCell id="_VDxzn4cCsTw1Ooe8onO-51" style="edgeStyle=orthogonalEdgeStyle;rounded=0;orthogonalLoop=1;jettySize=auto;html=1;exitX=1;exitY=0.5;exitDx=0;exitDy=0;" parent="1" source="_VDxzn4cCsTw1Ooe8onO-52" target="_VDxzn4cCsTw1Ooe8onO-53" edge="1">
          <mxGeometry relative="1" as="geometry">
            <mxPoint x="2280" y="-300.02" as="targetPoint" />
          </mxGeometry>
        </mxCell>
        <mxCell id="_VDxzn4cCsTw1Ooe8onO-52" value="Shut Down" style="rounded=1;whiteSpace=wrap;html=1;absoluteArcSize=1;arcSize=14;strokeWidth=2;fillColor=#dae8fc;strokeColor=#6c8ebf;" parent="1" vertex="1">
          <mxGeometry x="2170" y="-320.02" width="80" height="40" as="geometry" />
        </mxCell>
        <mxCell id="_VDxzn4cCsTw1Ooe8onO-53" value="" style="verticalLabelPosition=bottom;verticalAlign=top;html=1;shape=mxgraph.flowchart.or;fillColor=#fff2cc;strokeColor=#d6b656;" parent="1" vertex="1">
          <mxGeometry x="2280" y="-320.02" width="40" height="40" as="geometry" />
        </mxCell>
        <mxCell id="_VDxzn4cCsTw1Ooe8onO-54" style="edgeStyle=orthogonalEdgeStyle;rounded=0;orthogonalLoop=1;jettySize=auto;html=1;exitX=0.5;exitY=1;exitDx=0;exitDy=0;exitPerimeter=0;flowAnimation=0;jumpStyle=arc;entryX=0.5;entryY=1;entryDx=0;entryDy=0;" parent="1" source="_VDxzn4cCsTw1Ooe8onO-16" target="_VDxzn4cCsTw1Ooe8onO-52" edge="1">
          <mxGeometry relative="1" as="geometry">
            <Array as="points">
              <mxPoint x="360" y="230" />
              <mxPoint x="2210" y="230" />
            </Array>
          </mxGeometry>
        </mxCell>
        <mxCell id="_VDxzn4cCsTw1Ooe8onO-55" value="Yes" style="edgeLabel;html=1;align=center;verticalAlign=middle;resizable=0;points=[];" parent="_VDxzn4cCsTw1Ooe8onO-54" vertex="1" connectable="0">
          <mxGeometry x="-0.9613" relative="1" as="geometry">
            <mxPoint x="20" y="-43" as="offset" />
          </mxGeometry>
        </mxCell>
        <mxCell id="_VDxzn4cCsTw1Ooe8onO-61" style="edgeStyle=orthogonalEdgeStyle;rounded=0;orthogonalLoop=1;jettySize=auto;html=1;exitX=0;exitY=0.5;exitDx=0;exitDy=0;entryX=0.5;entryY=1;entryDx=0;entryDy=0;" parent="1" source="_VDxzn4cCsTw1Ooe8onO-62" target="_VDxzn4cCsTw1Ooe8onO-25" edge="1">
          <mxGeometry relative="1" as="geometry" />
        </mxCell>
        <mxCell id="_VDxzn4cCsTw1Ooe8onO-62" value="Wait" style="rounded=1;whiteSpace=wrap;html=1;absoluteArcSize=1;arcSize=14;strokeWidth=2;fillColor=#fff2cc;strokeColor=#d6b656;" parent="1" vertex="1">
          <mxGeometry x="550" y="-240" width="80" height="40" as="geometry" />
        </mxCell>
        <mxCell id="_VDxzn4cCsTw1Ooe8onO-63" style="edgeStyle=orthogonalEdgeStyle;rounded=0;orthogonalLoop=1;jettySize=auto;html=1;exitX=0.5;exitY=0;exitDx=0;exitDy=0;entryX=0.5;entryY=1;entryDx=0;entryDy=0;" parent="1" source="_VDxzn4cCsTw1Ooe8onO-64" target="_VDxzn4cCsTw1Ooe8onO-23" edge="1">
          <mxGeometry relative="1" as="geometry" />
        </mxCell>
        <mxCell id="_VDxzn4cCsTw1Ooe8onO-64" value="Wait" style="rounded=1;whiteSpace=wrap;html=1;absoluteArcSize=1;arcSize=14;strokeWidth=2;fillColor=#fff2cc;strokeColor=#d6b656;" parent="1" vertex="1">
          <mxGeometry x="785" y="-240" width="80" height="40" as="geometry" />
        </mxCell>
        <mxCell id="_VDxzn4cCsTw1Ooe8onO-65" value="&lt;span style=&quot;font-size: 11px; text-wrap-mode: nowrap; background-color: rgb(255, 255, 255);&quot;&gt;Is Battery&lt;/span&gt;&lt;div&gt;&lt;span style=&quot;font-size: 11px; text-wrap-mode: nowrap; background-color: rgb(255, 255, 255);&quot;&gt;Critical?&lt;/span&gt;&lt;/div&gt;" style="strokeWidth=2;html=1;shape=mxgraph.flowchart.decision;whiteSpace=wrap;" parent="1" vertex="1">
          <mxGeometry x="1271" y="-230.05999999999995" width="60" height="60" as="geometry" />
        </mxCell>
        <mxCell id="_VDxzn4cCsTw1Ooe8onO-66" style="edgeStyle=orthogonalEdgeStyle;rounded=0;orthogonalLoop=1;jettySize=auto;html=1;exitX=0.5;exitY=1;exitDx=0;exitDy=0;exitPerimeter=0;entryX=0.5;entryY=0;entryDx=0;entryDy=0;entryPerimeter=0;" parent="1" source="_VDxzn4cCsTw1Ooe8onO-36" target="_VDxzn4cCsTw1Ooe8onO-65" edge="1">
          <mxGeometry relative="1" as="geometry" />
        </mxCell>
        <mxCell id="_VDxzn4cCsTw1Ooe8onO-67" value="No" style="edgeLabel;html=1;align=center;verticalAlign=middle;resizable=0;points=[];" parent="_VDxzn4cCsTw1Ooe8onO-66" vertex="1" connectable="0">
          <mxGeometry x="0.0362" y="-2" relative="1" as="geometry">
            <mxPoint x="12" as="offset" />
          </mxGeometry>
        </mxCell>
        <mxCell id="_VDxzn4cCsTw1Ooe8onO-68" style="edgeStyle=orthogonalEdgeStyle;rounded=0;orthogonalLoop=1;jettySize=auto;html=1;exitX=0.5;exitY=1;exitDx=0;exitDy=0;entryX=0.25;entryY=1;entryDx=0;entryDy=0;" parent="1" source="_VDxzn4cCsTw1Ooe8onO-69" target="_VDxzn4cCsTw1Ooe8onO-52" edge="1">
          <mxGeometry relative="1" as="geometry">
            <Array as="points">
              <mxPoint x="1301" y="210" />
              <mxPoint x="2190" y="210" />
            </Array>
          </mxGeometry>
        </mxCell>
        <mxCell id="_VDxzn4cCsTw1Ooe8onO-69" value="Emergency Landing" style="rounded=1;whiteSpace=wrap;html=1;absoluteArcSize=1;arcSize=14;strokeWidth=2;fillColor=#dae8fc;strokeColor=#6c8ebf;" parent="1" vertex="1">
          <mxGeometry x="1261" y="-59.99999999999994" width="80" height="40" as="geometry" />
        </mxCell>
        <mxCell id="_VDxzn4cCsTw1Ooe8onO-70" style="edgeStyle=orthogonalEdgeStyle;rounded=0;orthogonalLoop=1;jettySize=auto;html=1;exitX=1;exitY=0.5;exitDx=0;exitDy=0;exitPerimeter=0;entryX=0;entryY=0.75;entryDx=0;entryDy=0;" parent="1" source="_VDxzn4cCsTw1Ooe8onO-72" target="_VDxzn4cCsTw1Ooe8onO-74" edge="1">
          <mxGeometry relative="1" as="geometry">
            <mxPoint x="1761" y="-200.03999999999996" as="targetPoint" />
          </mxGeometry>
        </mxCell>
        <mxCell id="_VDxzn4cCsTw1Ooe8onO-71" value="Yes" style="edgeLabel;html=1;align=center;verticalAlign=middle;resizable=0;points=[];" parent="_VDxzn4cCsTw1Ooe8onO-70" vertex="1" connectable="0">
          <mxGeometry x="-0.3905" y="4" relative="1" as="geometry">
            <mxPoint x="11" y="14" as="offset" />
          </mxGeometry>
        </mxCell>
        <mxCell id="_VDxzn4cCsTw1Ooe8onO-72" value="&lt;span style=&quot;font-size: 11px; text-wrap-mode: nowrap; background-color: rgb(255, 255, 255);&quot;&gt;Drone Poximity&lt;/span&gt;&lt;div&gt;&lt;span style=&quot;font-size: 11px; text-wrap-mode: nowrap; background-color: rgb(255, 255, 255);&quot;&gt;Warning?&lt;/span&gt;&lt;/div&gt;" style="strokeWidth=2;html=1;shape=mxgraph.flowchart.decision;whiteSpace=wrap;" parent="1" vertex="1">
          <mxGeometry x="1501" y="-230.05999999999995" width="60" height="60" as="geometry" />
        </mxCell>
        <mxCell id="_VDxzn4cCsTw1Ooe8onO-73" style="edgeStyle=orthogonalEdgeStyle;rounded=0;orthogonalLoop=1;jettySize=auto;html=1;exitX=0.5;exitY=0;exitDx=0;exitDy=0;entryX=0.5;entryY=1;entryDx=0;entryDy=0;" parent="1" source="_VDxzn4cCsTw1Ooe8onO-74" target="_VDxzn4cCsTw1Ooe8onO-45" edge="1">
          <mxGeometry relative="1" as="geometry">
            <Array as="points">
              <mxPoint x="1870" y="-189.98000000000002" />
              <mxPoint x="1870" y="-189.98000000000002" />
            </Array>
          </mxGeometry>
        </mxCell>
        <mxCell id="_VDxzn4cCsTw1Ooe8onO-74" value="Hover" style="rounded=1;whiteSpace=wrap;html=1;absoluteArcSize=1;arcSize=14;strokeWidth=2;fillColor=#dae8fc;strokeColor=#6c8ebf;" parent="1" vertex="1">
          <mxGeometry x="1830" y="-230" width="80" height="40" as="geometry" />
        </mxCell>
        <mxCell id="_VDxzn4cCsTw1Ooe8onO-75" style="edgeStyle=orthogonalEdgeStyle;rounded=0;orthogonalLoop=1;jettySize=auto;html=1;exitX=0;exitY=0.5;exitDx=0;exitDy=0;exitPerimeter=0;entryX=1;entryY=0.25;entryDx=0;entryDy=0;" parent="1" source="_VDxzn4cCsTw1Ooe8onO-84" target="_VDxzn4cCsTw1Ooe8onO-162" edge="1">
          <mxGeometry relative="1" as="geometry">
            <mxPoint x="1441" y="119.94000000000005" as="targetPoint" />
            <Array as="points">
              <mxPoint x="1431" y="70" />
              <mxPoint x="1431" y="-120" />
              <mxPoint x="1341" y="-120" />
            </Array>
          </mxGeometry>
        </mxCell>
        <mxCell id="_VDxzn4cCsTw1Ooe8onO-76" value="Yes" style="edgeLabel;html=1;align=center;verticalAlign=middle;resizable=0;points=[];" parent="_VDxzn4cCsTw1Ooe8onO-75" vertex="1" connectable="0">
          <mxGeometry x="0.151" y="-1" relative="1" as="geometry">
            <mxPoint x="39" y="141" as="offset" />
          </mxGeometry>
        </mxCell>
        <mxCell id="_VDxzn4cCsTw1Ooe8onO-77" value="&lt;span style=&quot;font-size: 11px; text-wrap-mode: nowrap; background-color: rgb(255, 255, 255);&quot;&gt;Rain&amp;nbsp;&lt;/span&gt;&lt;span style=&quot;background-color: rgb(255, 255, 255); font-size: 11px; text-wrap-mode: nowrap;&quot;&gt;Proximity&amp;nbsp;&lt;/span&gt;&lt;div&gt;&lt;span style=&quot;font-size: 11px; text-wrap-mode: nowrap; background-color: rgb(255, 255, 255);&quot;&gt;Warning?&lt;/span&gt;&lt;/div&gt;" style="strokeWidth=2;html=1;shape=mxgraph.flowchart.decision;whiteSpace=wrap;" parent="1" vertex="1">
          <mxGeometry x="1501" y="-50.04000000000008" width="60" height="60" as="geometry" />
        </mxCell>
        <mxCell id="_VDxzn4cCsTw1Ooe8onO-78" style="edgeStyle=orthogonalEdgeStyle;rounded=0;orthogonalLoop=1;jettySize=auto;html=1;exitX=0.5;exitY=1;exitDx=0;exitDy=0;exitPerimeter=0;entryX=0.5;entryY=0;entryDx=0;entryDy=0;entryPerimeter=0;" parent="1" source="_VDxzn4cCsTw1Ooe8onO-96" target="_VDxzn4cCsTw1Ooe8onO-77" edge="1">
          <mxGeometry relative="1" as="geometry" />
        </mxCell>
        <mxCell id="_VDxzn4cCsTw1Ooe8onO-79" value="No" style="edgeLabel;html=1;align=center;verticalAlign=middle;resizable=0;points=[];" parent="_VDxzn4cCsTw1Ooe8onO-78" vertex="1" connectable="0">
          <mxGeometry x="-0.5725" y="-1" relative="1" as="geometry">
            <mxPoint x="11" y="4" as="offset" />
          </mxGeometry>
        </mxCell>
        <mxCell id="_VDxzn4cCsTw1Ooe8onO-80" value="" style="edgeStyle=orthogonalEdgeStyle;rounded=0;orthogonalLoop=1;jettySize=auto;html=1;exitX=0.5;exitY=1;exitDx=0;exitDy=0;exitPerimeter=0;entryX=0.5;entryY=0;entryDx=0;entryDy=0;entryPerimeter=0;" parent="1" source="_VDxzn4cCsTw1Ooe8onO-77" target="_VDxzn4cCsTw1Ooe8onO-84" edge="1">
          <mxGeometry relative="1" as="geometry">
            <mxPoint x="1501" y="-20.06000000000006" as="sourcePoint" />
            <mxPoint x="1621" y="29.93999999999994" as="targetPoint" />
            <Array as="points" />
          </mxGeometry>
        </mxCell>
        <mxCell id="_VDxzn4cCsTw1Ooe8onO-81" value="Yes" style="edgeLabel;html=1;align=center;verticalAlign=middle;resizable=0;points=[];" parent="_VDxzn4cCsTw1Ooe8onO-80" vertex="1" connectable="0">
          <mxGeometry x="-0.1086" y="-4" relative="1" as="geometry">
            <mxPoint x="14" y="-3" as="offset" />
          </mxGeometry>
        </mxCell>
        <mxCell id="_VDxzn4cCsTw1Ooe8onO-82" style="edgeStyle=orthogonalEdgeStyle;rounded=0;orthogonalLoop=1;jettySize=auto;html=1;exitX=1;exitY=0.5;exitDx=0;exitDy=0;exitPerimeter=0;entryX=0;entryY=0.5;entryDx=0;entryDy=0;" parent="1" source="_VDxzn4cCsTw1Ooe8onO-89" target="_VDxzn4cCsTw1Ooe8onO-106" edge="1">
          <mxGeometry relative="1" as="geometry">
            <mxPoint x="1610.9999999999995" y="156.94000000000005" as="targetPoint" />
          </mxGeometry>
        </mxCell>
        <mxCell id="_VDxzn4cCsTw1Ooe8onO-83" value="No" style="edgeLabel;html=1;align=center;verticalAlign=middle;resizable=0;points=[];" parent="_VDxzn4cCsTw1Ooe8onO-82" vertex="1" connectable="0">
          <mxGeometry x="0.0129" y="-4" relative="1" as="geometry">
            <mxPoint x="-10" y="9" as="offset" />
          </mxGeometry>
        </mxCell>
        <mxCell id="_VDxzn4cCsTw1Ooe8onO-84" value="&lt;span style=&quot;font-size: 11px; text-wrap-mode: nowrap; background-color: rgb(255, 255, 255);&quot;&gt;Significative&lt;/span&gt;&lt;div&gt;&lt;span style=&quot;font-size: 11px; text-wrap-mode: nowrap; background-color: rgb(255, 255, 255);&quot;&gt;Distance&lt;/span&gt;&lt;div&gt;&lt;span style=&quot;font-size: 11px; text-wrap-mode: nowrap; background-color: rgb(255, 255, 255);&quot;&gt;Covered?&lt;/span&gt;&lt;/div&gt;&lt;/div&gt;" style="strokeWidth=2;html=1;shape=mxgraph.flowchart.decision;whiteSpace=wrap;" parent="1" vertex="1">
          <mxGeometry x="1501" y="39.93999999999994" width="60" height="60" as="geometry" />
        </mxCell>
        <mxCell id="_VDxzn4cCsTw1Ooe8onO-85" value="" style="edgeStyle=orthogonalEdgeStyle;rounded=0;orthogonalLoop=1;jettySize=auto;html=1;exitX=0.5;exitY=1;exitDx=0;exitDy=0;exitPerimeter=0;entryX=0.5;entryY=0;entryDx=0;entryDy=0;entryPerimeter=0;" parent="1" source="_VDxzn4cCsTw1Ooe8onO-84" target="_VDxzn4cCsTw1Ooe8onO-89" edge="1">
          <mxGeometry relative="1" as="geometry">
            <mxPoint x="1391" y="-20.06000000000006" as="sourcePoint" />
            <mxPoint x="1230" y="-20.06000000000006" as="targetPoint" />
          </mxGeometry>
        </mxCell>
        <mxCell id="_VDxzn4cCsTw1Ooe8onO-86" value="No" style="edgeLabel;html=1;align=center;verticalAlign=middle;resizable=0;points=[];" parent="_VDxzn4cCsTw1Ooe8onO-85" vertex="1" connectable="0">
          <mxGeometry x="-0.465" y="3" relative="1" as="geometry">
            <mxPoint x="7" y="3" as="offset" />
          </mxGeometry>
        </mxCell>
        <mxCell id="_VDxzn4cCsTw1Ooe8onO-87" style="edgeStyle=orthogonalEdgeStyle;rounded=0;orthogonalLoop=1;jettySize=auto;html=1;exitX=0;exitY=0.5;exitDx=0;exitDy=0;exitPerimeter=0;entryX=1;entryY=0.75;entryDx=0;entryDy=0;" parent="1" source="_VDxzn4cCsTw1Ooe8onO-89" target="_VDxzn4cCsTw1Ooe8onO-162" edge="1">
          <mxGeometry relative="1" as="geometry">
            <Array as="points">
              <mxPoint x="1391" y="157" />
              <mxPoint x="1391" y="-100" />
              <mxPoint x="1341" y="-100" />
            </Array>
            <mxPoint x="1301" y="29.980000000000018" as="targetPoint" />
          </mxGeometry>
        </mxCell>
        <mxCell id="_VDxzn4cCsTw1Ooe8onO-88" value="Yes" style="edgeLabel;html=1;align=center;verticalAlign=middle;resizable=0;points=[];" parent="_VDxzn4cCsTw1Ooe8onO-87" vertex="1" connectable="0">
          <mxGeometry x="-0.8561" y="-6" relative="1" as="geometry">
            <mxPoint x="-5" y="19" as="offset" />
          </mxGeometry>
        </mxCell>
        <mxCell id="_VDxzn4cCsTw1Ooe8onO-89" value="&lt;span style=&quot;font-size: 11px; text-wrap-mode: nowrap; background-color: rgb(255, 255, 255);&quot;&gt;Is Returning&amp;nbsp;&lt;/span&gt;&lt;div&gt;&lt;span style=&quot;font-size: 11px; text-wrap-mode: nowrap; background-color: rgb(255, 255, 255);&quot;&gt;Home?&lt;/span&gt;&lt;/div&gt;" style="strokeWidth=2;html=1;shape=mxgraph.flowchart.decision;whiteSpace=wrap;" parent="1" vertex="1">
          <mxGeometry x="1501" y="126.93999999999994" width="60" height="60" as="geometry" />
        </mxCell>
        <mxCell id="_VDxzn4cCsTw1Ooe8onO-90" style="edgeStyle=orthogonalEdgeStyle;rounded=0;orthogonalLoop=1;jettySize=auto;html=1;exitX=0.5;exitY=1;exitDx=0;exitDy=0;exitPerimeter=0;entryX=0.5;entryY=0;entryDx=0;entryDy=0;jumpStyle=arc;" parent="1" source="_VDxzn4cCsTw1Ooe8onO-65" target="_VDxzn4cCsTw1Ooe8onO-162" edge="1">
          <mxGeometry relative="1" as="geometry">
            <mxPoint x="1301" y="-130.05999999999995" as="targetPoint" />
            <Array as="points" />
          </mxGeometry>
        </mxCell>
        <mxCell id="_VDxzn4cCsTw1Ooe8onO-91" value="Yes" style="edgeLabel;html=1;align=center;verticalAlign=middle;resizable=0;points=[];" parent="_VDxzn4cCsTw1Ooe8onO-90" vertex="1" connectable="0">
          <mxGeometry x="-0.1543" y="1" relative="1" as="geometry">
            <mxPoint x="9" y="-6" as="offset" />
          </mxGeometry>
        </mxCell>
        <mxCell id="_VDxzn4cCsTw1Ooe8onO-92" value="" style="edgeStyle=orthogonalEdgeStyle;rounded=0;orthogonalLoop=1;jettySize=auto;html=1;exitX=0.5;exitY=1;exitDx=0;exitDy=0;exitPerimeter=0;entryX=0.5;entryY=0;entryDx=0;entryDy=0;entryPerimeter=0;" parent="1" source="_VDxzn4cCsTw1Ooe8onO-72" target="_VDxzn4cCsTw1Ooe8onO-96" edge="1">
          <mxGeometry relative="1" as="geometry">
            <mxPoint x="1531" y="-170.03999999999996" as="sourcePoint" />
            <mxPoint x="1531" y="-50.04000000000008" as="targetPoint" />
          </mxGeometry>
        </mxCell>
        <mxCell id="_VDxzn4cCsTw1Ooe8onO-93" value="No" style="edgeLabel;html=1;align=center;verticalAlign=middle;resizable=0;points=[];" parent="_VDxzn4cCsTw1Ooe8onO-92" vertex="1" connectable="0">
          <mxGeometry x="-0.4752" y="-2" relative="1" as="geometry">
            <mxPoint x="12" y="1" as="offset" />
          </mxGeometry>
        </mxCell>
        <mxCell id="_VDxzn4cCsTw1Ooe8onO-94" style="edgeStyle=orthogonalEdgeStyle;rounded=0;orthogonalLoop=1;jettySize=auto;html=1;exitX=1;exitY=0.5;exitDx=0;exitDy=0;exitPerimeter=0;entryX=0;entryY=0.5;entryDx=0;entryDy=0;" parent="1" source="_VDxzn4cCsTw1Ooe8onO-96" target="_VDxzn4cCsTw1Ooe8onO-107" edge="1">
          <mxGeometry relative="1" as="geometry">
            <mxPoint x="1615.9999999999995" y="-110.05999999999995" as="targetPoint" />
          </mxGeometry>
        </mxCell>
        <mxCell id="_VDxzn4cCsTw1Ooe8onO-95" value="Yes" style="edgeLabel;html=1;align=center;verticalAlign=middle;resizable=0;points=[];" parent="_VDxzn4cCsTw1Ooe8onO-94" vertex="1" connectable="0">
          <mxGeometry x="-0.9018" y="1" relative="1" as="geometry">
            <mxPoint x="21" y="9" as="offset" />
          </mxGeometry>
        </mxCell>
        <mxCell id="_VDxzn4cCsTw1Ooe8onO-96" value="&lt;span style=&quot;font-size: 11px; text-wrap-mode: nowrap; background-color: rgb(255, 255, 255);&quot;&gt;GeoZone&amp;nbsp;&lt;/span&gt;&lt;div&gt;&lt;span style=&quot;font-size: 11px; text-wrap-mode: nowrap; background-color: rgb(255, 255, 255);&quot;&gt;Poximity&lt;/span&gt;&lt;div&gt;&lt;span style=&quot;font-size: 11px; text-wrap-mode: nowrap; background-color: rgb(255, 255, 255);&quot;&gt;Warning?&lt;/span&gt;&lt;/div&gt;&lt;/div&gt;" style="strokeWidth=2;html=1;shape=mxgraph.flowchart.decision;whiteSpace=wrap;" parent="1" vertex="1">
          <mxGeometry x="1501" y="-140.03999999999996" width="60" height="60" as="geometry" />
        </mxCell>
        <mxCell id="_VDxzn4cCsTw1Ooe8onO-97" style="edgeStyle=orthogonalEdgeStyle;rounded=0;orthogonalLoop=1;jettySize=auto;html=1;exitX=0.5;exitY=1;exitDx=0;exitDy=0;exitPerimeter=0;entryX=0.5;entryY=0;entryDx=0;entryDy=0;" parent="1" source="_VDxzn4cCsTw1Ooe8onO-162" target="_VDxzn4cCsTw1Ooe8onO-69" edge="1">
          <mxGeometry relative="1" as="geometry" />
        </mxCell>
        <mxCell id="_VDxzn4cCsTw1Ooe8onO-99" style="edgeStyle=orthogonalEdgeStyle;rounded=0;orthogonalLoop=1;jettySize=auto;html=1;exitX=0.5;exitY=0;exitDx=0;exitDy=0;exitPerimeter=0;entryX=0.5;entryY=0;entryDx=0;entryDy=0;" parent="1" source="_VDxzn4cCsTw1Ooe8onO-49" target="_VDxzn4cCsTw1Ooe8onO-33" edge="1">
          <mxGeometry relative="1" as="geometry">
            <Array as="points">
              <mxPoint x="1980" y="-360" />
              <mxPoint x="1190" y="-360" />
            </Array>
          </mxGeometry>
        </mxCell>
        <mxCell id="_VDxzn4cCsTw1Ooe8onO-100" value="No" style="edgeLabel;html=1;align=center;verticalAlign=middle;resizable=0;points=[];" parent="_VDxzn4cCsTw1Ooe8onO-99" vertex="1" connectable="0">
          <mxGeometry x="-0.8156" y="-1" relative="1" as="geometry">
            <mxPoint x="59" y="21" as="offset" />
          </mxGeometry>
        </mxCell>
        <mxCell id="_VDxzn4cCsTw1Ooe8onO-101" value="" style="edgeStyle=orthogonalEdgeStyle;rounded=0;orthogonalLoop=1;jettySize=auto;html=1;exitX=1;exitY=0.5;exitDx=0;exitDy=0;exitPerimeter=0;entryX=0;entryY=0.5;entryDx=0;entryDy=0;" parent="1" source="_VDxzn4cCsTw1Ooe8onO-49" target="_VDxzn4cCsTw1Ooe8onO-105" edge="1">
          <mxGeometry relative="1" as="geometry">
            <mxPoint x="2010" y="-299.98" as="sourcePoint" />
            <mxPoint x="2170" y="-299.98" as="targetPoint" />
          </mxGeometry>
        </mxCell>
        <mxCell id="_VDxzn4cCsTw1Ooe8onO-102" value="Yes" style="edgeLabel;html=1;align=center;verticalAlign=middle;resizable=0;points=[];" parent="_VDxzn4cCsTw1Ooe8onO-101" vertex="1" connectable="0">
          <mxGeometry x="-0.0323" y="3" relative="1" as="geometry">
            <mxPoint x="-4" y="13" as="offset" />
          </mxGeometry>
        </mxCell>
        <mxCell id="_VDxzn4cCsTw1Ooe8onO-103" style="edgeStyle=orthogonalEdgeStyle;rounded=0;orthogonalLoop=1;jettySize=auto;html=1;exitX=0.5;exitY=0;exitDx=0;exitDy=0;exitPerimeter=0;entryX=0.5;entryY=0;entryDx=0;entryDy=0;" parent="1" source="_VDxzn4cCsTw1Ooe8onO-105" target="_VDxzn4cCsTw1Ooe8onO-11" edge="1">
          <mxGeometry relative="1" as="geometry">
            <Array as="points">
              <mxPoint x="2090" y="-380" />
              <mxPoint x="255" y="-380" />
            </Array>
          </mxGeometry>
        </mxCell>
        <mxCell id="_VDxzn4cCsTw1Ooe8onO-104" value="No" style="edgeLabel;html=1;align=center;verticalAlign=middle;resizable=0;points=[];" parent="_VDxzn4cCsTw1Ooe8onO-103" vertex="1" connectable="0">
          <mxGeometry x="-0.989" y="1" relative="1" as="geometry">
            <mxPoint x="11" y="-8" as="offset" />
          </mxGeometry>
        </mxCell>
        <mxCell id="_VDxzn4cCsTw1Ooe8onO-105" value="&lt;span style=&quot;font-size: 11px; text-wrap-mode: nowrap; background-color: rgb(255, 255, 255);&quot;&gt;Destination&lt;/span&gt;&lt;div&gt;&lt;span style=&quot;font-size: 11px; text-wrap-mode: nowrap; background-color: rgb(255, 255, 255);&quot;&gt;Reached?&lt;/span&gt;&lt;/div&gt;" style="strokeWidth=2;html=1;shape=mxgraph.flowchart.decision;whiteSpace=wrap;" parent="1" vertex="1">
          <mxGeometry x="2060" y="-330.02" width="60" height="60" as="geometry" />
        </mxCell>
        <mxCell id="_VDxzn4cCsTw1Ooe8onO-106" value="Return to Home" style="rounded=1;whiteSpace=wrap;html=1;absoluteArcSize=1;arcSize=14;strokeWidth=2;fillColor=#fff2cc;strokeColor=#d6b656;" parent="1" vertex="1">
          <mxGeometry x="1621" y="136.94000000000005" width="80" height="40" as="geometry" />
        </mxCell>
        <mxCell id="_VDxzn4cCsTw1Ooe8onO-107" value="Trigger Flight Plan Adaptation" style="rounded=1;whiteSpace=wrap;html=1;absoluteArcSize=1;arcSize=14;strokeWidth=2;fillColor=#fff2cc;strokeColor=#d6b656;" parent="1" vertex="1">
          <mxGeometry x="1611.5" y="-130.06" width="99" height="40" as="geometry" />
        </mxCell>
        <mxCell id="_VDxzn4cCsTw1Ooe8onO-108" style="edgeStyle=orthogonalEdgeStyle;rounded=0;orthogonalLoop=1;jettySize=auto;html=1;exitX=1;exitY=0.5;exitDx=0;exitDy=0;entryX=0.5;entryY=1;entryDx=0;entryDy=0;" parent="1" source="_VDxzn4cCsTw1Ooe8onO-107" target="_VDxzn4cCsTw1Ooe8onO-74" edge="1">
          <mxGeometry relative="1" as="geometry" />
        </mxCell>
        <mxCell id="_VDxzn4cCsTw1Ooe8onO-109" value="" style="edgeStyle=orthogonalEdgeStyle;rounded=0;orthogonalLoop=1;jettySize=auto;html=1;exitX=1;exitY=0.5;exitDx=0;exitDy=0;entryX=0;entryY=0.5;entryDx=0;entryDy=0;" parent="1" source="_VDxzn4cCsTw1Ooe8onO-7" target="_VDxzn4cCsTw1Ooe8onO-33" edge="1">
          <mxGeometry relative="1" as="geometry">
            <mxPoint x="1110" y="-300" as="sourcePoint" />
            <mxPoint x="1300" y="-300" as="targetPoint" />
          </mxGeometry>
        </mxCell>
        <mxCell id="_VDxzn4cCsTw1Ooe8onO-110" style="edgeStyle=orthogonalEdgeStyle;rounded=0;orthogonalLoop=1;jettySize=auto;html=1;exitX=0.5;exitY=1;exitDx=0;exitDy=0;exitPerimeter=0;" parent="1" source="_VDxzn4cCsTw1Ooe8onO-115" edge="1">
          <mxGeometry relative="1" as="geometry">
            <Array as="points">
              <mxPoint x="1629" y="-270" />
              <mxPoint x="1629" y="-220" />
            </Array>
            <mxPoint x="1830" y="-220" as="targetPoint" />
          </mxGeometry>
        </mxCell>
        <mxCell id="_VDxzn4cCsTw1Ooe8onO-111" value="No" style="edgeLabel;html=1;align=center;verticalAlign=middle;resizable=0;points=[];" parent="_VDxzn4cCsTw1Ooe8onO-110" vertex="1" connectable="0">
          <mxGeometry x="-0.9623" y="-4" relative="1" as="geometry">
            <mxPoint x="14" y="4" as="offset" />
          </mxGeometry>
        </mxCell>
        <mxCell id="_VDxzn4cCsTw1Ooe8onO-112" style="edgeStyle=orthogonalEdgeStyle;rounded=0;orthogonalLoop=1;jettySize=auto;html=1;exitX=0.5;exitY=0;exitDx=0;exitDy=0;entryX=0.5;entryY=1;entryDx=0;entryDy=0;" parent="1" source="_VDxzn4cCsTw1Ooe8onO-106" target="_VDxzn4cCsTw1Ooe8onO-107" edge="1">
          <mxGeometry relative="1" as="geometry">
            <Array as="points">
              <mxPoint x="1661" y="49.98000000000002" />
              <mxPoint x="1661" y="49.98000000000002" />
            </Array>
          </mxGeometry>
        </mxCell>
        <mxCell id="_VDxzn4cCsTw1Ooe8onO-113" value="" style="edgeStyle=orthogonalEdgeStyle;rounded=0;orthogonalLoop=1;jettySize=auto;html=1;exitX=1;exitY=0.5;exitDx=0;exitDy=0;exitPerimeter=0;entryX=0;entryY=0.5;entryDx=0;entryDy=0;" parent="1" source="_VDxzn4cCsTw1Ooe8onO-41" target="_VDxzn4cCsTw1Ooe8onO-115" edge="1">
          <mxGeometry relative="1" as="geometry">
            <mxPoint x="1561" y="-300" as="sourcePoint" />
            <mxPoint x="1770" y="-300" as="targetPoint" />
          </mxGeometry>
        </mxCell>
        <mxCell id="_VDxzn4cCsTw1Ooe8onO-114" value="Yes" style="edgeLabel;html=1;align=center;verticalAlign=middle;resizable=0;points=[];" parent="_VDxzn4cCsTw1Ooe8onO-113" vertex="1" connectable="0">
          <mxGeometry x="-0.42" y="-1" relative="1" as="geometry">
            <mxPoint x="13" y="9" as="offset" />
          </mxGeometry>
        </mxCell>
        <mxCell id="_VDxzn4cCsTw1Ooe8onO-115" value="&lt;span style=&quot;font-size: 11px; text-wrap-mode: nowrap; background-color: rgb(255, 255, 255);&quot;&gt;Valid&amp;nbsp;&lt;/span&gt;&lt;div&gt;&lt;span style=&quot;font-size: 11px; text-wrap-mode: nowrap; background-color: rgb(255, 255, 255);&quot;&gt;Flight&amp;nbsp;&lt;/span&gt;&lt;div&gt;&lt;span style=&quot;font-size: 11px; text-wrap-mode: nowrap; background-color: rgb(255, 255, 255);&quot;&gt;Plan&lt;/span&gt;&lt;span style=&quot;background-color: light-dark(rgb(255, 255, 255), rgb(18, 18, 18)); font-size: 11px; text-wrap-mode: nowrap; color: light-dark(rgb(0, 0, 0), rgb(255, 255, 255));&quot;&gt;?&lt;/span&gt;&lt;/div&gt;&lt;/div&gt;" style="strokeWidth=2;html=1;shape=mxgraph.flowchart.decision;whiteSpace=wrap;" parent="1" vertex="1">
          <mxGeometry x="1600" y="-330" width="60" height="60" as="geometry" />
        </mxCell>
        <mxCell id="_VDxzn4cCsTw1Ooe8onO-116" value="Calculate Flight Plan" style="swimlane;whiteSpace=wrap;html=1;" parent="1" vertex="1">
          <mxGeometry x="1350.5" y="-800" width="709.5" height="150" as="geometry" />
        </mxCell>
        <mxCell id="_VDxzn4cCsTw1Ooe8onO-117" style="edgeStyle=orthogonalEdgeStyle;rounded=0;orthogonalLoop=1;jettySize=auto;html=1;exitX=1;exitY=0.5;exitDx=0;exitDy=0;exitPerimeter=0;" parent="_VDxzn4cCsTw1Ooe8onO-116" source="_VDxzn4cCsTw1Ooe8onO-119" target="_VDxzn4cCsTw1Ooe8onO-120" edge="1">
          <mxGeometry relative="1" as="geometry" />
        </mxCell>
        <mxCell id="_VDxzn4cCsTw1Ooe8onO-118" value="Yes" style="edgeLabel;html=1;align=center;verticalAlign=middle;resizable=0;points=[];" parent="_VDxzn4cCsTw1Ooe8onO-117" vertex="1" connectable="0">
          <mxGeometry x="-0.28" relative="1" as="geometry">
            <mxPoint y="10" as="offset" />
          </mxGeometry>
        </mxCell>
        <mxCell id="_VDxzn4cCsTw1Ooe8onO-119" value="&lt;span style=&quot;font-size: 11px; text-wrap-mode: nowrap;&quot;&gt;Need&lt;/span&gt;&lt;div&gt;&lt;span style=&quot;font-size: 11px; text-wrap-mode: nowrap;&quot;&gt;Authorization?&lt;/span&gt;&lt;/div&gt;" style="strokeWidth=2;html=1;shape=mxgraph.flowchart.decision;whiteSpace=wrap;labelBackgroundColor=default;" parent="_VDxzn4cCsTw1Ooe8onO-116" vertex="1">
          <mxGeometry x="238.5" y="50" width="80" height="60" as="geometry" />
        </mxCell>
        <mxCell id="_VDxzn4cCsTw1Ooe8onO-120" value="Authorization&lt;div&gt;Request&lt;/div&gt;" style="rounded=1;whiteSpace=wrap;html=1;absoluteArcSize=1;arcSize=14;strokeWidth=2;fillColor=#fff2cc;strokeColor=#d6b656;" parent="_VDxzn4cCsTw1Ooe8onO-116" vertex="1">
          <mxGeometry x="368.5" y="60" width="80" height="40" as="geometry" />
        </mxCell>
        <mxCell id="_VDxzn4cCsTw1Ooe8onO-121" style="edgeStyle=orthogonalEdgeStyle;rounded=0;orthogonalLoop=1;jettySize=auto;html=1;exitX=1;exitY=0.5;exitDx=0;exitDy=0;" parent="_VDxzn4cCsTw1Ooe8onO-116" source="_VDxzn4cCsTw1Ooe8onO-120" target="_VDxzn4cCsTw1Ooe8onO-122" edge="1">
          <mxGeometry relative="1" as="geometry">
            <mxPoint x="488.5" y="80" as="targetPoint" />
          </mxGeometry>
        </mxCell>
        <mxCell id="_VDxzn4cCsTw1Ooe8onO-122" value="Adapt Flight Plan with Authorization" style="rounded=1;whiteSpace=wrap;html=1;absoluteArcSize=1;arcSize=14;strokeWidth=2;fillColor=#fff2cc;strokeColor=#d6b656;" parent="_VDxzn4cCsTw1Ooe8onO-116" vertex="1">
          <mxGeometry x="488.5" y="60" width="129" height="40" as="geometry" />
        </mxCell>
        <mxCell id="_VDxzn4cCsTw1Ooe8onO-123" value="Calculate Flight Plan" style="rounded=1;whiteSpace=wrap;html=1;absoluteArcSize=1;arcSize=14;strokeWidth=2;fillColor=#fff2cc;strokeColor=#d6b656;" parent="_VDxzn4cCsTw1Ooe8onO-116" vertex="1">
          <mxGeometry x="118.5" y="60" width="80" height="40" as="geometry" />
        </mxCell>
        <mxCell id="_VDxzn4cCsTw1Ooe8onO-124" style="edgeStyle=orthogonalEdgeStyle;rounded=0;orthogonalLoop=1;jettySize=auto;html=1;exitX=1;exitY=0.5;exitDx=0;exitDy=0;entryX=0;entryY=0.5;entryDx=0;entryDy=0;entryPerimeter=0;" parent="_VDxzn4cCsTw1Ooe8onO-116" source="_VDxzn4cCsTw1Ooe8onO-123" target="_VDxzn4cCsTw1Ooe8onO-119" edge="1">
          <mxGeometry relative="1" as="geometry" />
        </mxCell>
        <mxCell id="_VDxzn4cCsTw1Ooe8onO-125" value="Long Term Planning" style="swimlane;whiteSpace=wrap;html=1;" parent="1" vertex="1">
          <mxGeometry x="480" y="-800" width="840" height="380" as="geometry">
            <mxRectangle x="960" y="-520" width="150" height="30" as="alternateBounds" />
          </mxGeometry>
        </mxCell>
        <mxCell id="_VDxzn4cCsTw1Ooe8onO-126" value="" style="verticalLabelPosition=bottom;verticalAlign=top;html=1;shape=mxgraph.flowchart.collate;" parent="_VDxzn4cCsTw1Ooe8onO-125" vertex="1">
          <mxGeometry x="35.5" y="60" width="21" height="20" as="geometry" />
        </mxCell>
        <mxCell id="_VDxzn4cCsTw1Ooe8onO-127" style="edgeStyle=orthogonalEdgeStyle;rounded=0;orthogonalLoop=1;jettySize=auto;html=1;exitX=0.5;exitY=1;exitDx=0;exitDy=0;exitPerimeter=0;entryX=0.5;entryY=0;entryDx=0;entryDy=0;" parent="_VDxzn4cCsTw1Ooe8onO-125" source="_VDxzn4cCsTw1Ooe8onO-128" target="_VDxzn4cCsTw1Ooe8onO-135" edge="1">
          <mxGeometry relative="1" as="geometry" />
        </mxCell>
        <mxCell id="_VDxzn4cCsTw1Ooe8onO-128" value="&lt;span style=&quot;font-size: 11px; text-wrap-mode: nowrap;&quot;&gt;Sufficient&lt;/span&gt;&lt;div&gt;&lt;span style=&quot;font-size: 11px; text-wrap-mode: nowrap;&quot;&gt;battery?&lt;/span&gt;&lt;/div&gt;" style="strokeWidth=2;html=1;shape=mxgraph.flowchart.decision;whiteSpace=wrap;labelBackgroundColor=default;" parent="_VDxzn4cCsTw1Ooe8onO-125" vertex="1">
          <mxGeometry x="114.5" y="40" width="60" height="60" as="geometry" />
        </mxCell>
        <mxCell id="_VDxzn4cCsTw1Ooe8onO-129" style="edgeStyle=orthogonalEdgeStyle;rounded=0;orthogonalLoop=1;jettySize=auto;html=1;entryX=0;entryY=0.5;entryDx=0;entryDy=0;entryPerimeter=0;" parent="_VDxzn4cCsTw1Ooe8onO-125" source="_VDxzn4cCsTw1Ooe8onO-126" target="_VDxzn4cCsTw1Ooe8onO-128" edge="1">
          <mxGeometry relative="1" as="geometry" />
        </mxCell>
        <mxCell id="_VDxzn4cCsTw1Ooe8onO-130" style="edgeStyle=orthogonalEdgeStyle;rounded=0;orthogonalLoop=1;jettySize=auto;html=1;exitX=1;exitY=0.5;exitDx=0;exitDy=0;exitPerimeter=0;entryX=0;entryY=0.5;entryDx=0;entryDy=0;" parent="_VDxzn4cCsTw1Ooe8onO-125" source="_VDxzn4cCsTw1Ooe8onO-132" target="_VDxzn4cCsTw1Ooe8onO-151" edge="1">
          <mxGeometry relative="1" as="geometry" />
        </mxCell>
        <mxCell id="_VDxzn4cCsTw1Ooe8onO-131" value="Yes" style="edgeLabel;html=1;align=center;verticalAlign=middle;resizable=0;points=[];" parent="_VDxzn4cCsTw1Ooe8onO-130" vertex="1" connectable="0">
          <mxGeometry x="-0.1701" y="2" relative="1" as="geometry">
            <mxPoint y="12" as="offset" />
          </mxGeometry>
        </mxCell>
        <mxCell id="_VDxzn4cCsTw1Ooe8onO-132" value="&lt;span style=&quot;font-size: 11px; text-wrap-mode: nowrap;&quot;&gt;GeoZone, Weather&lt;/span&gt;&lt;div&gt;&lt;span style=&quot;font-size: 11px; text-wrap-mode: nowrap;&quot;&gt;&amp;nbsp;or Authorization&lt;/span&gt;&lt;div&gt;&lt;span style=&quot;font-size: 11px; text-wrap-mode: nowrap;&quot;&gt;changed?&lt;/span&gt;&lt;/div&gt;&lt;/div&gt;" style="strokeWidth=2;html=1;shape=mxgraph.flowchart.decision;whiteSpace=wrap;labelBackgroundColor=default;" parent="_VDxzn4cCsTw1Ooe8onO-125" vertex="1">
          <mxGeometry x="496.5" y="40" width="119" height="60" as="geometry" />
        </mxCell>
        <mxCell id="_VDxzn4cCsTw1Ooe8onO-133" style="edgeStyle=orthogonalEdgeStyle;rounded=0;orthogonalLoop=1;jettySize=auto;html=1;exitX=1;exitY=0.5;exitDx=0;exitDy=0;exitPerimeter=0;entryX=0;entryY=0.5;entryDx=0;entryDy=0;entryPerimeter=0;" parent="_VDxzn4cCsTw1Ooe8onO-125" source="_VDxzn4cCsTw1Ooe8onO-128" target="_VDxzn4cCsTw1Ooe8onO-132" edge="1">
          <mxGeometry relative="1" as="geometry" />
        </mxCell>
        <mxCell id="_VDxzn4cCsTw1Ooe8onO-134" value="Yes" style="edgeLabel;html=1;align=center;verticalAlign=middle;resizable=0;points=[];" parent="_VDxzn4cCsTw1Ooe8onO-133" vertex="1" connectable="0">
          <mxGeometry x="-0.1677" y="1" relative="1" as="geometry">
            <mxPoint x="-112" y="11" as="offset" />
          </mxGeometry>
        </mxCell>
        <mxCell id="_VDxzn4cCsTw1Ooe8onO-135" value="Calculate Alternative Flight Plan To Destination" style="rounded=1;whiteSpace=wrap;html=1;absoluteArcSize=1;arcSize=14;strokeWidth=2;fillColor=#fff2cc;strokeColor=#d6b656;" parent="_VDxzn4cCsTw1Ooe8onO-125" vertex="1">
          <mxGeometry x="80" y="130" width="129" height="40" as="geometry" />
        </mxCell>
        <mxCell id="_VDxzn4cCsTw1Ooe8onO-136" style="edgeStyle=orthogonalEdgeStyle;rounded=0;orthogonalLoop=1;jettySize=auto;html=1;exitX=1;exitY=0.5;exitDx=0;exitDy=0;exitPerimeter=0;" parent="_VDxzn4cCsTw1Ooe8onO-125" source="_VDxzn4cCsTw1Ooe8onO-140" target="_VDxzn4cCsTw1Ooe8onO-132" edge="1">
          <mxGeometry relative="1" as="geometry" />
        </mxCell>
        <mxCell id="_VDxzn4cCsTw1Ooe8onO-137" value="Yes" style="edgeLabel;html=1;align=center;verticalAlign=middle;resizable=0;points=[];" parent="_VDxzn4cCsTw1Ooe8onO-136" vertex="1" connectable="0">
          <mxGeometry x="-0.8062" y="3" relative="1" as="geometry">
            <mxPoint x="-7" y="13" as="offset" />
          </mxGeometry>
        </mxCell>
        <mxCell id="_VDxzn4cCsTw1Ooe8onO-138" style="edgeStyle=orthogonalEdgeStyle;rounded=0;orthogonalLoop=1;jettySize=auto;html=1;exitX=0.5;exitY=1;exitDx=0;exitDy=0;exitPerimeter=0;entryX=0.5;entryY=0;entryDx=0;entryDy=0;entryPerimeter=0;" parent="_VDxzn4cCsTw1Ooe8onO-125" source="_VDxzn4cCsTw1Ooe8onO-140" target="_VDxzn4cCsTw1Ooe8onO-146" edge="1">
          <mxGeometry relative="1" as="geometry">
            <mxPoint x="286.5" y="210" as="targetPoint" />
          </mxGeometry>
        </mxCell>
        <mxCell id="_VDxzn4cCsTw1Ooe8onO-139" value="No" style="edgeLabel;html=1;align=center;verticalAlign=middle;resizable=0;points=[];" parent="_VDxzn4cCsTw1Ooe8onO-138" vertex="1" connectable="0">
          <mxGeometry x="-0.2778" y="2" relative="1" as="geometry">
            <mxPoint x="7" as="offset" />
          </mxGeometry>
        </mxCell>
        <mxCell id="_VDxzn4cCsTw1Ooe8onO-140" value="&lt;span style=&quot;background-color: rgb(255, 255, 255);&quot;&gt;Flight Plan Available?&lt;/span&gt;" style="strokeWidth=2;html=1;shape=mxgraph.flowchart.decision;whiteSpace=wrap;" parent="_VDxzn4cCsTw1Ooe8onO-125" vertex="1">
          <mxGeometry x="256.5" y="120" width="60" height="60" as="geometry" />
        </mxCell>
        <mxCell id="_VDxzn4cCsTw1Ooe8onO-141" style="edgeStyle=orthogonalEdgeStyle;rounded=0;orthogonalLoop=1;jettySize=auto;html=1;exitX=1;exitY=0.5;exitDx=0;exitDy=0;entryX=0;entryY=0.5;entryDx=0;entryDy=0;entryPerimeter=0;" parent="_VDxzn4cCsTw1Ooe8onO-125" source="_VDxzn4cCsTw1Ooe8onO-135" target="_VDxzn4cCsTw1Ooe8onO-140" edge="1">
          <mxGeometry relative="1" as="geometry" />
        </mxCell>
        <mxCell id="_VDxzn4cCsTw1Ooe8onO-142" style="edgeStyle=orthogonalEdgeStyle;rounded=0;orthogonalLoop=1;jettySize=auto;html=1;exitX=0.5;exitY=1;exitDx=0;exitDy=0;exitPerimeter=0;" parent="_VDxzn4cCsTw1Ooe8onO-125" source="_VDxzn4cCsTw1Ooe8onO-146" target="_VDxzn4cCsTw1Ooe8onO-147" edge="1">
          <mxGeometry relative="1" as="geometry" />
        </mxCell>
        <mxCell id="_VDxzn4cCsTw1Ooe8onO-143" value="No" style="edgeLabel;html=1;align=center;verticalAlign=middle;resizable=0;points=[];" parent="_VDxzn4cCsTw1Ooe8onO-142" vertex="1" connectable="0">
          <mxGeometry x="0.0583" y="1" relative="1" as="geometry">
            <mxPoint as="offset" />
          </mxGeometry>
        </mxCell>
        <mxCell id="_VDxzn4cCsTw1Ooe8onO-144" style="edgeStyle=orthogonalEdgeStyle;rounded=0;orthogonalLoop=1;jettySize=auto;html=1;exitX=1;exitY=0.5;exitDx=0;exitDy=0;exitPerimeter=0;" parent="_VDxzn4cCsTw1Ooe8onO-125" source="_VDxzn4cCsTw1Ooe8onO-146" target="_VDxzn4cCsTw1Ooe8onO-149" edge="1">
          <mxGeometry relative="1" as="geometry" />
        </mxCell>
        <mxCell id="_VDxzn4cCsTw1Ooe8onO-145" value="Yes" style="edgeLabel;html=1;align=center;verticalAlign=middle;resizable=0;points=[];" parent="_VDxzn4cCsTw1Ooe8onO-144" vertex="1" connectable="0">
          <mxGeometry x="-0.4422" y="-1" relative="1" as="geometry">
            <mxPoint y="9" as="offset" />
          </mxGeometry>
        </mxCell>
        <mxCell id="_VDxzn4cCsTw1Ooe8onO-146" value="&lt;span style=&quot;font-size: 11px; text-wrap-mode: nowrap; background-color: rgb(255, 255, 255);&quot;&gt;Significative&lt;/span&gt;&lt;div&gt;&lt;span style=&quot;font-size: 11px; text-wrap-mode: nowrap; background-color: rgb(255, 255, 255);&quot;&gt;Distance&lt;/span&gt;&lt;div&gt;&lt;span style=&quot;font-size: 11px; text-wrap-mode: nowrap; background-color: rgb(255, 255, 255);&quot;&gt;Covered?&lt;/span&gt;&lt;/div&gt;&lt;/div&gt;" style="strokeWidth=2;html=1;shape=mxgraph.flowchart.decision;whiteSpace=wrap;" parent="_VDxzn4cCsTw1Ooe8onO-125" vertex="1">
          <mxGeometry x="256.5" y="219.9999999999999" width="60" height="60" as="geometry" />
        </mxCell>
        <mxCell id="_VDxzn4cCsTw1Ooe8onO-147" value="Return to Home" style="rounded=1;whiteSpace=wrap;html=1;absoluteArcSize=1;arcSize=14;strokeWidth=2;fillColor=#fff2cc;strokeColor=#d6b656;" parent="_VDxzn4cCsTw1Ooe8onO-125" vertex="1">
          <mxGeometry x="246.5" y="320" width="80" height="40" as="geometry" />
        </mxCell>
        <mxCell id="_VDxzn4cCsTw1Ooe8onO-148" style="edgeStyle=orthogonalEdgeStyle;rounded=0;orthogonalLoop=1;jettySize=auto;html=1;exitX=1;exitY=0.5;exitDx=0;exitDy=0;entryX=0;entryY=0.5;entryDx=0;entryDy=0;" parent="_VDxzn4cCsTw1Ooe8onO-125" source="_VDxzn4cCsTw1Ooe8onO-149" target="_VDxzn4cCsTw1Ooe8onO-150" edge="1">
          <mxGeometry relative="1" as="geometry" />
        </mxCell>
        <mxCell id="_VDxzn4cCsTw1Ooe8onO-149" value="Find Charging Point" style="rounded=1;whiteSpace=wrap;html=1;absoluteArcSize=1;arcSize=14;strokeWidth=2;fillColor=#fff2cc;strokeColor=#d6b656;" parent="_VDxzn4cCsTw1Ooe8onO-125" vertex="1">
          <mxGeometry x="365.5" y="230" width="129" height="40" as="geometry" />
        </mxCell>
        <mxCell id="_VDxzn4cCsTw1Ooe8onO-150" value="Calculate Alternative Flight Plan To Charging Point" style="rounded=1;whiteSpace=wrap;html=1;absoluteArcSize=1;arcSize=14;strokeWidth=2;fillColor=#fff2cc;strokeColor=#d6b656;" parent="_VDxzn4cCsTw1Ooe8onO-125" vertex="1">
          <mxGeometry x="525.5" y="230" width="129" height="40" as="geometry" />
        </mxCell>
        <mxCell id="_VDxzn4cCsTw1Ooe8onO-151" value="Calculate Alternative Flight Plan To Destination" style="rounded=1;whiteSpace=wrap;html=1;absoluteArcSize=1;arcSize=14;strokeWidth=2;fillColor=#fff2cc;strokeColor=#d6b656;" parent="_VDxzn4cCsTw1Ooe8onO-125" vertex="1">
          <mxGeometry x="675.5" y="50" width="129" height="40" as="geometry" />
        </mxCell>
        <mxCell id="_VDxzn4cCsTw1Ooe8onO-152" value="Retrive Environment Information" style="swimlane;whiteSpace=wrap;html=1;" parent="1" vertex="1">
          <mxGeometry x="1350" y="-620" width="710" height="150" as="geometry" />
        </mxCell>
        <mxCell id="_VDxzn4cCsTw1Ooe8onO-153" style="edgeStyle=orthogonalEdgeStyle;rounded=0;orthogonalLoop=1;jettySize=auto;html=1;entryX=0;entryY=0.5;entryDx=0;entryDy=0;" parent="_VDxzn4cCsTw1Ooe8onO-152" source="_VDxzn4cCsTw1Ooe8onO-154" target="_VDxzn4cCsTw1Ooe8onO-155" edge="1">
          <mxGeometry relative="1" as="geometry" />
        </mxCell>
        <mxCell id="_VDxzn4cCsTw1Ooe8onO-154" value="" style="verticalLabelPosition=bottom;verticalAlign=top;html=1;shape=mxgraph.flowchart.collate;" parent="_VDxzn4cCsTw1Ooe8onO-152" vertex="1">
          <mxGeometry x="70" y="80" width="21" height="20" as="geometry" />
        </mxCell>
        <mxCell id="_VDxzn4cCsTw1Ooe8onO-155" value="Retrive GeoZone" style="rounded=1;whiteSpace=wrap;html=1;absoluteArcSize=1;arcSize=14;strokeWidth=2;fillColor=#fff2cc;strokeColor=#d6b656;" parent="_VDxzn4cCsTw1Ooe8onO-152" vertex="1">
          <mxGeometry x="142" y="70" width="80" height="40" as="geometry" />
        </mxCell>
        <mxCell id="_VDxzn4cCsTw1Ooe8onO-156" style="edgeStyle=orthogonalEdgeStyle;rounded=0;orthogonalLoop=1;jettySize=auto;html=1;entryX=0;entryY=0.5;entryDx=0;entryDy=0;" parent="_VDxzn4cCsTw1Ooe8onO-152" source="_VDxzn4cCsTw1Ooe8onO-157" target="_VDxzn4cCsTw1Ooe8onO-158" edge="1">
          <mxGeometry relative="1" as="geometry" />
        </mxCell>
        <mxCell id="_VDxzn4cCsTw1Ooe8onO-157" value="" style="verticalLabelPosition=bottom;verticalAlign=top;html=1;shape=mxgraph.flowchart.collate;" parent="_VDxzn4cCsTw1Ooe8onO-152" vertex="1">
          <mxGeometry x="272" y="80" width="21" height="20" as="geometry" />
        </mxCell>
        <mxCell id="_VDxzn4cCsTw1Ooe8onO-158" value="Retrive Weather" style="rounded=1;whiteSpace=wrap;html=1;absoluteArcSize=1;arcSize=14;strokeWidth=2;fillColor=#fff2cc;strokeColor=#d6b656;" parent="_VDxzn4cCsTw1Ooe8onO-152" vertex="1">
          <mxGeometry x="344" y="70" width="80" height="40" as="geometry" />
        </mxCell>
        <mxCell id="_VDxzn4cCsTw1Ooe8onO-159" style="edgeStyle=orthogonalEdgeStyle;rounded=0;orthogonalLoop=1;jettySize=auto;html=1;entryX=0;entryY=0.5;entryDx=0;entryDy=0;" parent="_VDxzn4cCsTw1Ooe8onO-152" source="_VDxzn4cCsTw1Ooe8onO-160" target="_VDxzn4cCsTw1Ooe8onO-161" edge="1">
          <mxGeometry relative="1" as="geometry" />
        </mxCell>
        <mxCell id="_VDxzn4cCsTw1Ooe8onO-160" value="" style="verticalLabelPosition=bottom;verticalAlign=top;html=1;shape=mxgraph.flowchart.collate;" parent="_VDxzn4cCsTw1Ooe8onO-152" vertex="1">
          <mxGeometry x="488" y="80" width="21" height="20" as="geometry" />
        </mxCell>
        <mxCell id="_VDxzn4cCsTw1Ooe8onO-161" value="Retrive Authorization" style="rounded=1;whiteSpace=wrap;html=1;absoluteArcSize=1;arcSize=14;strokeWidth=2;fillColor=#fff2cc;strokeColor=#d6b656;" parent="_VDxzn4cCsTw1Ooe8onO-152" vertex="1">
          <mxGeometry x="560" y="70" width="80" height="40" as="geometry" />
        </mxCell>
        <mxCell id="_VDxzn4cCsTw1Ooe8onO-162" value="Configure for Emergency Landing" style="rounded=1;whiteSpace=wrap;html=1;absoluteArcSize=1;arcSize=14;strokeWidth=2;fillColor=#fff2cc;strokeColor=#d6b656;" parent="1" vertex="1">
          <mxGeometry x="1261" y="-130.03999999999994" width="80" height="40" as="geometry" />
        </mxCell>
        <mxCell id="_VDxzn4cCsTw1Ooe8onO-163" value="" style="rounded=0;whiteSpace=wrap;html=1;fillColor=none;dashed=1;strokeColor=#75A15C;strokeWidth=2;" parent="1" vertex="1">
          <mxGeometry x="2050" y="-400" width="280" height="170" as="geometry" />
        </mxCell>
      </root>
    </mxGraphModel>
  </diagram>
  <diagram id="MxAblNDCe0qbmAWFTWJY" name="MapeK">
    <mxGraphModel dx="1206" dy="1126" grid="1" gridSize="10" guides="1" tooltips="1" connect="1" arrows="1" fold="1" page="1" pageScale="1" pageWidth="827" pageHeight="1169" math="0" shadow="0">
      <root>
        <mxCell id="0" />
        <mxCell id="1" parent="0" />
        <mxCell id="dsQlrB5OTKfuEFtoTQ9H-1" value="" style="rounded=0;whiteSpace=wrap;html=1;fillColor=#f5f5f5;strokeColor=#666666;fontColor=#333333;" vertex="1" parent="1">
          <mxGeometry x="59" y="40" width="730" height="190" as="geometry" />
        </mxCell>
        <mxCell id="dsQlrB5OTKfuEFtoTQ9H-2" value="Knlowledge" style="shape=trapezoid;perimeter=trapezoidPerimeter;whiteSpace=wrap;html=1;fixedSize=1;size=30;fillColor=#e1d5e7;strokeColor=#9673a6;fontSize=13;" vertex="1" parent="1">
          <mxGeometry x="189" y="130" width="470" height="70" as="geometry" />
        </mxCell>
        <mxCell id="dsQlrB5OTKfuEFtoTQ9H-3" style="edgeStyle=orthogonalEdgeStyle;rounded=0;orthogonalLoop=1;jettySize=auto;html=1;exitX=0.164;exitY=0;exitDx=0;exitDy=0;entryX=0.75;entryY=1;entryDx=0;entryDy=0;exitPerimeter=0;strokeWidth=2;" edge="1" parent="1" source="dsQlrB5OTKfuEFtoTQ9H-5" target="dsQlrB5OTKfuEFtoTQ9H-32">
          <mxGeometry relative="1" as="geometry" />
        </mxCell>
        <mxCell id="dsQlrB5OTKfuEFtoTQ9H-4" value="Monitor" style="edgeLabel;html=1;align=center;verticalAlign=middle;resizable=0;points=[];" vertex="1" connectable="0" parent="dsQlrB5OTKfuEFtoTQ9H-3">
          <mxGeometry x="-0.1155" relative="1" as="geometry">
            <mxPoint as="offset" />
          </mxGeometry>
        </mxCell>
        <mxCell id="dsQlrB5OTKfuEFtoTQ9H-5" value="" style="rounded=0;whiteSpace=wrap;html=1;fillColor=#f5f5f5;fontColor=#333333;strokeColor=#666666;" vertex="1" parent="1">
          <mxGeometry x="59" y="280" width="730" height="180" as="geometry" />
        </mxCell>
        <mxCell id="dsQlrB5OTKfuEFtoTQ9H-6" value="Radio" style="rounded=1;whiteSpace=wrap;html=1;gradientColor=light-dark(#fff2cc, #3e2800);fillColor=light-dark(#dae8fc, #bfc3ff);gradientDirection=east;fontSize=13;" vertex="1" parent="1">
          <mxGeometry x="84" y="410" width="120" height="60" as="geometry" />
        </mxCell>
        <mxCell id="dsQlrB5OTKfuEFtoTQ9H-7" style="edgeStyle=orthogonalEdgeStyle;rounded=0;orthogonalLoop=1;jettySize=auto;html=1;entryX=0;entryY=0.5;entryDx=0;entryDy=0;exitX=0.5;exitY=0;exitDx=0;exitDy=0;strokeWidth=2;" edge="1" parent="1" source="dsQlrB5OTKfuEFtoTQ9H-8" target="dsQlrB5OTKfuEFtoTQ9H-14">
          <mxGeometry relative="1" as="geometry" />
        </mxCell>
        <mxCell id="dsQlrB5OTKfuEFtoTQ9H-8" value="Altimeter" style="rounded=1;whiteSpace=wrap;html=1;fillColor=#fff2cc;strokeColor=#d6b656;fontSize=13;" vertex="1" parent="1">
          <mxGeometry x="224" y="410" width="120" height="60" as="geometry" />
        </mxCell>
        <mxCell id="dsQlrB5OTKfuEFtoTQ9H-9" style="edgeStyle=orthogonalEdgeStyle;rounded=0;orthogonalLoop=1;jettySize=auto;html=1;exitX=0.5;exitY=0;exitDx=0;exitDy=0;entryX=0.5;entryY=1;entryDx=0;entryDy=0;strokeWidth=2;" edge="1" parent="1" source="dsQlrB5OTKfuEFtoTQ9H-10" target="dsQlrB5OTKfuEFtoTQ9H-14">
          <mxGeometry relative="1" as="geometry" />
        </mxCell>
        <mxCell id="dsQlrB5OTKfuEFtoTQ9H-10" value="GPS" style="rounded=1;whiteSpace=wrap;html=1;fillColor=#fff2cc;strokeColor=#d6b656;fontSize=13;" vertex="1" parent="1">
          <mxGeometry x="364" y="410" width="120" height="60" as="geometry" />
        </mxCell>
        <mxCell id="dsQlrB5OTKfuEFtoTQ9H-11" value="Motors" style="rounded=1;whiteSpace=wrap;html=1;fillColor=#dae8fc;strokeColor=#6c8ebf;fontSize=13;" vertex="1" parent="1">
          <mxGeometry x="504.00000000000006" y="410" width="120" height="60" as="geometry" />
        </mxCell>
        <mxCell id="dsQlrB5OTKfuEFtoTQ9H-12" value="WiFi Module" style="rounded=1;whiteSpace=wrap;html=1;gradientColor=light-dark(#dae8fc, #ededed);gradientDirection=west;fillColor=light-dark(#fff2cc, #ededed);fontSize=13;" vertex="1" parent="1">
          <mxGeometry x="644" y="410" width="120" height="60" as="geometry" />
        </mxCell>
        <mxCell id="dsQlrB5OTKfuEFtoTQ9H-13" style="edgeStyle=orthogonalEdgeStyle;rounded=0;orthogonalLoop=1;jettySize=auto;html=1;exitX=1;exitY=0.5;exitDx=0;exitDy=0;entryX=0.5;entryY=0;entryDx=0;entryDy=0;strokeWidth=2;" edge="1" parent="1" source="dsQlrB5OTKfuEFtoTQ9H-14" target="dsQlrB5OTKfuEFtoTQ9H-11">
          <mxGeometry relative="1" as="geometry" />
        </mxCell>
        <mxCell id="dsQlrB5OTKfuEFtoTQ9H-14" value="Flight Controller" style="rounded=1;whiteSpace=wrap;html=1;fillColor=#bac8d3;strokeColor=#23445d;fontSize=13;" vertex="1" parent="1">
          <mxGeometry x="364" y="330" width="120" height="60" as="geometry" />
        </mxCell>
        <mxCell id="dsQlrB5OTKfuEFtoTQ9H-15" style="edgeStyle=orthogonalEdgeStyle;rounded=0;orthogonalLoop=1;jettySize=auto;html=1;entryX=0.75;entryY=1;entryDx=0;entryDy=0;exitX=0.157;exitY=-0.003;exitDx=0;exitDy=0;exitPerimeter=0;strokeWidth=2;" edge="1" parent="1" source="dsQlrB5OTKfuEFtoTQ9H-24" target="dsQlrB5OTKfuEFtoTQ9H-6">
          <mxGeometry relative="1" as="geometry">
            <mxPoint x="174.07999999999993" y="510" as="sourcePoint" />
          </mxGeometry>
        </mxCell>
        <mxCell id="dsQlrB5OTKfuEFtoTQ9H-16" value="Monitor" style="edgeLabel;html=1;align=center;verticalAlign=middle;resizable=0;points=[];" vertex="1" connectable="0" parent="dsQlrB5OTKfuEFtoTQ9H-15">
          <mxGeometry x="-0.0314" relative="1" as="geometry">
            <mxPoint as="offset" />
          </mxGeometry>
        </mxCell>
        <mxCell id="dsQlrB5OTKfuEFtoTQ9H-17" value="Monitor" style="edgeStyle=orthogonalEdgeStyle;rounded=0;orthogonalLoop=1;jettySize=auto;html=1;entryX=0.75;entryY=1;entryDx=0;entryDy=0;exitX=0.924;exitY=-0.003;exitDx=0;exitDy=0;exitPerimeter=0;strokeWidth=2;" edge="1" parent="1" source="dsQlrB5OTKfuEFtoTQ9H-24" target="dsQlrB5OTKfuEFtoTQ9H-12">
          <mxGeometry x="-0.0023" relative="1" as="geometry">
            <Array as="points">
              <mxPoint x="734" y="491" />
              <mxPoint x="734" y="491" />
            </Array>
            <mxPoint x="734.2" y="512" as="sourcePoint" />
            <mxPoint as="offset" />
          </mxGeometry>
        </mxCell>
        <mxCell id="dsQlrB5OTKfuEFtoTQ9H-18" style="edgeStyle=orthogonalEdgeStyle;rounded=0;orthogonalLoop=1;jettySize=auto;html=1;entryX=0.5;entryY=1;entryDx=0;entryDy=0;exitX=0.5;exitY=0;exitDx=0;exitDy=0;strokeWidth=2;" edge="1" parent="1" source="dsQlrB5OTKfuEFtoTQ9H-24" target="dsQlrB5OTKfuEFtoTQ9H-10">
          <mxGeometry relative="1" as="geometry">
            <mxPoint x="424.1199999999999" y="509.03999999999996" as="sourcePoint" />
          </mxGeometry>
        </mxCell>
        <mxCell id="dsQlrB5OTKfuEFtoTQ9H-19" value="Monitor" style="edgeLabel;html=1;align=center;verticalAlign=middle;resizable=0;points=[];" vertex="1" connectable="0" parent="dsQlrB5OTKfuEFtoTQ9H-18">
          <mxGeometry x="-0.1416" y="1" relative="1" as="geometry">
            <mxPoint y="-2" as="offset" />
          </mxGeometry>
        </mxCell>
        <mxCell id="dsQlrB5OTKfuEFtoTQ9H-20" style="edgeStyle=orthogonalEdgeStyle;rounded=0;orthogonalLoop=1;jettySize=auto;html=1;exitX=0.309;exitY=-0.009;exitDx=0;exitDy=0;entryX=0.5;entryY=1;entryDx=0;entryDy=0;exitPerimeter=0;strokeWidth=2;" edge="1" parent="1" source="dsQlrB5OTKfuEFtoTQ9H-24" target="dsQlrB5OTKfuEFtoTQ9H-8">
          <mxGeometry relative="1" as="geometry">
            <mxPoint x="284.28" y="510" as="sourcePoint" />
          </mxGeometry>
        </mxCell>
        <mxCell id="dsQlrB5OTKfuEFtoTQ9H-21" value="Monitor" style="edgeLabel;html=1;align=center;verticalAlign=middle;resizable=0;points=[];" vertex="1" connectable="0" parent="dsQlrB5OTKfuEFtoTQ9H-20">
          <mxGeometry x="-0.2057" y="1" relative="1" as="geometry">
            <mxPoint x="1" y="-4" as="offset" />
          </mxGeometry>
        </mxCell>
        <mxCell id="dsQlrB5OTKfuEFtoTQ9H-22" style="edgeStyle=orthogonalEdgeStyle;rounded=0;orthogonalLoop=1;jettySize=auto;html=1;entryX=0.25;entryY=1;entryDx=0;entryDy=0;exitX=0;exitY=0.5;exitDx=0;exitDy=0;strokeWidth=2;" edge="1" parent="1" source="dsQlrB5OTKfuEFtoTQ9H-24" target="dsQlrB5OTKfuEFtoTQ9H-32">
          <mxGeometry relative="1" as="geometry">
            <Array as="points">
              <mxPoint x="39" y="550" />
              <mxPoint x="39" y="270" />
              <mxPoint x="119" y="270" />
            </Array>
          </mxGeometry>
        </mxCell>
        <mxCell id="dsQlrB5OTKfuEFtoTQ9H-23" value="Monitor" style="edgeLabel;html=1;align=center;verticalAlign=middle;resizable=0;points=[];" vertex="1" connectable="0" parent="dsQlrB5OTKfuEFtoTQ9H-22">
          <mxGeometry x="-0.5773" relative="1" as="geometry">
            <mxPoint as="offset" />
          </mxGeometry>
        </mxCell>
        <mxCell id="dsQlrB5OTKfuEFtoTQ9H-24" value="&lt;font style=&quot;font-size: 17px;&quot;&gt;&lt;b&gt;Environment&lt;/b&gt;&lt;/font&gt;" style="rounded=0;whiteSpace=wrap;html=1;fillColor=#d5e8d4;strokeColor=#82b366;" vertex="1" parent="1">
          <mxGeometry x="59" y="520" width="730" height="60" as="geometry" />
        </mxCell>
        <mxCell id="dsQlrB5OTKfuEFtoTQ9H-25" style="edgeStyle=orthogonalEdgeStyle;rounded=0;orthogonalLoop=1;jettySize=auto;html=1;exitX=0.25;exitY=1;exitDx=0;exitDy=0;entryX=0.075;entryY=0.003;entryDx=0;entryDy=0;entryPerimeter=0;strokeWidth=2;" edge="1" parent="1" source="dsQlrB5OTKfuEFtoTQ9H-6" target="dsQlrB5OTKfuEFtoTQ9H-24">
          <mxGeometry relative="1" as="geometry">
            <mxPoint x="112" y="519" as="targetPoint" />
          </mxGeometry>
        </mxCell>
        <mxCell id="dsQlrB5OTKfuEFtoTQ9H-26" value="Effect" style="edgeLabel;html=1;align=center;verticalAlign=middle;resizable=0;points=[];" vertex="1" connectable="0" parent="dsQlrB5OTKfuEFtoTQ9H-25">
          <mxGeometry x="-0.073" relative="1" as="geometry">
            <mxPoint as="offset" />
          </mxGeometry>
        </mxCell>
        <mxCell id="dsQlrB5OTKfuEFtoTQ9H-27" style="edgeStyle=orthogonalEdgeStyle;rounded=0;orthogonalLoop=1;jettySize=auto;html=1;exitX=0.25;exitY=1;exitDx=0;exitDy=0;entryX=0.842;entryY=-0.003;entryDx=0;entryDy=0;entryPerimeter=0;strokeWidth=2;" edge="1" parent="1" source="dsQlrB5OTKfuEFtoTQ9H-12" target="dsQlrB5OTKfuEFtoTQ9H-24">
          <mxGeometry relative="1" as="geometry">
            <mxPoint x="674.1599999999999" y="511.03999999999996" as="targetPoint" />
          </mxGeometry>
        </mxCell>
        <mxCell id="dsQlrB5OTKfuEFtoTQ9H-28" value="Effect" style="edgeLabel;html=1;align=center;verticalAlign=middle;resizable=0;points=[];" vertex="1" connectable="0" parent="dsQlrB5OTKfuEFtoTQ9H-27">
          <mxGeometry x="-0.0861" relative="1" as="geometry">
            <mxPoint as="offset" />
          </mxGeometry>
        </mxCell>
        <mxCell id="dsQlrB5OTKfuEFtoTQ9H-29" style="edgeStyle=orthogonalEdgeStyle;rounded=0;orthogonalLoop=1;jettySize=auto;html=1;exitX=0.5;exitY=1;exitDx=0;exitDy=0;entryX=0.691;entryY=0;entryDx=0;entryDy=0;entryPerimeter=0;strokeWidth=2;" edge="1" parent="1" source="dsQlrB5OTKfuEFtoTQ9H-11" target="dsQlrB5OTKfuEFtoTQ9H-24">
          <mxGeometry relative="1" as="geometry">
            <mxPoint x="563.2" y="509.03999999999996" as="targetPoint" />
          </mxGeometry>
        </mxCell>
        <mxCell id="dsQlrB5OTKfuEFtoTQ9H-30" value="Effect" style="edgeLabel;html=1;align=center;verticalAlign=middle;resizable=0;points=[];" vertex="1" connectable="0" parent="dsQlrB5OTKfuEFtoTQ9H-29">
          <mxGeometry x="-0.0783" relative="1" as="geometry">
            <mxPoint as="offset" />
          </mxGeometry>
        </mxCell>
        <mxCell id="dsQlrB5OTKfuEFtoTQ9H-31" style="edgeStyle=orthogonalEdgeStyle;rounded=0;orthogonalLoop=1;jettySize=auto;html=1;exitX=0.5;exitY=0;exitDx=0;exitDy=0;entryX=0;entryY=0.25;entryDx=0;entryDy=0;fillColor=#f8cecc;strokeColor=light-dark(#ff0800, #d7817e);strokeWidth=3;curved=1;" edge="1" parent="1" source="dsQlrB5OTKfuEFtoTQ9H-32" target="dsQlrB5OTKfuEFtoTQ9H-34">
          <mxGeometry relative="1" as="geometry" />
        </mxCell>
        <mxCell id="dsQlrB5OTKfuEFtoTQ9H-32" value="Monitor" style="rounded=1;whiteSpace=wrap;html=1;fillColor=#fad7ac;strokeColor=#b46504;fontSize=13;" vertex="1" parent="1">
          <mxGeometry x="89" y="180" width="120" height="60" as="geometry" />
        </mxCell>
        <mxCell id="dsQlrB5OTKfuEFtoTQ9H-33" style="edgeStyle=orthogonalEdgeStyle;rounded=0;orthogonalLoop=1;jettySize=auto;html=1;exitX=1;exitY=0.25;exitDx=0;exitDy=0;entryX=0;entryY=0.25;entryDx=0;entryDy=0;fillColor=#f8cecc;strokeColor=light-dark(#ff0800, #d7817e);strokeWidth=3;curved=1;" edge="1" parent="1" source="dsQlrB5OTKfuEFtoTQ9H-34" target="dsQlrB5OTKfuEFtoTQ9H-36">
          <mxGeometry relative="1" as="geometry" />
        </mxCell>
        <mxCell id="dsQlrB5OTKfuEFtoTQ9H-34" value="Analize" style="rounded=1;whiteSpace=wrap;html=1;fillColor=#fad7ac;strokeColor=#b46504;fontSize=13;" vertex="1" parent="1">
          <mxGeometry x="244" y="90" width="120" height="60" as="geometry" />
        </mxCell>
        <mxCell id="dsQlrB5OTKfuEFtoTQ9H-35" style="edgeStyle=orthogonalEdgeStyle;rounded=0;orthogonalLoop=1;jettySize=auto;html=1;exitX=1;exitY=0.25;exitDx=0;exitDy=0;entryX=0.5;entryY=0;entryDx=0;entryDy=0;fillColor=#f8cecc;strokeColor=light-dark(#ff0800, #d7817e);strokeWidth=3;curved=1;" edge="1" parent="1" source="dsQlrB5OTKfuEFtoTQ9H-36" target="dsQlrB5OTKfuEFtoTQ9H-38">
          <mxGeometry relative="1" as="geometry" />
        </mxCell>
        <mxCell id="dsQlrB5OTKfuEFtoTQ9H-36" value="Plan" style="rounded=1;whiteSpace=wrap;html=1;fillColor=#fad7ac;strokeColor=#b46504;fontSize=13;" vertex="1" parent="1">
          <mxGeometry x="484.00000000000006" y="90" width="120" height="60" as="geometry" />
        </mxCell>
        <mxCell id="dsQlrB5OTKfuEFtoTQ9H-37" style="edgeStyle=orthogonalEdgeStyle;rounded=0;orthogonalLoop=1;jettySize=auto;html=1;exitX=0;exitY=0.5;exitDx=0;exitDy=0;fillColor=#f8cecc;strokeColor=light-dark(#ff0800, #d7817e);strokeWidth=3;curved=1;" edge="1" parent="1">
          <mxGeometry relative="1" as="geometry">
            <mxPoint x="649" y="215.5" as="sourcePoint" />
            <mxPoint x="209" y="215.5" as="targetPoint" />
          </mxGeometry>
        </mxCell>
        <mxCell id="dsQlrB5OTKfuEFtoTQ9H-38" value="Execute" style="rounded=1;whiteSpace=wrap;html=1;fillColor=#fad7ac;strokeColor=#b46504;fontSize=13;" vertex="1" parent="1">
          <mxGeometry x="649" y="180" width="120" height="60" as="geometry" />
        </mxCell>
        <mxCell id="dsQlrB5OTKfuEFtoTQ9H-39" style="edgeStyle=orthogonalEdgeStyle;rounded=0;orthogonalLoop=1;jettySize=auto;html=1;exitX=0.5;exitY=1;exitDx=0;exitDy=0;entryX=0.89;entryY=-0.012;entryDx=0;entryDy=0;entryPerimeter=0;strokeWidth=2;" edge="1" parent="1" source="dsQlrB5OTKfuEFtoTQ9H-38" target="dsQlrB5OTKfuEFtoTQ9H-5">
          <mxGeometry relative="1" as="geometry" />
        </mxCell>
        <mxCell id="dsQlrB5OTKfuEFtoTQ9H-40" value="Adapt" style="edgeLabel;html=1;align=center;verticalAlign=middle;resizable=0;points=[];" vertex="1" connectable="0" parent="dsQlrB5OTKfuEFtoTQ9H-39">
          <mxGeometry x="-0.2256" y="1" relative="1" as="geometry">
            <mxPoint as="offset" />
          </mxGeometry>
        </mxCell>
        <mxCell id="dsQlrB5OTKfuEFtoTQ9H-41" value="Goals" style="rounded=0;whiteSpace=wrap;html=1;fontSize=13;" vertex="1" parent="1">
          <mxGeometry x="509.00000000000006" y="160" width="70" height="30" as="geometry" />
        </mxCell>
        <mxCell id="dsQlrB5OTKfuEFtoTQ9H-42" value="Managed System" style="text;html=1;align=center;verticalAlign=middle;whiteSpace=wrap;rounded=0;strokeWidth=1;fontStyle=1;fontSize=17;" vertex="1" parent="1">
          <mxGeometry x="344" y="290" width="160" height="30" as="geometry" />
        </mxCell>
        <mxCell id="dsQlrB5OTKfuEFtoTQ9H-43" value="Managing System" style="text;html=1;align=center;verticalAlign=middle;whiteSpace=wrap;rounded=0;strokeWidth=1;fontStyle=1;fontSize=17;" vertex="1" parent="1">
          <mxGeometry x="344" y="50" width="160" height="30" as="geometry" />
        </mxCell>
        <mxCell id="dsQlrB5OTKfuEFtoTQ9H-44" value="" style="rounded=0;whiteSpace=wrap;html=1;fillColor=#dae8fc;strokeColor=#6c8ebf;" vertex="1" parent="1">
          <mxGeometry x="39" y="608" width="20" height="10" as="geometry" />
        </mxCell>
        <mxCell id="dsQlrB5OTKfuEFtoTQ9H-45" value="Actuators" style="text;html=1;align=center;verticalAlign=middle;resizable=0;points=[];autosize=1;strokeColor=none;fillColor=none;" vertex="1" parent="1">
          <mxGeometry x="59" y="598" width="70" height="30" as="geometry" />
        </mxCell>
        <mxCell id="dsQlrB5OTKfuEFtoTQ9H-46" value="" style="rounded=0;whiteSpace=wrap;html=1;fillColor=#fff2cc;strokeColor=#d6b656;" vertex="1" parent="1">
          <mxGeometry x="154" y="608" width="20" height="10" as="geometry" />
        </mxCell>
        <mxCell id="dsQlrB5OTKfuEFtoTQ9H-47" value="Sensors" style="text;html=1;align=center;verticalAlign=middle;resizable=0;points=[];autosize=1;strokeColor=none;fillColor=none;" vertex="1" parent="1">
          <mxGeometry x="174" y="598" width="70" height="30" as="geometry" />
        </mxCell>
        <mxCell id="dsQlrB5OTKfuEFtoTQ9H-48" value="" style="rounded=0;whiteSpace=wrap;html=1;fillColor=#fad7ac;strokeColor=#b46504;" vertex="1" parent="1">
          <mxGeometry x="259" y="608" width="20" height="10" as="geometry" />
        </mxCell>
        <mxCell id="dsQlrB5OTKfuEFtoTQ9H-49" value="MAPE-K Loop" style="text;html=1;align=center;verticalAlign=middle;resizable=0;points=[];autosize=1;strokeColor=none;fillColor=none;" vertex="1" parent="1">
          <mxGeometry x="289.06" y="598" width="100" height="30" as="geometry" />
        </mxCell>
        <mxCell id="dsQlrB5OTKfuEFtoTQ9H-50" style="edgeStyle=orthogonalEdgeStyle;rounded=0;orthogonalLoop=1;jettySize=auto;html=1;exitX=1;exitY=0.5;exitDx=0;exitDy=0;entryX=0;entryY=1;entryDx=0;entryDy=0;entryPerimeter=0;strokeColor=light-dark(#ff0000, #ededed);" edge="1" parent="1" source="dsQlrB5OTKfuEFtoTQ9H-48" target="dsQlrB5OTKfuEFtoTQ9H-49">
          <mxGeometry relative="1" as="geometry" />
        </mxCell>
      </root>
    </mxGraphModel>
  </diagram>
  <diagram id="Jifhf0ZgO5v7RMULBogA" name="Domain">
    <mxGraphModel dx="844" dy="788" grid="1" gridSize="10" guides="1" tooltips="1" connect="1" arrows="1" fold="1" page="1" pageScale="1" pageWidth="827" pageHeight="1169" math="0" shadow="0">
      <root>
        <mxCell id="0" />
        <mxCell id="1" parent="0" />
        <mxCell id="58nL1p40pWrhp6DG0ThI-6" value="&lt;p style=&quot;margin: 4px 0px 0px; text-align: center;&quot;&gt;&lt;b style=&quot;&quot;&gt;GeoZone&lt;/b&gt;&lt;/p&gt;&lt;hr size=&quot;1&quot; style=&quot;border-style:solid;&quot;&gt;&lt;p style=&quot;margin:0px;margin-left:8px;&quot;&gt;id&lt;/p&gt;&lt;p style=&quot;margin:0px;margin-left:8px;&quot;&gt;name&lt;/p&gt;&lt;p style=&quot;margin:0px;margin-left:8px;&quot;&gt;category = {restricted, excluded}&lt;/p&gt;&lt;p style=&quot;margin:0px;margin-left:8px;&quot;&gt;status = {active, inactive}&lt;/p&gt;&lt;p style=&quot;margin:0px;margin-left:8px;&quot;&gt;type = {circular, polygonal}&lt;/p&gt;&lt;p style=&quot;margin:0px;margin-left:8px;&quot;&gt;altitude start level&lt;/p&gt;&lt;p style=&quot;margin:0px;margin-left:8px;&quot;&gt;altitude end level&lt;/p&gt;" style="verticalAlign=top;align=left;overflow=fill;html=1;whiteSpace=wrap;fillColor=#fff2cc;strokeColor=#d6b656;" vertex="1" parent="1">
          <mxGeometry x="80" y="240" width="190" height="140" as="geometry" />
        </mxCell>
        <mxCell id="9x4WywznsmxucqyviloC-13" style="edgeStyle=orthogonalEdgeStyle;rounded=0;orthogonalLoop=1;jettySize=auto;html=1;exitX=0;exitY=0.75;exitDx=0;exitDy=0;entryX=0;entryY=0.25;entryDx=0;entryDy=0;" edge="1" parent="1" source="58nL1p40pWrhp6DG0ThI-8" target="58nL1p40pWrhp6DG0ThI-20">
          <mxGeometry relative="1" as="geometry">
            <Array as="points">
              <mxPoint x="350" y="368" />
              <mxPoint x="350" y="470" />
              <mxPoint x="380" y="470" />
            </Array>
          </mxGeometry>
        </mxCell>
        <mxCell id="9x4WywznsmxucqyviloC-14" value="belongs to" style="edgeLabel;html=1;align=center;verticalAlign=middle;resizable=0;points=[];" vertex="1" connectable="0" parent="9x4WywznsmxucqyviloC-13">
          <mxGeometry x="0.1434" y="2" relative="1" as="geometry">
            <mxPoint x="28" y="-14" as="offset" />
          </mxGeometry>
        </mxCell>
        <mxCell id="58nL1p40pWrhp6DG0ThI-8" value="&lt;p style=&quot;margin: 4px 0px 0px; text-align: center;&quot;&gt;&lt;b style=&quot;&quot;&gt;Authorization&lt;/b&gt;&lt;/p&gt;&lt;hr size=&quot;1&quot; style=&quot;border-style:solid;&quot;&gt;&lt;p style=&quot;margin:0px;margin-left:8px;&quot;&gt;id&lt;/p&gt;&lt;p style=&quot;margin:0px;margin-left:8px;&quot;&gt;status = {granted, denied, revoked, expired}&lt;/p&gt;&lt;p style=&quot;margin:0px;margin-left:8px;&quot;&gt;start timestamp&lt;/p&gt;&lt;p style=&quot;margin:0px;margin-left:8px;&quot;&gt;end timestamp&lt;/p&gt;&lt;p style=&quot;margin:0px;margin-left:8px;&quot;&gt;revocation timestamp&amp;nbsp;&lt;/p&gt;&lt;p style=&quot;margin:0px;margin-left:8px;&quot;&gt;denial reason&lt;/p&gt;" style="verticalAlign=top;align=left;overflow=fill;html=1;whiteSpace=wrap;fillColor=#fff2cc;strokeColor=#d6b656;" vertex="1" parent="1">
          <mxGeometry x="380" y="270" width="250" height="130" as="geometry" />
        </mxCell>
        <mxCell id="58nL1p40pWrhp6DG0ThI-9" value="&lt;p style=&quot;margin: 4px 0px 0px; text-align: center;&quot;&gt;&lt;b style=&quot;&quot;&gt;Airspace&lt;/b&gt;&lt;/p&gt;&lt;hr size=&quot;1&quot; style=&quot;border-style:solid;&quot;&gt;&lt;p style=&quot;margin:0px;margin-left:8px;&quot;&gt;length&lt;/p&gt;&lt;p style=&quot;margin:0px;margin-left:8px;&quot;&gt;width&lt;/p&gt;&lt;p style=&quot;margin:0px;margin-left:8px;&quot;&gt;max altitude&lt;/p&gt;&lt;p style=&quot;margin:0px;margin-left:8px;&quot;&gt;&lt;span style=&quot;background-color: transparent; color: light-dark(rgb(0, 0, 0), rgb(255, 255, 255));&quot;&gt;center&lt;/span&gt;&lt;/p&gt;" style="verticalAlign=top;align=left;overflow=fill;html=1;whiteSpace=wrap;fillColor=#fff2cc;strokeColor=#d6b656;" vertex="1" parent="1">
          <mxGeometry x="230" y="90" width="120" height="100" as="geometry" />
        </mxCell>
        <mxCell id="58nL1p40pWrhp6DG0ThI-10" value="&lt;p style=&quot;margin: 4px 0px 0px; text-align: center;&quot;&gt;&lt;b style=&quot;&quot;&gt;Support Point&lt;/b&gt;&lt;/p&gt;&lt;hr size=&quot;1&quot; style=&quot;border-style:solid;&quot;&gt;&lt;p style=&quot;margin:0px;margin-left:8px;&quot;&gt;id&lt;/p&gt;&lt;p style=&quot;margin:0px;margin-left:8px;&quot;&gt;name&lt;/p&gt;&lt;p style=&quot;margin:0px;margin-left:8px;&quot;&gt;latitude&lt;/p&gt;&lt;p style=&quot;margin:0px;margin-left:8px;&quot;&gt;longitude&lt;/p&gt;" style="verticalAlign=top;align=left;overflow=fill;html=1;whiteSpace=wrap;fillColor=#fff2cc;strokeColor=#d6b656;" vertex="1" parent="1">
          <mxGeometry x="80" y="90" width="110" height="100" as="geometry" />
        </mxCell>
        <mxCell id="58nL1p40pWrhp6DG0ThI-11" value="&lt;p style=&quot;margin: 4px 0px 0px; text-align: center;&quot;&gt;&lt;b style=&quot;&quot;&gt;Circular&lt;/b&gt;&lt;/p&gt;&lt;hr size=&quot;1&quot; style=&quot;border-style:solid;&quot;&gt;&lt;p style=&quot;margin:0px;margin-left:8px;&quot;&gt;center&lt;/p&gt;&lt;p style=&quot;margin:0px;margin-left:8px;&quot;&gt;radius&lt;/p&gt;" style="verticalAlign=top;align=left;overflow=fill;html=1;whiteSpace=wrap;fillColor=#fff2cc;strokeColor=#d6b656;" vertex="1" parent="1">
          <mxGeometry x="80" y="430" width="90" height="70" as="geometry" />
        </mxCell>
        <mxCell id="58nL1p40pWrhp6DG0ThI-12" value="&lt;p style=&quot;margin: 4px 0px 0px; text-align: center;&quot;&gt;&lt;b&gt;Polygonal&lt;/b&gt;&lt;/p&gt;&lt;hr size=&quot;1&quot; style=&quot;border-style:solid;&quot;&gt;&lt;p style=&quot;margin:0px;margin-left:8px;&quot;&gt;perimeter&lt;/p&gt;" style="verticalAlign=top;align=left;overflow=fill;html=1;whiteSpace=wrap;fillColor=#fff2cc;strokeColor=#d6b656;" vertex="1" parent="1">
          <mxGeometry x="180" y="430" width="90" height="70" as="geometry" />
        </mxCell>
        <mxCell id="58nL1p40pWrhp6DG0ThI-17" value="&lt;p style=&quot;margin: 4px 0px 0px; text-align: center;&quot;&gt;&lt;b style=&quot;&quot;&gt;Thunderstorm Cell&lt;/b&gt;&lt;/p&gt;&lt;hr size=&quot;1&quot; style=&quot;border-style:solid;&quot;&gt;&lt;p style=&quot;margin:0px;margin-left:8px;&quot;&gt;max size&lt;/p&gt;" style="verticalAlign=top;align=left;overflow=fill;html=1;whiteSpace=wrap;fillColor=#fff2cc;strokeColor=#d6b656;" vertex="1" parent="1">
          <mxGeometry x="380" y="90" width="140" height="60" as="geometry" />
        </mxCell>
        <mxCell id="58nL1p40pWrhp6DG0ThI-18" value="&lt;p style=&quot;margin: 4px 0px 0px; text-align: center;&quot;&gt;&lt;b style=&quot;&quot;&gt;Wind&lt;/b&gt;&lt;/p&gt;&lt;hr size=&quot;1&quot; style=&quot;border-style:solid;&quot;&gt;&lt;p style=&quot;margin:0px;margin-left:8px;&quot;&gt;direction&lt;/p&gt;&lt;p style=&quot;margin:0px;margin-left:8px;&quot;&gt;intensity&lt;/p&gt;" style="verticalAlign=top;align=left;overflow=fill;html=1;whiteSpace=wrap;fillColor=#fff2cc;strokeColor=#d6b656;" vertex="1" parent="1">
          <mxGeometry x="600" y="90" width="80" height="70" as="geometry" />
        </mxCell>
        <mxCell id="58nL1p40pWrhp6DG0ThI-19" value="&lt;p style=&quot;margin: 4px 0px 0px; text-align: center;&quot;&gt;&lt;b&gt;Rain Cell&lt;/b&gt;&lt;/p&gt;&lt;hr size=&quot;1&quot; style=&quot;border-style:solid;&quot;&gt;&lt;p style=&quot;margin:0px;margin-left:8px;&quot;&gt;perimeter&lt;/p&gt;" style="verticalAlign=top;align=left;overflow=fill;html=1;whiteSpace=wrap;fillColor=#fff2cc;strokeColor=#d6b656;" vertex="1" parent="1">
          <mxGeometry x="405" y="188.5" width="90" height="60" as="geometry" />
        </mxCell>
        <mxCell id="9x4WywznsmxucqyviloC-19" style="edgeStyle=orthogonalEdgeStyle;rounded=0;orthogonalLoop=1;jettySize=auto;html=1;exitX=0;exitY=0.75;exitDx=0;exitDy=0;entryX=1;entryY=0.5;entryDx=0;entryDy=0;endArrow=none;endFill=0;" edge="1" parent="1" source="58nL1p40pWrhp6DG0ThI-20" target="58nL1p40pWrhp6DG0ThI-21">
          <mxGeometry relative="1" as="geometry">
            <Array as="points">
              <mxPoint x="350" y="550" />
              <mxPoint x="350" y="730" />
            </Array>
          </mxGeometry>
        </mxCell>
        <mxCell id="9x4WywznsmxucqyviloC-20" value="refers to" style="edgeLabel;html=1;align=center;verticalAlign=middle;resizable=0;points=[];" vertex="1" connectable="0" parent="9x4WywznsmxucqyviloC-19">
          <mxGeometry x="-0.2154" y="1" relative="1" as="geometry">
            <mxPoint x="-1" y="9" as="offset" />
          </mxGeometry>
        </mxCell>
        <mxCell id="58nL1p40pWrhp6DG0ThI-20" value="&lt;p style=&quot;margin: 4px 0px 0px; text-align: center;&quot;&gt;&lt;b style=&quot;&quot;&gt;UAV&lt;/b&gt;&lt;/p&gt;&lt;hr size=&quot;1&quot; style=&quot;border-style:solid;&quot;&gt;&lt;p style=&quot;margin:0px;margin-left:8px;&quot;&gt;id&lt;/p&gt;&lt;p style=&quot;margin:0px;margin-left:8px;&quot;&gt;name&lt;/p&gt;&lt;p style=&quot;margin:0px;margin-left:8px;&quot;&gt;model&lt;/p&gt;&lt;p style=&quot;margin:0px;margin-left:8px;&quot;&gt;owner&lt;/p&gt;&lt;p style=&quot;margin:0px;margin-left:8px;&quot;&gt;source coordinate&lt;/p&gt;&lt;p style=&quot;margin:0px;margin-left:8px;&quot;&gt;destination coordinate&lt;/p&gt;&lt;p style=&quot;margin:0px;margin-left:8px;&quot;&gt;battery capacity&lt;/p&gt;&lt;p style=&quot;margin:0px;margin-left:8px;&quot;&gt;mission category = (specific, certified}&lt;/p&gt;" style="verticalAlign=top;align=left;overflow=fill;html=1;whiteSpace=wrap;fillColor=#fff2cc;strokeColor=#d6b656;" vertex="1" parent="1">
          <mxGeometry x="382" y="430" width="248" height="160" as="geometry" />
        </mxCell>
        <mxCell id="bQyN1WdFYVQGxZ2X48XD-40" style="edgeStyle=orthogonalEdgeStyle;rounded=0;orthogonalLoop=1;jettySize=auto;html=1;exitX=0.5;exitY=1;exitDx=0;exitDy=0;entryX=0.25;entryY=1;entryDx=0;entryDy=0;" edge="1" parent="1" source="58nL1p40pWrhp6DG0ThI-21" target="bQyN1WdFYVQGxZ2X48XD-26">
          <mxGeometry relative="1" as="geometry" />
        </mxCell>
        <mxCell id="bQyN1WdFYVQGxZ2X48XD-41" value="use" style="edgeLabel;html=1;align=center;verticalAlign=middle;resizable=0;points=[];" vertex="1" connectable="0" parent="bQyN1WdFYVQGxZ2X48XD-40">
          <mxGeometry x="-0.1755" y="2" relative="1" as="geometry">
            <mxPoint x="-2" y="-8" as="offset" />
          </mxGeometry>
        </mxCell>
        <mxCell id="58nL1p40pWrhp6DG0ThI-21" value="&lt;p style=&quot;margin: 4px 0px 0px; text-align: center;&quot;&gt;&lt;b style=&quot;&quot;&gt;UAV System&lt;/b&gt;&lt;/p&gt;&lt;hr size=&quot;1&quot; style=&quot;border-style:solid;&quot;&gt;&lt;p style=&quot;margin:0px;margin-left:8px;&quot;&gt;position&lt;/p&gt;&lt;p style=&quot;margin:0px;margin-left:8px;&quot;&gt;battery level&lt;/p&gt;&lt;p style=&quot;margin:0px;margin-left:8px;&quot;&gt;flight plan&lt;/p&gt;&lt;p style=&quot;margin:0px;margin-left:8px;&quot;&gt;separation volume&lt;/p&gt;&lt;p style=&quot;margin:0px;margin-left:8px;&quot;&gt;conflict volume&lt;/p&gt;&lt;p style=&quot;margin:0px;margin-left:8px;&quot;&gt;radio&lt;/p&gt;&lt;p style=&quot;margin:0px;margin-left:8px;&quot;&gt;gps&lt;/p&gt;&lt;p style=&quot;margin:0px;margin-left:8px;&quot;&gt;altimeter&lt;/p&gt;&lt;p style=&quot;margin:0px;margin-left:8px;&quot;&gt;motor&lt;/p&gt;&lt;p style=&quot;margin:0px;margin-left:8px;&quot;&gt;wifi module&lt;/p&gt;" style="verticalAlign=top;align=left;overflow=fill;html=1;whiteSpace=wrap;fillColor=#ffe6cc;strokeColor=#d79b00;" vertex="1" parent="1">
          <mxGeometry x="70" y="640" width="240" height="180" as="geometry" />
        </mxCell>
        <mxCell id="bQyN1WdFYVQGxZ2X48XD-15" style="edgeStyle=orthogonalEdgeStyle;rounded=0;orthogonalLoop=1;jettySize=auto;html=1;exitX=0.75;exitY=0;exitDx=0;exitDy=0;entryX=0.5;entryY=1;entryDx=0;entryDy=0;" edge="1" parent="1" source="58nL1p40pWrhp6DG0ThI-22" target="58nL1p40pWrhp6DG0ThI-18">
          <mxGeometry relative="1" as="geometry">
            <Array as="points" />
          </mxGeometry>
        </mxCell>
        <mxCell id="bQyN1WdFYVQGxZ2X48XD-37" value="simulates" style="edgeLabel;html=1;align=center;verticalAlign=middle;resizable=0;points=[];" vertex="1" connectable="0" parent="bQyN1WdFYVQGxZ2X48XD-15">
          <mxGeometry x="-0.1228" y="1" relative="1" as="geometry">
            <mxPoint x="31" y="1" as="offset" />
          </mxGeometry>
        </mxCell>
        <mxCell id="58nL1p40pWrhp6DG0ThI-22" value="&lt;p style=&quot;margin: 4px 0px 0px; text-align: center;&quot;&gt;&lt;b style=&quot;&quot;&gt;Weather Information Service&lt;/b&gt;&lt;/p&gt;&lt;hr size=&quot;1&quot; style=&quot;border-style:solid;&quot;&gt;&lt;p style=&quot;margin:0px;margin-left:8px;&quot;&gt;url&lt;/p&gt;" style="verticalAlign=top;align=left;overflow=fill;html=1;whiteSpace=wrap;fillColor=#d5e8d4;strokeColor=#82b366;" vertex="1" parent="1">
          <mxGeometry x="520" y="188.5" width="160" height="63" as="geometry" />
        </mxCell>
        <mxCell id="bQyN1WdFYVQGxZ2X48XD-10" style="edgeStyle=orthogonalEdgeStyle;rounded=0;orthogonalLoop=1;jettySize=auto;html=1;exitX=0;exitY=0.25;exitDx=0;exitDy=0;entryX=0;entryY=0.5;entryDx=0;entryDy=0;" edge="1" parent="1" source="58nL1p40pWrhp6DG0ThI-23" target="58nL1p40pWrhp6DG0ThI-6">
          <mxGeometry relative="1" as="geometry" />
        </mxCell>
        <mxCell id="bQyN1WdFYVQGxZ2X48XD-34" value="handles" style="edgeLabel;html=1;align=center;verticalAlign=middle;resizable=0;points=[];" vertex="1" connectable="0" parent="bQyN1WdFYVQGxZ2X48XD-10">
          <mxGeometry x="-0.7667" y="1" relative="1" as="geometry">
            <mxPoint y="-10" as="offset" />
          </mxGeometry>
        </mxCell>
        <mxCell id="bQyN1WdFYVQGxZ2X48XD-11" style="edgeStyle=orthogonalEdgeStyle;rounded=0;orthogonalLoop=1;jettySize=auto;html=1;exitX=0;exitY=0.75;exitDx=0;exitDy=0;entryX=0;entryY=0.5;entryDx=0;entryDy=0;" edge="1" parent="1" source="58nL1p40pWrhp6DG0ThI-23" target="58nL1p40pWrhp6DG0ThI-10">
          <mxGeometry relative="1" as="geometry">
            <Array as="points">
              <mxPoint x="50" y="576" />
              <mxPoint x="50" y="140" />
            </Array>
          </mxGeometry>
        </mxCell>
        <mxCell id="bQyN1WdFYVQGxZ2X48XD-35" value="handles" style="edgeLabel;html=1;align=center;verticalAlign=middle;resizable=0;points=[];" vertex="1" connectable="0" parent="bQyN1WdFYVQGxZ2X48XD-11">
          <mxGeometry x="-0.8381" y="-1" relative="1" as="geometry">
            <mxPoint y="-8" as="offset" />
          </mxGeometry>
        </mxCell>
        <mxCell id="58nL1p40pWrhp6DG0ThI-23" value="&lt;p style=&quot;margin: 4px 0px 0px; text-align: center;&quot;&gt;&lt;b style=&quot;&quot;&gt;Geo-Awareness Service&lt;/b&gt;&lt;/p&gt;&lt;hr size=&quot;1&quot; style=&quot;border-style:solid;&quot;&gt;&lt;p style=&quot;margin:0px;margin-left:8px;&quot;&gt;url&lt;/p&gt;" style="verticalAlign=top;align=left;overflow=fill;html=1;whiteSpace=wrap;fillColor=#d5e8d4;strokeColor=#82b366;" vertex="1" parent="1">
          <mxGeometry x="140" y="528.5" width="130" height="63" as="geometry" />
        </mxCell>
        <mxCell id="bQyN1WdFYVQGxZ2X48XD-21" style="edgeStyle=orthogonalEdgeStyle;rounded=0;orthogonalLoop=1;jettySize=auto;html=1;exitX=0.5;exitY=0;exitDx=0;exitDy=0;" edge="1" parent="1" source="58nL1p40pWrhp6DG0ThI-24" target="58nL1p40pWrhp6DG0ThI-20">
          <mxGeometry relative="1" as="geometry">
            <Array as="points">
              <mxPoint x="450" y="620" />
              <mxPoint x="502" y="620" />
            </Array>
          </mxGeometry>
        </mxCell>
        <mxCell id="bQyN1WdFYVQGxZ2X48XD-39" value="handles" style="edgeLabel;html=1;align=center;verticalAlign=middle;resizable=0;points=[];" vertex="1" connectable="0" parent="bQyN1WdFYVQGxZ2X48XD-21">
          <mxGeometry x="0.0423" y="3" relative="1" as="geometry">
            <mxPoint x="-12" y="-7" as="offset" />
          </mxGeometry>
        </mxCell>
        <mxCell id="58nL1p40pWrhp6DG0ThI-24" value="&lt;p style=&quot;margin: 4px 0px 0px; text-align: center;&quot;&gt;&lt;b style=&quot;&quot;&gt;Network Identification Service&lt;/b&gt;&lt;/p&gt;&lt;hr size=&quot;1&quot; style=&quot;border-style:solid;&quot;&gt;&lt;p style=&quot;margin:0px;margin-left:8px;&quot;&gt;url&lt;/p&gt;" style="verticalAlign=top;align=left;overflow=fill;html=1;whiteSpace=wrap;fillColor=#d5e8d4;strokeColor=#82b366;" vertex="1" parent="1">
          <mxGeometry x="380" y="640" width="140" height="63" as="geometry" />
        </mxCell>
        <mxCell id="58nL1p40pWrhp6DG0ThI-25" value="&lt;p style=&quot;margin: 4px 0px 0px; text-align: center;&quot;&gt;&lt;b style=&quot;&quot;&gt;Simulation Platform&lt;/b&gt;&lt;/p&gt;&lt;hr size=&quot;1&quot; style=&quot;border-style:solid;&quot;&gt;&lt;p style=&quot;margin:0px;margin-left:8px;&quot;&gt;url&lt;/p&gt;" style="verticalAlign=top;align=left;overflow=fill;html=1;whiteSpace=wrap;fillColor=#f8cecc;strokeColor=#b85450;" vertex="1" parent="1">
          <mxGeometry x="382" y="760" width="110" height="60" as="geometry" />
        </mxCell>
        <mxCell id="bQyN1WdFYVQGxZ2X48XD-20" style="edgeStyle=orthogonalEdgeStyle;rounded=0;orthogonalLoop=1;jettySize=auto;html=1;entryX=1;entryY=0.5;entryDx=0;entryDy=0;" edge="1" parent="1" source="58nL1p40pWrhp6DG0ThI-26" target="58nL1p40pWrhp6DG0ThI-8">
          <mxGeometry relative="1" as="geometry">
            <Array as="points">
              <mxPoint x="660" y="335" />
            </Array>
          </mxGeometry>
        </mxCell>
        <mxCell id="bQyN1WdFYVQGxZ2X48XD-38" value="handles" style="edgeLabel;html=1;align=center;verticalAlign=middle;resizable=0;points=[];" vertex="1" connectable="0" parent="bQyN1WdFYVQGxZ2X48XD-20">
          <mxGeometry x="-0.4743" relative="1" as="geometry">
            <mxPoint x="-30" y="65" as="offset" />
          </mxGeometry>
        </mxCell>
        <mxCell id="58nL1p40pWrhp6DG0ThI-26" value="&lt;p style=&quot;margin: 4px 0px 0px; text-align: center;&quot;&gt;&lt;b style=&quot;&quot;&gt;UAS Flight Authorization Service&lt;/b&gt;&lt;/p&gt;&lt;hr size=&quot;1&quot; style=&quot;border-style:solid;&quot;&gt;&lt;p style=&quot;margin:0px;margin-left:8px;&quot;&gt;url&lt;/p&gt;" style="verticalAlign=top;align=left;overflow=fill;html=1;whiteSpace=wrap;fillColor=#d5e8d4;strokeColor=#82b366;" vertex="1" parent="1">
          <mxGeometry x="540" y="640" width="140" height="63" as="geometry" />
        </mxCell>
        <mxCell id="bQyN1WdFYVQGxZ2X48XD-1" value="" style="endArrow=none;html=1;endSize=12;startArrow=diamondThin;startSize=14;startFill=1;edgeStyle=orthogonalEdgeStyle;align=left;verticalAlign=bottom;rounded=0;exitX=0.5;exitY=1;exitDx=0;exitDy=0;entryX=0.5;entryY=0;entryDx=0;entryDy=0;endFill=0;" edge="1" parent="1" source="58nL1p40pWrhp6DG0ThI-17" target="58nL1p40pWrhp6DG0ThI-19">
          <mxGeometry x="-0.4595" y="10" relative="1" as="geometry">
            <mxPoint x="280" y="360" as="sourcePoint" />
            <mxPoint x="440" y="360" as="targetPoint" />
            <mxPoint as="offset" />
          </mxGeometry>
        </mxCell>
        <mxCell id="bQyN1WdFYVQGxZ2X48XD-2" value="" style="endArrow=none;html=1;endSize=12;startArrow=diamondThin;startSize=14;startFill=0;edgeStyle=orthogonalEdgeStyle;align=left;verticalAlign=bottom;rounded=0;exitX=0.25;exitY=0;exitDx=0;exitDy=0;entryX=0.5;entryY=0;entryDx=0;entryDy=0;endFill=0;" edge="1" parent="1" source="58nL1p40pWrhp6DG0ThI-9" target="58nL1p40pWrhp6DG0ThI-18">
          <mxGeometry x="-1" y="3" relative="1" as="geometry">
            <mxPoint x="330" y="380" as="sourcePoint" />
            <mxPoint x="490" y="380" as="targetPoint" />
            <Array as="points">
              <mxPoint x="270" y="50" />
              <mxPoint x="660" y="50" />
            </Array>
          </mxGeometry>
        </mxCell>
        <mxCell id="bQyN1WdFYVQGxZ2X48XD-3" value="" style="endArrow=none;html=1;endSize=12;startArrow=diamondThin;startSize=14;startFill=0;edgeStyle=orthogonalEdgeStyle;align=left;verticalAlign=bottom;rounded=0;exitX=0.75;exitY=0;exitDx=0;exitDy=0;entryX=0.5;entryY=0;entryDx=0;entryDy=0;endFill=0;" edge="1" parent="1" source="58nL1p40pWrhp6DG0ThI-9" target="58nL1p40pWrhp6DG0ThI-17">
          <mxGeometry x="-1" y="3" relative="1" as="geometry">
            <mxPoint x="300" y="80" as="sourcePoint" />
            <mxPoint x="677" y="100" as="targetPoint" />
            <Array as="points">
              <mxPoint x="330" y="60" />
              <mxPoint x="470" y="60" />
            </Array>
          </mxGeometry>
        </mxCell>
        <mxCell id="bQyN1WdFYVQGxZ2X48XD-5" value="" style="endArrow=none;html=1;endSize=12;startArrow=diamondThin;startSize=14;startFill=0;edgeStyle=orthogonalEdgeStyle;align=left;verticalAlign=bottom;rounded=0;exitX=0;exitY=0.5;exitDx=0;exitDy=0;entryX=1;entryY=0.5;entryDx=0;entryDy=0;endFill=0;" edge="1" parent="1" source="58nL1p40pWrhp6DG0ThI-9" target="58nL1p40pWrhp6DG0ThI-10">
          <mxGeometry x="-1" y="3" relative="1" as="geometry">
            <mxPoint x="340" y="80" as="sourcePoint" />
            <mxPoint x="527" y="80" as="targetPoint" />
            <Array as="points" />
          </mxGeometry>
        </mxCell>
        <mxCell id="bQyN1WdFYVQGxZ2X48XD-6" value="" style="endArrow=none;html=1;endSize=12;startArrow=diamondThin;startSize=14;startFill=0;edgeStyle=orthogonalEdgeStyle;align=left;verticalAlign=bottom;rounded=0;exitX=0.25;exitY=1;exitDx=0;exitDy=0;entryX=0.5;entryY=0;entryDx=0;entryDy=0;endFill=0;" edge="1" parent="1" source="58nL1p40pWrhp6DG0ThI-9" target="58nL1p40pWrhp6DG0ThI-6">
          <mxGeometry x="-1" y="3" relative="1" as="geometry">
            <mxPoint x="260" y="140" as="sourcePoint" />
            <mxPoint x="210" y="140" as="targetPoint" />
            <Array as="points">
              <mxPoint x="260" y="220" />
              <mxPoint x="175" y="220" />
            </Array>
          </mxGeometry>
        </mxCell>
        <mxCell id="bQyN1WdFYVQGxZ2X48XD-7" value="" style="endArrow=block;endFill=0;endSize=12;html=1;rounded=0;exitX=0.5;exitY=0;exitDx=0;exitDy=0;entryX=0.5;entryY=1;entryDx=0;entryDy=0;" edge="1" parent="1" source="58nL1p40pWrhp6DG0ThI-11" target="58nL1p40pWrhp6DG0ThI-6">
          <mxGeometry width="160" relative="1" as="geometry">
            <mxPoint x="360" y="380" as="sourcePoint" />
            <mxPoint x="520" y="380" as="targetPoint" />
            <Array as="points">
              <mxPoint x="125" y="410" />
              <mxPoint x="175" y="410" />
            </Array>
          </mxGeometry>
        </mxCell>
        <mxCell id="bQyN1WdFYVQGxZ2X48XD-8" value="" style="endArrow=block;endFill=0;endSize=12;html=1;rounded=0;exitX=0.5;exitY=0;exitDx=0;exitDy=0;entryX=0.5;entryY=1;entryDx=0;entryDy=0;" edge="1" parent="1" source="58nL1p40pWrhp6DG0ThI-12" target="58nL1p40pWrhp6DG0ThI-6">
          <mxGeometry width="160" relative="1" as="geometry">
            <mxPoint x="150" y="450" as="sourcePoint" />
            <mxPoint x="180" y="380" as="targetPoint" />
            <Array as="points">
              <mxPoint x="225" y="410" />
              <mxPoint x="175" y="410" />
            </Array>
          </mxGeometry>
        </mxCell>
        <mxCell id="bQyN1WdFYVQGxZ2X48XD-13" style="edgeStyle=orthogonalEdgeStyle;rounded=0;orthogonalLoop=1;jettySize=auto;html=1;entryX=0.993;entryY=0.633;entryDx=0;entryDy=0;entryPerimeter=0;exitX=0.25;exitY=0;exitDx=0;exitDy=0;" edge="1" parent="1" source="58nL1p40pWrhp6DG0ThI-22" target="58nL1p40pWrhp6DG0ThI-17">
          <mxGeometry relative="1" as="geometry" />
        </mxCell>
        <mxCell id="bQyN1WdFYVQGxZ2X48XD-36" value="simulates" style="edgeLabel;html=1;align=center;verticalAlign=middle;resizable=0;points=[];" vertex="1" connectable="0" parent="bQyN1WdFYVQGxZ2X48XD-13">
          <mxGeometry x="-0.7536" relative="1" as="geometry">
            <mxPoint x="-30" y="1" as="offset" />
          </mxGeometry>
        </mxCell>
        <mxCell id="bQyN1WdFYVQGxZ2X48XD-19" style="edgeStyle=orthogonalEdgeStyle;rounded=0;orthogonalLoop=1;jettySize=auto;html=1;exitX=0;exitY=0.5;exitDx=0;exitDy=0;entryX=0.993;entryY=0.676;entryDx=0;entryDy=0;entryPerimeter=0;flowAnimation=0;" edge="1" parent="1" source="58nL1p40pWrhp6DG0ThI-8" target="58nL1p40pWrhp6DG0ThI-6">
          <mxGeometry relative="1" as="geometry" />
        </mxCell>
        <mxCell id="bQyN1WdFYVQGxZ2X48XD-42" value="refers to" style="edgeLabel;html=1;align=center;verticalAlign=middle;resizable=0;points=[];" vertex="1" connectable="0" parent="bQyN1WdFYVQGxZ2X48XD-19">
          <mxGeometry x="-0.4272" relative="1" as="geometry">
            <mxPoint x="5" y="-10" as="offset" />
          </mxGeometry>
        </mxCell>
        <mxCell id="bQyN1WdFYVQGxZ2X48XD-22" value="" style="endArrow=none;html=1;endSize=12;startArrow=diamondThin;startSize=14;startFill=0;edgeStyle=orthogonalEdgeStyle;align=left;verticalAlign=bottom;rounded=0;exitX=0.75;exitY=1;exitDx=0;exitDy=0;endFill=0;jumpStyle=arc;" edge="1" parent="1" source="58nL1p40pWrhp6DG0ThI-9" target="58nL1p40pWrhp6DG0ThI-20">
          <mxGeometry x="-1" y="3" relative="1" as="geometry">
            <mxPoint x="343" y="220" as="sourcePoint" />
            <mxPoint x="250" y="270" as="targetPoint" />
            <Array as="points">
              <mxPoint x="320" y="520" />
            </Array>
          </mxGeometry>
        </mxCell>
        <mxCell id="bQyN1WdFYVQGxZ2X48XD-26" value="&lt;b&gt;U-Space Service&lt;/b&gt;" style="html=1;whiteSpace=wrap;fillColor=#d5e8d4;strokeColor=#82b366;" vertex="1" parent="1">
          <mxGeometry x="560" y="760" width="110" height="55" as="geometry" />
        </mxCell>
        <mxCell id="bQyN1WdFYVQGxZ2X48XD-29" value="" style="endArrow=none;html=1;endSize=12;startArrow=diamondThin;startSize=14;startFill=1;edgeStyle=orthogonalEdgeStyle;align=left;verticalAlign=bottom;rounded=0;exitX=1;exitY=0.5;exitDx=0;exitDy=0;entryX=1;entryY=0.5;entryDx=0;entryDy=0;endFill=0;" edge="1" parent="1" source="bQyN1WdFYVQGxZ2X48XD-26" target="58nL1p40pWrhp6DG0ThI-22">
          <mxGeometry x="-0.4595" y="10" relative="1" as="geometry">
            <mxPoint x="450" y="160" as="sourcePoint" />
            <mxPoint x="450" y="199" as="targetPoint" />
            <mxPoint as="offset" />
            <Array as="points">
              <mxPoint x="700" y="788" />
              <mxPoint x="700" y="220" />
            </Array>
          </mxGeometry>
        </mxCell>
        <mxCell id="bQyN1WdFYVQGxZ2X48XD-30" value="" style="endArrow=none;html=1;endSize=12;startArrow=diamondThin;startSize=14;startFill=1;edgeStyle=orthogonalEdgeStyle;align=left;verticalAlign=bottom;rounded=0;exitX=0.75;exitY=0;exitDx=0;exitDy=0;endFill=0;" edge="1" parent="1" source="bQyN1WdFYVQGxZ2X48XD-26" target="58nL1p40pWrhp6DG0ThI-26">
          <mxGeometry x="-0.4595" y="10" relative="1" as="geometry">
            <mxPoint x="680" y="1320" as="sourcePoint" />
            <mxPoint x="705" y="760" as="targetPoint" />
            <mxPoint as="offset" />
            <Array as="points">
              <mxPoint x="643" y="720" />
              <mxPoint x="643" y="720" />
            </Array>
          </mxGeometry>
        </mxCell>
        <mxCell id="bQyN1WdFYVQGxZ2X48XD-31" value="" style="endArrow=none;html=1;endSize=12;startArrow=diamondThin;startSize=14;startFill=1;edgeStyle=orthogonalEdgeStyle;align=left;verticalAlign=bottom;rounded=0;exitX=0.25;exitY=0;exitDx=0;exitDy=0;entryX=0.5;entryY=1;entryDx=0;entryDy=0;endFill=0;" edge="1" parent="1" source="bQyN1WdFYVQGxZ2X48XD-26" target="58nL1p40pWrhp6DG0ThI-24">
          <mxGeometry x="-0.4595" y="10" relative="1" as="geometry">
            <mxPoint x="578" y="755" as="sourcePoint" />
            <mxPoint x="560" y="493" as="targetPoint" />
            <mxPoint as="offset" />
            <Array as="points">
              <mxPoint x="588" y="720" />
              <mxPoint x="450" y="720" />
            </Array>
          </mxGeometry>
        </mxCell>
        <mxCell id="bQyN1WdFYVQGxZ2X48XD-32" value="" style="endArrow=none;html=1;endSize=12;startArrow=diamondThin;startSize=14;startFill=1;edgeStyle=orthogonalEdgeStyle;align=left;verticalAlign=bottom;rounded=0;exitX=0.75;exitY=1;exitDx=0;exitDy=0;entryX=0.5;entryY=1;entryDx=0;entryDy=0;endFill=0;" edge="1" parent="1" source="bQyN1WdFYVQGxZ2X48XD-26" target="58nL1p40pWrhp6DG0ThI-23">
          <mxGeometry x="-0.4595" y="10" relative="1" as="geometry">
            <mxPoint x="288" y="853.5" as="sourcePoint" />
            <mxPoint x="200" y="591.5" as="targetPoint" />
            <mxPoint as="offset" />
            <Array as="points">
              <mxPoint x="643" y="860" />
              <mxPoint x="50" y="860" />
              <mxPoint x="50" y="619" />
              <mxPoint x="205" y="619" />
            </Array>
          </mxGeometry>
        </mxCell>
        <mxCell id="9x4WywznsmxucqyviloC-1" value="" style="rounded=0;whiteSpace=wrap;html=1;fillColor=#d5e8d4;strokeColor=#82b366;" vertex="1" parent="1">
          <mxGeometry x="50" y="880" width="20" height="10" as="geometry" />
        </mxCell>
        <mxCell id="9x4WywznsmxucqyviloC-2" value="U-Space Service" style="text;html=1;align=center;verticalAlign=middle;resizable=0;points=[];autosize=1;strokeColor=none;fillColor=none;" vertex="1" parent="1">
          <mxGeometry x="70" y="870" width="110" height="30" as="geometry" />
        </mxCell>
        <mxCell id="9x4WywznsmxucqyviloC-3" value="" style="rounded=0;whiteSpace=wrap;html=1;fillColor=#fff2cc;strokeColor=#d6b656;" vertex="1" parent="1">
          <mxGeometry x="200" y="880" width="20" height="10" as="geometry" />
        </mxCell>
        <mxCell id="9x4WywznsmxucqyviloC-4" value="Entity of Airspace" style="text;html=1;align=center;verticalAlign=middle;resizable=0;points=[];autosize=1;strokeColor=none;fillColor=none;" vertex="1" parent="1">
          <mxGeometry x="220" y="870" width="120" height="30" as="geometry" />
        </mxCell>
        <mxCell id="9x4WywznsmxucqyviloC-5" value="" style="rounded=0;whiteSpace=wrap;html=1;fillColor=#fad7ac;strokeColor=#b46504;" vertex="1" parent="1">
          <mxGeometry x="350" y="880" width="20" height="10" as="geometry" />
        </mxCell>
        <mxCell id="9x4WywznsmxucqyviloC-6" value="UAV System" style="text;html=1;align=center;verticalAlign=middle;resizable=0;points=[];autosize=1;strokeColor=none;fillColor=none;" vertex="1" parent="1">
          <mxGeometry x="369.99999999999994" y="870" width="90" height="30" as="geometry" />
        </mxCell>
        <mxCell id="9x4WywznsmxucqyviloC-11" value="" style="rounded=0;whiteSpace=wrap;html=1;fillColor=#f8cecc;strokeColor=#b85450;" vertex="1" parent="1">
          <mxGeometry x="472" y="880" width="20" height="10" as="geometry" />
        </mxCell>
        <mxCell id="9x4WywznsmxucqyviloC-12" value="Simulator" style="text;html=1;align=center;verticalAlign=middle;resizable=0;points=[];autosize=1;strokeColor=none;fillColor=none;" vertex="1" parent="1">
          <mxGeometry x="501.99999999999994" y="870" width="70" height="30" as="geometry" />
        </mxCell>
        <mxCell id="9x4WywznsmxucqyviloC-16" style="edgeStyle=orthogonalEdgeStyle;rounded=0;orthogonalLoop=1;jettySize=auto;html=1;exitX=0;exitY=0.5;exitDx=0;exitDy=0;entryX=0.998;entryY=0.833;entryDx=0;entryDy=0;entryPerimeter=0;" edge="1" parent="1" source="58nL1p40pWrhp6DG0ThI-25" target="58nL1p40pWrhp6DG0ThI-21">
          <mxGeometry relative="1" as="geometry" />
        </mxCell>
        <mxCell id="9x4WywznsmxucqyviloC-17" value="simulates" style="edgeLabel;html=1;align=center;verticalAlign=middle;resizable=0;points=[];" vertex="1" connectable="0" parent="9x4WywznsmxucqyviloC-16">
          <mxGeometry x="0.2874" y="-1" relative="1" as="geometry">
            <mxPoint x="15" y="-9" as="offset" />
          </mxGeometry>
        </mxCell>
      </root>
    </mxGraphModel>
  </diagram>
  <diagram id="tFlzyFHfSJb63bteiW0W" name="StateMachine">
    <mxGraphModel dx="743" dy="788" grid="1" gridSize="10" guides="1" tooltips="1" connect="1" arrows="1" fold="1" page="1" pageScale="1" pageWidth="827" pageHeight="1169" math="0" shadow="0">
      <root>
        <mxCell id="0" />
        <mxCell id="1" parent="0" />
        <mxCell id="wJnGjutPDZRajI_QxWFr-10" value="Power On" style="edgeStyle=orthogonalEdgeStyle;rounded=0;orthogonalLoop=1;jettySize=auto;html=1;exitX=1;exitY=0.5;exitDx=0;exitDy=0;exitPerimeter=0;fontSize=12;" edge="1" parent="1" source="wJnGjutPDZRajI_QxWFr-1" target="wJnGjutPDZRajI_QxWFr-3">
          <mxGeometry x="-0.1429" y="10" relative="1" as="geometry">
            <mxPoint as="offset" />
          </mxGeometry>
        </mxCell>
        <mxCell id="wJnGjutPDZRajI_QxWFr-1" value="" style="strokeWidth=2;html=1;shape=mxgraph.flowchart.start_2;whiteSpace=wrap;fillColor=#000000;fontSize=12;" vertex="1" parent="1">
          <mxGeometry x="8" y="245" width="30" height="30" as="geometry" />
        </mxCell>
        <mxCell id="wJnGjutPDZRajI_QxWFr-11" style="edgeStyle=orthogonalEdgeStyle;rounded=0;orthogonalLoop=1;jettySize=auto;html=1;exitX=0.5;exitY=0;exitDx=0;exitDy=0;entryX=0;entryY=0.5;entryDx=0;entryDy=0;fontSize=12;" edge="1" parent="1" source="wJnGjutPDZRajI_QxWFr-3" target="wJnGjutPDZRajI_QxWFr-8">
          <mxGeometry relative="1" as="geometry" />
        </mxCell>
        <mxCell id="wJnGjutPDZRajI_QxWFr-25" value="&lt;div&gt;Battery level critical&lt;/div&gt;&lt;div&gt;OR geo zone violation&lt;/div&gt;&lt;div&gt;OR rain cell entered&lt;/div&gt;&lt;div&gt;OR data not available&lt;/div&gt;" style="edgeLabel;html=1;align=center;verticalAlign=middle;resizable=0;points=[];fontSize=12;" vertex="1" connectable="0" parent="wJnGjutPDZRajI_QxWFr-11">
          <mxGeometry x="-0.2321" relative="1" as="geometry">
            <mxPoint x="-62" y="-8" as="offset" />
          </mxGeometry>
        </mxCell>
        <mxCell id="wJnGjutPDZRajI_QxWFr-12" style="edgeStyle=orthogonalEdgeStyle;rounded=0;orthogonalLoop=1;jettySize=auto;html=1;exitX=1;exitY=0.5;exitDx=0;exitDy=0;fontSize=12;" edge="1" parent="1" source="wJnGjutPDZRajI_QxWFr-3" target="wJnGjutPDZRajI_QxWFr-5">
          <mxGeometry relative="1" as="geometry" />
        </mxCell>
        <mxCell id="wJnGjutPDZRajI_QxWFr-27" value="Insufficient battery" style="edgeLabel;html=1;align=center;verticalAlign=middle;resizable=0;points=[];fontSize=12;" vertex="1" connectable="0" parent="wJnGjutPDZRajI_QxWFr-12">
          <mxGeometry x="-0.0476" relative="1" as="geometry">
            <mxPoint x="3" y="-10" as="offset" />
          </mxGeometry>
        </mxCell>
        <mxCell id="wJnGjutPDZRajI_QxWFr-16" style="edgeStyle=orthogonalEdgeStyle;rounded=0;orthogonalLoop=1;jettySize=auto;html=1;exitX=0.75;exitY=1;exitDx=0;exitDy=0;entryX=0.5;entryY=1;entryDx=0;entryDy=0;fontSize=12;" edge="1" parent="1" source="wJnGjutPDZRajI_QxWFr-3" target="wJnGjutPDZRajI_QxWFr-6">
          <mxGeometry relative="1" as="geometry" />
        </mxCell>
        <mxCell id="wJnGjutPDZRajI_QxWFr-32" value="Destination not available" style="edgeLabel;html=1;align=center;verticalAlign=middle;resizable=0;points=[];fontSize=12;" vertex="1" connectable="0" parent="wJnGjutPDZRajI_QxWFr-16">
          <mxGeometry x="0.1223" relative="1" as="geometry">
            <mxPoint y="10" as="offset" />
          </mxGeometry>
        </mxCell>
        <mxCell id="wJnGjutPDZRajI_QxWFr-17" style="edgeStyle=orthogonalEdgeStyle;rounded=0;orthogonalLoop=1;jettySize=auto;html=1;exitX=0.25;exitY=1;exitDx=0;exitDy=0;entryX=0;entryY=0.5;entryDx=0;entryDy=0;fontSize=12;" edge="1" parent="1" source="wJnGjutPDZRajI_QxWFr-3" target="wJnGjutPDZRajI_QxWFr-7">
          <mxGeometry relative="1" as="geometry" />
        </mxCell>
        <mxCell id="wJnGjutPDZRajI_QxWFr-28" value="Destination reached" style="edgeLabel;html=1;align=center;verticalAlign=middle;resizable=0;points=[];fontSize=12;" vertex="1" connectable="0" parent="wJnGjutPDZRajI_QxWFr-17">
          <mxGeometry x="0.1852" y="3" relative="1" as="geometry">
            <mxPoint y="-7" as="offset" />
          </mxGeometry>
        </mxCell>
        <mxCell id="wJnGjutPDZRajI_QxWFr-3" value="Normal Flight" style="rounded=1;whiteSpace=wrap;html=1;fillColor=#d5e8d4;strokeColor=#82b366;fontSize=12;fontStyle=1" vertex="1" parent="1">
          <mxGeometry x="108" y="240" width="100" height="40" as="geometry" />
        </mxCell>
        <mxCell id="wJnGjutPDZRajI_QxWFr-13" style="edgeStyle=orthogonalEdgeStyle;rounded=0;orthogonalLoop=1;jettySize=auto;html=1;exitX=1;exitY=0.25;exitDx=0;exitDy=0;entryX=0;entryY=0.25;entryDx=0;entryDy=0;fontSize=12;" edge="1" parent="1" source="wJnGjutPDZRajI_QxWFr-5" target="wJnGjutPDZRajI_QxWFr-6">
          <mxGeometry relative="1" as="geometry" />
        </mxCell>
        <mxCell id="wJnGjutPDZRajI_QxWFr-31" value="Alternative destination selected" style="edgeLabel;html=1;align=center;verticalAlign=middle;resizable=0;points=[];fontSize=12;" vertex="1" connectable="0" parent="wJnGjutPDZRajI_QxWFr-13">
          <mxGeometry x="0.1092" y="3" relative="1" as="geometry">
            <mxPoint x="-14" y="-7" as="offset" />
          </mxGeometry>
        </mxCell>
        <mxCell id="wJnGjutPDZRajI_QxWFr-5" value="Landing Request" style="rounded=1;whiteSpace=wrap;html=1;fillColor=#fff2cc;strokeColor=#d6b656;fontSize=12;fontStyle=1" vertex="1" parent="1">
          <mxGeometry x="323" y="240" width="110" height="40" as="geometry" />
        </mxCell>
        <mxCell id="wJnGjutPDZRajI_QxWFr-14" style="edgeStyle=orthogonalEdgeStyle;rounded=0;orthogonalLoop=1;jettySize=auto;html=1;exitX=0;exitY=0.75;exitDx=0;exitDy=0;entryX=1;entryY=0.75;entryDx=0;entryDy=0;fontSize=12;" edge="1" parent="1" source="wJnGjutPDZRajI_QxWFr-6" target="wJnGjutPDZRajI_QxWFr-5">
          <mxGeometry relative="1" as="geometry" />
        </mxCell>
        <mxCell id="wJnGjutPDZRajI_QxWFr-29" value="Insufficient battery" style="edgeLabel;html=1;align=center;verticalAlign=middle;resizable=0;points=[];fontSize=12;" vertex="1" connectable="0" parent="wJnGjutPDZRajI_QxWFr-14">
          <mxGeometry x="0.0857" y="-1" relative="1" as="geometry">
            <mxPoint x="12" y="11" as="offset" />
          </mxGeometry>
        </mxCell>
        <mxCell id="wJnGjutPDZRajI_QxWFr-19" style="edgeStyle=orthogonalEdgeStyle;rounded=0;orthogonalLoop=1;jettySize=auto;html=1;exitX=0.5;exitY=0;exitDx=0;exitDy=0;entryX=0.5;entryY=1;entryDx=0;entryDy=0;fontSize=12;" edge="1" parent="1" source="wJnGjutPDZRajI_QxWFr-6" target="wJnGjutPDZRajI_QxWFr-8">
          <mxGeometry relative="1" as="geometry" />
        </mxCell>
        <mxCell id="wJnGjutPDZRajI_QxWFr-6" value="Reroute Flight" style="rounded=1;whiteSpace=wrap;html=1;fillColor=#fff2cc;strokeColor=#d6b656;fontSize=12;fontStyle=1" vertex="1" parent="1">
          <mxGeometry x="624" y="240" width="100" height="40" as="geometry" />
        </mxCell>
        <mxCell id="wJnGjutPDZRajI_QxWFr-7" value="Flight Completed" style="rounded=1;whiteSpace=wrap;html=1;fillColor=#d5e8d4;strokeColor=#82b366;fontSize=12;fontStyle=1" vertex="1" parent="1">
          <mxGeometry x="287" y="320" width="110" height="40" as="geometry" />
        </mxCell>
        <mxCell id="wJnGjutPDZRajI_QxWFr-18" style="edgeStyle=orthogonalEdgeStyle;rounded=0;orthogonalLoop=1;jettySize=auto;html=1;exitX=1;exitY=0.5;exitDx=0;exitDy=0;entryX=0;entryY=0.5;entryDx=0;entryDy=0;fontSize=12;" edge="1" parent="1" source="wJnGjutPDZRajI_QxWFr-8" target="wJnGjutPDZRajI_QxWFr-9">
          <mxGeometry relative="1" as="geometry" />
        </mxCell>
        <mxCell id="wJnGjutPDZRajI_QxWFr-36" value="Emergency landing configured" style="edgeLabel;html=1;align=center;verticalAlign=middle;resizable=0;points=[];fontSize=12;" vertex="1" connectable="0" parent="wJnGjutPDZRajI_QxWFr-18">
          <mxGeometry x="-0.1532" y="3" relative="1" as="geometry">
            <mxPoint x="8" y="-7" as="offset" />
          </mxGeometry>
        </mxCell>
        <mxCell id="wJnGjutPDZRajI_QxWFr-8" value="Emergency Landing Request" style="rounded=1;whiteSpace=wrap;html=1;fillColor=#fff2cc;strokeColor=#d6b656;fontSize=12;fontStyle=1" vertex="1" parent="1">
          <mxGeometry x="227" y="120" width="110" height="40" as="geometry" />
        </mxCell>
        <mxCell id="wJnGjutPDZRajI_QxWFr-9" value="Emergency Landing" style="rounded=1;whiteSpace=wrap;html=1;fillColor=#fff2cc;strokeColor=#d6b656;fontSize=12;fontStyle=1" vertex="1" parent="1">
          <mxGeometry x="547" y="120" width="100" height="40" as="geometry" />
        </mxCell>
        <mxCell id="wJnGjutPDZRajI_QxWFr-22" style="edgeStyle=orthogonalEdgeStyle;rounded=0;orthogonalLoop=1;jettySize=auto;html=1;exitX=1;exitY=0.5;exitDx=0;exitDy=0;entryX=0.5;entryY=0;entryDx=0;entryDy=0;entryPerimeter=0;fontSize=12;" edge="1" parent="1" source="wJnGjutPDZRajI_QxWFr-9" target="wJnGjutPDZRajI_QxWFr-37">
          <mxGeometry relative="1" as="geometry" />
        </mxCell>
        <mxCell id="wJnGjutPDZRajI_QxWFr-35" value="Power Off" style="edgeLabel;html=1;align=center;verticalAlign=middle;resizable=0;points=[];fontSize=12;" vertex="1" connectable="0" parent="wJnGjutPDZRajI_QxWFr-22">
          <mxGeometry x="-0.4159" relative="1" as="geometry">
            <mxPoint x="5" y="-10" as="offset" />
          </mxGeometry>
        </mxCell>
        <mxCell id="wJnGjutPDZRajI_QxWFr-23" style="edgeStyle=orthogonalEdgeStyle;rounded=0;orthogonalLoop=1;jettySize=auto;html=1;exitX=1;exitY=0.5;exitDx=0;exitDy=0;entryX=0;entryY=0.5;entryDx=0;entryDy=0;entryPerimeter=0;fontSize=12;" edge="1" parent="1" source="wJnGjutPDZRajI_QxWFr-6" target="wJnGjutPDZRajI_QxWFr-37">
          <mxGeometry relative="1" as="geometry" />
        </mxCell>
        <mxCell id="wJnGjutPDZRajI_QxWFr-34" value="Power Off" style="edgeLabel;html=1;align=center;verticalAlign=middle;resizable=0;points=[];fontSize=12;" vertex="1" connectable="0" parent="wJnGjutPDZRajI_QxWFr-23">
          <mxGeometry x="-0.2952" y="1" relative="1" as="geometry">
            <mxPoint x="7" y="-12" as="offset" />
          </mxGeometry>
        </mxCell>
        <mxCell id="wJnGjutPDZRajI_QxWFr-24" style="edgeStyle=orthogonalEdgeStyle;rounded=0;orthogonalLoop=1;jettySize=auto;html=1;exitX=1;exitY=0.5;exitDx=0;exitDy=0;entryX=0.5;entryY=1;entryDx=0;entryDy=0;entryPerimeter=0;fontSize=12;" edge="1" parent="1" source="wJnGjutPDZRajI_QxWFr-7" target="wJnGjutPDZRajI_QxWFr-37">
          <mxGeometry relative="1" as="geometry" />
        </mxCell>
        <mxCell id="wJnGjutPDZRajI_QxWFr-33" value="Power Off" style="edgeLabel;html=1;align=center;verticalAlign=middle;resizable=0;points=[];fontSize=12;" vertex="1" connectable="0" parent="wJnGjutPDZRajI_QxWFr-24">
          <mxGeometry x="-0.1119" y="1" relative="1" as="geometry">
            <mxPoint y="-9" as="offset" />
          </mxGeometry>
        </mxCell>
        <mxCell id="wJnGjutPDZRajI_QxWFr-26" value="&lt;div&gt;Battery level critical&amp;nbsp;&lt;span style=&quot;background-color: light-dark(#ffffff, var(--ge-dark-color, #121212)); color: light-dark(rgb(0, 0, 0), rgb(255, 255, 255));&quot;&gt;OR geo zone violation&lt;/span&gt;&lt;/div&gt;&lt;div&gt;OR rain cell entered&amp;nbsp;&lt;span style=&quot;background-color: light-dark(#ffffff, var(--ge-dark-color, #121212)); color: light-dark(rgb(0, 0, 0), rgb(255, 255, 255));&quot;&gt;OR data not available&lt;/span&gt;&lt;/div&gt;" style="edgeLabel;html=1;align=center;verticalAlign=middle;resizable=0;points=[];fontSize=12;" vertex="1" connectable="0" parent="1">
          <mxGeometry x="411" y="178" as="geometry">
            <mxPoint x="61" y="6" as="offset" />
          </mxGeometry>
        </mxCell>
        <mxCell id="_P7l-WWUL0GUlYYMZYOf-1" value="" style="rounded=0;whiteSpace=wrap;html=1;fillColor=#d5e8d4;strokeColor=#82b366;fontSize=12;" vertex="1" parent="1">
          <mxGeometry x="597" y="370" width="20" height="10" as="geometry" />
        </mxCell>
        <mxCell id="_P7l-WWUL0GUlYYMZYOf-2" value="Normal Flow" style="text;html=1;align=center;verticalAlign=middle;resizable=0;points=[];autosize=1;strokeColor=none;fillColor=none;fontSize=12;" vertex="1" parent="1">
          <mxGeometry x="617" y="360" width="90" height="30" as="geometry" />
        </mxCell>
        <mxCell id="_P7l-WWUL0GUlYYMZYOf-3" value="" style="rounded=0;whiteSpace=wrap;html=1;fillColor=#fff2cc;strokeColor=#d6b656;fontSize=12;" vertex="1" parent="1">
          <mxGeometry x="713" y="370" width="20" height="10" as="geometry" />
        </mxCell>
        <mxCell id="_P7l-WWUL0GUlYYMZYOf-4" value="Adaptation" style="text;html=1;align=center;verticalAlign=middle;resizable=0;points=[];autosize=1;strokeColor=none;fillColor=none;fontSize=12;" vertex="1" parent="1">
          <mxGeometry x="733" y="360" width="80" height="30" as="geometry" />
        </mxCell>
        <mxCell id="wJnGjutPDZRajI_QxWFr-37" value="" style="strokeWidth=2;html=1;shape=mxgraph.flowchart.start_2;whiteSpace=wrap;fontSize=12;" vertex="1" parent="1">
          <mxGeometry x="787" y="245" width="30" height="30" as="geometry" />
        </mxCell>
        <mxCell id="_P7l-WWUL0GUlYYMZYOf-5" value="" style="strokeWidth=2;html=1;shape=mxgraph.flowchart.start_2;whiteSpace=wrap;fillColor=#000000;fontSize=12;" vertex="1" parent="1">
          <mxGeometry x="791.5" y="250" width="21" height="20" as="geometry" />
        </mxCell>
      </root>
    </mxGraphModel>
  </diagram>
  <diagram id="eI2hnhht-ffcegSmvl_3" name="managingManaged">
    <mxGraphModel dx="1072" dy="543" grid="1" gridSize="10" guides="1" tooltips="1" connect="1" arrows="1" fold="1" page="1" pageScale="1" pageWidth="827" pageHeight="1169" math="0" shadow="0">
      <root>
        <mxCell id="0" />
        <mxCell id="1" parent="0" />
        <mxCell id="S40lDzRI9whxHqfA_-p4-53" value="" style="rounded=0;whiteSpace=wrap;html=1;fillColor=#f5f5f5;strokeColor=#666666;fontColor=#333333;" vertex="1" parent="1">
          <mxGeometry x="270" y="87" width="310" height="180" as="geometry" />
        </mxCell>
        <mxCell id="S40lDzRI9whxHqfA_-p4-1" value="&lt;span style=&quot;color: rgb(0, 0, 0); font-weight: 700;&quot;&gt;&lt;font style=&quot;font-size: 15px;&quot;&gt;Managing System&lt;/font&gt;&lt;/span&gt;" style="rounded=0;whiteSpace=wrap;html=1;fillColor=#f8cecc;strokeColor=#b85450;" vertex="1" parent="1">
          <mxGeometry x="310" y="120" width="230" height="40" as="geometry" />
        </mxCell>
        <mxCell id="S40lDzRI9whxHqfA_-p4-3" style="edgeStyle=orthogonalEdgeStyle;rounded=0;orthogonalLoop=1;jettySize=auto;html=1;exitX=0.25;exitY=0;exitDx=0;exitDy=0;entryX=0.25;entryY=1;entryDx=0;entryDy=0;strokeWidth=2;" edge="1" parent="1" source="S40lDzRI9whxHqfA_-p4-55" target="S40lDzRI9whxHqfA_-p4-1">
          <mxGeometry relative="1" as="geometry">
            <mxPoint x="178.72000000000003" y="300" as="sourcePoint" />
            <mxPoint x="179" y="260" as="targetPoint" />
          </mxGeometry>
        </mxCell>
        <mxCell id="S40lDzRI9whxHqfA_-p4-4" value="Monitor" style="edgeLabel;html=1;align=center;verticalAlign=middle;resizable=0;points=[];labelBackgroundColor=light-dark(#f5f5f5, #ededed);fontSize=11;" vertex="1" connectable="0" parent="S40lDzRI9whxHqfA_-p4-3">
          <mxGeometry x="-0.1155" relative="1" as="geometry">
            <mxPoint y="4" as="offset" />
          </mxGeometry>
        </mxCell>
        <mxCell id="S40lDzRI9whxHqfA_-p4-15" style="edgeStyle=orthogonalEdgeStyle;rounded=0;orthogonalLoop=1;jettySize=auto;html=1;entryX=0.25;entryY=1;entryDx=0;entryDy=0;strokeWidth=2;" edge="1" parent="1" source="S40lDzRI9whxHqfA_-p4-24" target="S40lDzRI9whxHqfA_-p4-51">
          <mxGeometry relative="1" as="geometry">
            <mxPoint x="174.07999999999993" y="530" as="sourcePoint" />
            <mxPoint x="174" y="490" as="targetPoint" />
            <Array as="points">
              <mxPoint x="368" y="340" />
              <mxPoint x="368" y="340" />
            </Array>
          </mxGeometry>
        </mxCell>
        <mxCell id="S40lDzRI9whxHqfA_-p4-16" value="Monitor" style="edgeLabel;html=1;align=center;verticalAlign=middle;resizable=0;points=[];fontSize=11;" vertex="1" connectable="0" parent="S40lDzRI9whxHqfA_-p4-15">
          <mxGeometry x="-0.0314" relative="1" as="geometry">
            <mxPoint y="3" as="offset" />
          </mxGeometry>
        </mxCell>
        <mxCell id="S40lDzRI9whxHqfA_-p4-22" style="edgeStyle=orthogonalEdgeStyle;rounded=0;orthogonalLoop=1;jettySize=auto;html=1;entryX=0;entryY=0.5;entryDx=0;entryDy=0;strokeWidth=2;" edge="1" parent="1" source="S40lDzRI9whxHqfA_-p4-56" target="S40lDzRI9whxHqfA_-p4-1">
          <mxGeometry relative="1" as="geometry">
            <Array as="points">
              <mxPoint x="250" y="310" />
              <mxPoint x="250" y="140" />
            </Array>
            <mxPoint x="119" y="260" as="targetPoint" />
          </mxGeometry>
        </mxCell>
        <mxCell id="S40lDzRI9whxHqfA_-p4-23" value="Monitor" style="edgeLabel;html=1;align=center;verticalAlign=middle;resizable=0;points=[];fontSize=11;" vertex="1" connectable="0" parent="S40lDzRI9whxHqfA_-p4-22">
          <mxGeometry x="-0.5773" relative="1" as="geometry">
            <mxPoint y="10" as="offset" />
          </mxGeometry>
        </mxCell>
        <mxCell id="S40lDzRI9whxHqfA_-p4-24" value="&lt;font style=&quot;font-size: 15px;&quot;&gt;&lt;b style=&quot;&quot;&gt;Environment&lt;/b&gt;&lt;/font&gt;&lt;div&gt;&lt;font style=&quot;font-size: 10px;&quot;&gt;Non-controllable software, hardware, network, physical context&lt;/font&gt;&lt;/div&gt;" style="rounded=0;whiteSpace=wrap;html=1;fillColor=#d5e8d4;strokeColor=#82b366;" vertex="1" parent="1">
          <mxGeometry x="270" y="300" width="310" height="60" as="geometry" />
        </mxCell>
        <mxCell id="S40lDzRI9whxHqfA_-p4-25" style="edgeStyle=orthogonalEdgeStyle;rounded=0;orthogonalLoop=1;jettySize=auto;html=1;exitX=0.75;exitY=1;exitDx=0;exitDy=0;strokeWidth=2;" edge="1" parent="1" source="S40lDzRI9whxHqfA_-p4-51" target="S40lDzRI9whxHqfA_-p4-24">
          <mxGeometry relative="1" as="geometry">
            <mxPoint x="112" y="539" as="targetPoint" />
            <mxPoint x="114" y="490" as="sourcePoint" />
            <Array as="points">
              <mxPoint x="483" y="309" />
              <mxPoint x="483" y="309" />
            </Array>
          </mxGeometry>
        </mxCell>
        <mxCell id="S40lDzRI9whxHqfA_-p4-26" value="Effect" style="edgeLabel;html=1;align=center;verticalAlign=middle;resizable=0;points=[];fontSize=11;" vertex="1" connectable="0" parent="S40lDzRI9whxHqfA_-p4-25">
          <mxGeometry x="-0.073" relative="1" as="geometry">
            <mxPoint y="3" as="offset" />
          </mxGeometry>
        </mxCell>
        <mxCell id="S40lDzRI9whxHqfA_-p4-39" style="edgeStyle=orthogonalEdgeStyle;rounded=0;orthogonalLoop=1;jettySize=auto;html=1;exitX=0.75;exitY=1;exitDx=0;exitDy=0;entryX=0.75;entryY=0;entryDx=0;entryDy=0;strokeWidth=2;" edge="1" parent="1" source="S40lDzRI9whxHqfA_-p4-1" target="S40lDzRI9whxHqfA_-p4-55">
          <mxGeometry relative="1" as="geometry">
            <mxPoint x="709" y="260" as="sourcePoint" />
            <mxPoint x="708.6999999999998" y="297.8399999999999" as="targetPoint" />
          </mxGeometry>
        </mxCell>
        <mxCell id="S40lDzRI9whxHqfA_-p4-40" value="Adapt" style="edgeLabel;html=1;align=center;verticalAlign=middle;resizable=0;points=[];labelBackgroundColor=light-dark(#f5f5f5, #ededed);fontSize=11;" vertex="1" connectable="0" parent="S40lDzRI9whxHqfA_-p4-39">
          <mxGeometry x="-0.2256" y="1" relative="1" as="geometry">
            <mxPoint y="-1" as="offset" />
          </mxGeometry>
        </mxCell>
        <mxCell id="S40lDzRI9whxHqfA_-p4-51" value="&lt;span style=&quot;color: rgb(0, 0, 0); font-weight: 700;&quot;&gt;&lt;font style=&quot;font-size: 15px;&quot;&gt;Managed System&lt;/font&gt;&lt;/span&gt;" style="rounded=0;whiteSpace=wrap;html=1;fillColor=#dae8fc;strokeColor=#6c8ebf;" vertex="1" parent="1">
          <mxGeometry x="310" y="220" width="230" height="30" as="geometry" />
        </mxCell>
        <mxCell id="S40lDzRI9whxHqfA_-p4-54" value="&lt;span style=&quot;color: rgb(0, 0, 0); font-family: Helvetica; font-style: normal; font-variant-ligatures: normal; font-variant-caps: normal; font-weight: 700; letter-spacing: normal; orphans: 2; text-indent: 0px; text-transform: none; widows: 2; word-spacing: 0px; -webkit-text-stroke-width: 0px; white-space: normal; text-decoration-thickness: initial; text-decoration-style: initial; text-decoration-color: initial; float: none; display: inline !important;&quot;&gt;&lt;font style=&quot;font-size: 15px;&quot;&gt;Self Adaptive System&lt;/font&gt;&lt;/span&gt;" style="text;whiteSpace=wrap;html=1;align=center;labelBackgroundColor=none;" vertex="1" parent="1">
          <mxGeometry x="335" y="88" width="180" height="30" as="geometry" />
        </mxCell>
        <mxCell id="S40lDzRI9whxHqfA_-p4-55" value="&lt;font style=&quot;font-size: 10px;&quot;&gt;Instrumentation to monitor &amp;amp; adapt&lt;/font&gt;" style="rounded=0;whiteSpace=wrap;html=1;fillColor=#fff2cc;strokeColor=light-dark(#6c8ebf, #6d5100);" vertex="1" parent="1">
          <mxGeometry x="310" y="200" width="230" height="20" as="geometry" />
        </mxCell>
        <mxCell id="S40lDzRI9whxHqfA_-p4-56" value="&lt;font style=&quot;font-size: 10px;&quot;&gt;Probes&lt;/font&gt;" style="rounded=0;whiteSpace=wrap;html=1;fillColor=#fff2cc;strokeColor=#d6b656;" vertex="1" parent="1">
          <mxGeometry x="270" y="300" width="70" height="20" as="geometry" />
        </mxCell>
      </root>
    </mxGraphModel>
  </diagram>
  <diagram id="0F9PhedXUIXD1RyaSnoS" name="properties">
    <mxGraphModel dx="1295" dy="657" grid="1" gridSize="10" guides="1" tooltips="1" connect="1" arrows="1" fold="1" page="1" pageScale="1" pageWidth="827" pageHeight="1169" math="0" shadow="0">
      <root>
        <mxCell id="0" />
        <mxCell id="1" parent="0" />
        <mxCell id="EDgujsnzGURV0OjvNd9z-1" value="" style="shape=trapezoid;perimeter=trapezoidPerimeter;whiteSpace=wrap;html=1;fixedSize=1;size=46;fillColor=#f8cecc;strokeColor=#b85450;" vertex="1" parent="1">
          <mxGeometry x="200" y="340" width="390" height="60" as="geometry" />
        </mxCell>
        <mxCell id="EDgujsnzGURV0OjvNd9z-2" value="" style="shape=trapezoid;perimeter=trapezoidPerimeter;whiteSpace=wrap;html=1;fixedSize=1;size=45;fillColor=#fff2cc;strokeColor=#d6b656;" vertex="1" parent="1">
          <mxGeometry x="255" y="270" width="280" height="60" as="geometry" />
        </mxCell>
        <mxCell id="EDgujsnzGURV0OjvNd9z-3" value="" style="shape=trapezoid;perimeter=trapezoidPerimeter;whiteSpace=wrap;html=1;fixedSize=1;size=85;fillColor=#d5e8d4;strokeColor=#82b366;" vertex="1" parent="1">
          <mxGeometry x="310" y="150" width="170" height="110" as="geometry" />
        </mxCell>
        <mxCell id="EDgujsnzGURV0OjvNd9z-6" value="Self-Adaptivenes" style="text;html=1;align=center;verticalAlign=middle;whiteSpace=wrap;rounded=0;" vertex="1" parent="1">
          <mxGeometry x="335" y="227" width="120" height="30" as="geometry" />
        </mxCell>
        <mxCell id="EDgujsnzGURV0OjvNd9z-8" value="Self-Organizing" style="text;html=1;align=center;verticalAlign=middle;whiteSpace=wrap;rounded=0;" vertex="1" parent="1">
          <mxGeometry x="335" y="203" width="120" height="30" as="geometry" />
        </mxCell>
        <mxCell id="EDgujsnzGURV0OjvNd9z-9" value="Self-Configuring" style="text;html=1;align=center;verticalAlign=middle;whiteSpace=wrap;rounded=0;" vertex="1" parent="1">
          <mxGeometry x="280" y="270" width="120" height="30" as="geometry" />
        </mxCell>
        <mxCell id="EDgujsnzGURV0OjvNd9z-10" value="Self-Protecting" style="text;html=1;align=center;verticalAlign=middle;whiteSpace=wrap;rounded=0;" vertex="1" parent="1">
          <mxGeometry x="390" y="300" width="120" height="30" as="geometry" />
        </mxCell>
        <mxCell id="EDgujsnzGURV0OjvNd9z-11" value="Self-Optimizing" style="text;html=1;align=center;verticalAlign=middle;whiteSpace=wrap;rounded=0;" vertex="1" parent="1">
          <mxGeometry x="280" y="300" width="120" height="30" as="geometry" />
        </mxCell>
        <mxCell id="EDgujsnzGURV0OjvNd9z-12" value="Self-Healing" style="text;html=1;align=center;verticalAlign=middle;whiteSpace=wrap;rounded=0;" vertex="1" parent="1">
          <mxGeometry x="390" y="270" width="120" height="30" as="geometry" />
        </mxCell>
        <mxCell id="EDgujsnzGURV0OjvNd9z-13" value="Self-Awareness" style="text;html=1;align=center;verticalAlign=middle;whiteSpace=wrap;rounded=0;" vertex="1" parent="1">
          <mxGeometry x="255" y="355" width="120" height="30" as="geometry" />
        </mxCell>
        <mxCell id="EDgujsnzGURV0OjvNd9z-14" value="Context-Awareness" style="text;html=1;align=center;verticalAlign=middle;whiteSpace=wrap;rounded=0;" vertex="1" parent="1">
          <mxGeometry x="414" y="355" width="120" height="30" as="geometry" />
        </mxCell>
        <mxCell id="EDgujsnzGURV0OjvNd9z-15" value="&lt;b&gt;Primitive Level&lt;/b&gt;" style="text;html=1;align=center;verticalAlign=middle;whiteSpace=wrap;rounded=0;" vertex="1" parent="1">
          <mxGeometry x="105" y="355" width="90" height="30" as="geometry" />
        </mxCell>
        <mxCell id="EDgujsnzGURV0OjvNd9z-16" value="&lt;b&gt;General Level&lt;/b&gt;" style="text;html=1;align=center;verticalAlign=middle;whiteSpace=wrap;rounded=0;" vertex="1" parent="1">
          <mxGeometry x="95" y="210" width="110" height="30" as="geometry" />
        </mxCell>
        <mxCell id="EDgujsnzGURV0OjvNd9z-17" value="&lt;b&gt;Major Level&lt;/b&gt;" style="text;html=1;align=center;verticalAlign=middle;whiteSpace=wrap;rounded=0;" vertex="1" parent="1">
          <mxGeometry x="110" y="285" width="80" height="30" as="geometry" />
        </mxCell>
      </root>
    </mxGraphModel>
  </diagram>
  <diagram id="fm2V9rXDorTk95Ci478Z" name="Pagina-10">
    <mxGraphModel dx="1295" dy="657" grid="1" gridSize="10" guides="1" tooltips="1" connect="1" arrows="1" fold="1" page="1" pageScale="1" pageWidth="827" pageHeight="1169" math="0" shadow="0">
      <root>
        <mxCell id="0" />
        <mxCell id="1" parent="0" />
        <mxCell id="dpL5Sdm9AiM-gBFUX_hf-3" value="" style="edgeStyle=orthogonalEdgeStyle;rounded=0;orthogonalLoop=1;jettySize=auto;html=1;" parent="1" source="dpL5Sdm9AiM-gBFUX_hf-1" target="dpL5Sdm9AiM-gBFUX_hf-2" edge="1">
          <mxGeometry relative="1" as="geometry" />
        </mxCell>
        <mxCell id="dpL5Sdm9AiM-gBFUX_hf-1" value="Gestione della batteria" style="rounded=1;whiteSpace=wrap;html=1;" parent="1" vertex="1">
          <mxGeometry x="350" y="300" width="120" height="60" as="geometry" />
        </mxCell>
        <mxCell id="dpL5Sdm9AiM-gBFUX_hf-5" value="" style="edgeStyle=orthogonalEdgeStyle;rounded=0;orthogonalLoop=1;jettySize=auto;html=1;" parent="1" source="dpL5Sdm9AiM-gBFUX_hf-2" target="dpL5Sdm9AiM-gBFUX_hf-4" edge="1">
          <mxGeometry relative="1" as="geometry" />
        </mxCell>
        <mxCell id="dpL5Sdm9AiM-gBFUX_hf-2" value="Gestione delle informazioni" style="whiteSpace=wrap;html=1;rounded=1;" parent="1" vertex="1">
          <mxGeometry x="350" y="390" width="120" height="60" as="geometry" />
        </mxCell>
        <mxCell id="dpL5Sdm9AiM-gBFUX_hf-7" value="" style="edgeStyle=orthogonalEdgeStyle;rounded=0;orthogonalLoop=1;jettySize=auto;html=1;" parent="1" source="dpL5Sdm9AiM-gBFUX_hf-4" target="dpL5Sdm9AiM-gBFUX_hf-6" edge="1">
          <mxGeometry relative="1" as="geometry" />
        </mxCell>
        <mxCell id="dpL5Sdm9AiM-gBFUX_hf-4" value="Monitor di Conformità Geografica" style="whiteSpace=wrap;html=1;rounded=1;" parent="1" vertex="1">
          <mxGeometry x="350" y="480" width="120" height="60" as="geometry" />
        </mxCell>
        <mxCell id="dpL5Sdm9AiM-gBFUX_hf-9" value="" style="edgeStyle=orthogonalEdgeStyle;rounded=0;orthogonalLoop=1;jettySize=auto;html=1;" parent="1" source="dpL5Sdm9AiM-gBFUX_hf-6" target="dpL5Sdm9AiM-gBFUX_hf-8" edge="1">
          <mxGeometry relative="1" as="geometry" />
        </mxCell>
        <mxCell id="dpL5Sdm9AiM-gBFUX_hf-6" value="Pianificatore del piano di Volo" style="whiteSpace=wrap;html=1;rounded=1;" parent="1" vertex="1">
          <mxGeometry x="350" y="570" width="120" height="60" as="geometry" />
        </mxCell>
        <mxCell id="dpL5Sdm9AiM-gBFUX_hf-11" value="" style="edgeStyle=orthogonalEdgeStyle;rounded=0;orthogonalLoop=1;jettySize=auto;html=1;" parent="1" source="dpL5Sdm9AiM-gBFUX_hf-8" target="dpL5Sdm9AiM-gBFUX_hf-10" edge="1">
          <mxGeometry relative="1" as="geometry" />
        </mxCell>
        <mxCell id="dpL5Sdm9AiM-gBFUX_hf-8" value="Gestore dei Conflitti" style="whiteSpace=wrap;html=1;rounded=1;" parent="1" vertex="1">
          <mxGeometry x="350" y="660" width="120" height="60" as="geometry" />
        </mxCell>
        <mxCell id="dpL5Sdm9AiM-gBFUX_hf-12" style="edgeStyle=orthogonalEdgeStyle;rounded=0;orthogonalLoop=1;jettySize=auto;html=1;exitX=0.5;exitY=1;exitDx=0;exitDy=0;entryX=0.5;entryY=0;entryDx=0;entryDy=0;" parent="1" source="dpL5Sdm9AiM-gBFUX_hf-10" target="dpL5Sdm9AiM-gBFUX_hf-1" edge="1">
          <mxGeometry relative="1" as="geometry">
            <Array as="points">
              <mxPoint x="410" y="840" />
              <mxPoint x="500" y="840" />
              <mxPoint x="500" y="270" />
              <mxPoint x="410" y="270" />
            </Array>
          </mxGeometry>
        </mxCell>
        <mxCell id="dpL5Sdm9AiM-gBFUX_hf-10" value="Unità di controllo del volo" style="whiteSpace=wrap;html=1;rounded=1;" parent="1" vertex="1">
          <mxGeometry x="350" y="750" width="120" height="60" as="geometry" />
        </mxCell>
      </root>
    </mxGraphModel>
  </diagram>
</mxfile>
